<?xml version="1.0" encoding="utf-8"?>
<!-- Generator: Adobe Illustrator 23.0.5, SVG Export Plug-In . SVG Version: 6.00 Build 0)  -->
<svg version="1.1" id="Capa_1" xmlns="http://www.w3.org/2000/svg" xmlns:xlink="http://www.w3.org/1999/xlink" x="0px" y="0px"
	 viewBox="0 0 3197.6 1636" style="enable-background:new 0 0 3197.6 1636;" xml:space="preserve">
<style type="text/css">
	.st0{fill:#C44D45;}
	.st1{clip-path:url(#SVGID_2_);}
	.st2{fill:#E8BEA5;}
	.st3{fill:#2F2826;}
	.st4{fill:#3D3735;}
	.st5{fill:#F3E7D7;}
	.st6{fill:url(#SVGID_3_);}
	.st7{fill:#271D1B;}
	.st8{fill:url(#SVGID_4_);}
	.st9{fill:url(#SVGID_5_);}
	.st10{fill:#DA9B7F;}
	.st11{fill:#CC5344;}
	.st12{fill:#D68771;}
	.st13{fill:url(#SVGID_6_);}
	.st14{fill:url(#SVGID_7_);}
	.st15{fill:url(#SVGID_8_);}
	.st16{fill:url(#SVGID_9_);}
	.st17{fill:url(#SVGID_10_);}
	.st18{fill:url(#SVGID_11_);}
	.st19{fill:#D18D77;}
	.st20{fill:#001837;}
	.st21{fill:#E49D82;}
	.st22{fill:#152443;}
	.st23{fill:#C97F6D;}
	.st24{fill:#E4997D;}
	.st25{fill:#D2846F;}
	.st26{fill:#291D11;}
	.st27{fill:#492200;}
	.st28{fill:#FFFFFF;}
	.st29{fill:#A5D4E3;}
	.st30{fill:#6CA6BC;}
	.st31{fill:#D3E9E6;}
	.st32{fill:none;stroke:#90CCE1;stroke-width:5.3377;stroke-miterlimit:10;}
	.st33{fill:#321F12;}
	.st34{fill:none;stroke:#AFAFAF;stroke-width:8.7324;stroke-miterlimit:10;}
	.st35{fill:#94CDE1;}
	.st36{fill:#192746;}
	.st37{fill:#3C4D80;}
	.st38{fill:#4E66A8;}
	.st39{fill:#001435;}
	.st40{fill:#111C23;}
	.st41{fill:#0E1A21;}
	.st42{fill:#1A242B;}
	.st43{fill:#BE855C;}
	.st44{fill:#2F393F;}
	.st45{fill:#5BABBE;}
	.st46{fill:#5FB8C6;}
	.st47{fill:#7F423A;}
	.st48{fill:#B7605C;}
	.st49{fill:#43221B;}
	.st50{fill:#D18D73;}
	.st51{fill:#0C131A;}
	.st52{fill:#9294BA;}
	.st53{fill:#74A4C7;}
	.st54{fill:#1D232B;}
	.st55{fill:#747EA7;}
	.st56{fill:#C8C0D8;}
	.st57{fill:#9C9EBF;}
	.st58{opacity:0.1;fill:#2C3E48;}
	.st59{fill:#C69F95;}
	.st60{fill:#E2BDB1;}
	.st61{fill:#2C3E48;}
	.st62{fill:#23303A;}
	.st63{fill:#D2EAF6;stroke:#DAA96D;stroke-width:0.6309;stroke-miterlimit:10;}
	.st64{fill:#DAA96D;}
	.st65{fill:none;stroke:#DAA96D;stroke-width:0.7594;stroke-miterlimit:10;}
	.st66{fill:#E7A373;}
	.st67{fill:#8D7674;}
	.st68{fill:#584746;}
	.st69{fill:#50B09D;}
	.st70{fill:#999999;}
	.st71{fill:#F2F0F0;}
	.st72{fill:#485D66;}
	.st73{fill:#374D53;}
	.st74{fill:#596E74;}
	.st75{fill:#0E0F10;stroke:#000000;stroke-linecap:round;stroke-miterlimit:10;}
	.st76{fill:#001018;}
	.st77{fill:#00141C;}
	.st78{fill:#C9C8C8;}
	.st79{fill:#E2E2E2;}
	.st80{fill:none;stroke:#E2E2E2;stroke-width:5.3377;stroke-miterlimit:10;}
	.st81{fill:#202A30;}
	.st82{fill:#C05955;}
	.st83{fill:#D3625D;}
	.st84{fill:none;}
	.st85{fill-rule:evenodd;clip-rule:evenodd;fill:#CC4841;}
	.st86{fill:#50B7E1;}
	.st87{fill:#CC4841;}
</style>
<g>
	<path class="st0" d="M211,60.8c3.6,0,13.6,11.4,29.8,34.1l-34.1,80.9c0,5.4,9.9,21.8,29.8,49.1v4.4l-12.7,51l-30,40.4h-4.2
		c-19.4-21.8-31.5-39.5-36.2-53.2h-4.2c-11.4,13.7-24.2,34.3-38.3,61.8h-10.6c-21.4-23.4-32.1-37-32.1-40.6
		c0-18.5,10.7-47.6,32.1-87.4l-32.1-48.9c3.5-26.4,13.5-51.2,30-74.5l10.4-10.6h6.5c7.1,4.7,20.5,21,40.4,48.9
		c8.5-3.5,21.2-17.8,38.3-42.7C202.5,65,208.2,60.8,211,60.8z M151.3,178h-2.1c-11.4-11.4-24.2-29.2-38.3-53.3l-10.6-2.1l-17.1,27.7
		l34.1,55.4v14.8l-34.1,61.8v4.2c0,7.7,7.1,16.9,21.4,27.7c6-5.4,19.5-26.7,40.4-63.9h4.2c3.8,0.1,13.7,14.4,29.8,42.7l12.7,12.7
		c15.7-18.4,23.5-31.1,23.5-38.3l-34.1-53.3l-4.2-10.6l34.1-64.1c-7.5-15.5-14-23.3-19.2-23.3c-4.8,0-10.5,10.7-17,32
		C161.4,168.1,153.6,178,151.3,178z M113,88.5l-4.4,19.2l34.3,48.9c3.3,0,5.4-4.9,6.4-14.8h2.1c-4.2-11.1-14.9-28.8-32-53.3H113z
		 M193.9,193l-4.2,12.7l25.6,44.7h6.4l2.3-10.8v-17c-9.4-15.7-17.2-25.5-23.5-29.7H193.9z M211,77.9l-10.6,27.7
		c0,5.5,4.9,11.9,14.8,19.1L228.1,97C228.1,90,222.4,83.7,211,77.9z"/>
	<path class="st0" d="M325.4,68.4c57.6,9.1,86.3,19.2,86.3,30.5c7.7,6.5,11.5,18,11.5,34.6l5.7,11.5c0,24.1-14.7,58-44,101.5
		c-19.2,11.1-28.8,18.1-28.8,21c0,17.5-11.5,38-34.6,61.3l-15.2,1.9c-21.7-2.2-32.5-7.4-32.5-15.4l-3.9-32.7l1.8-9.5l2.1-109.1
		c4.8-49.8,11.8-74.7,21-74.7C300.7,75.4,310.8,68.4,325.4,68.4z M283.4,169.9l1.9,7.6l-1.9,5.8l1.9,7.6l-3.9,84.4l1.9,5.7
		l-1.9,11.5v7.8c0,12.7,8.3,19.1,24.9,19.1h1.9c8.8,0,13.2-19.8,13.2-59.3c27.5-6,46.1-13.1,55.8-21.2
		c15.2-16.6,22.8-39.6,22.8-68.9c-8-30.7-16.3-46.1-24.9-46.1c0-5.4-24.2-9.8-72.6-13.2C292.3,110.6,285.9,130.3,283.4,169.9z
		 M300.5,97.2v1.8c60,6.8,90.1,15.8,90.1,27c11.5,13.5,17.3,28.8,17.3,45.9v1.8h1.8c3.9,0,6.5-8.9,7.8-26.7
		c0-34.3-15.4-54.7-46.1-61.3l-28.6-5.8l-1.9,1.9l-9.5-1.9h-7.6C316.8,79.8,309.1,85.6,300.5,97.2z M339,145
		c20.4,0,30.5,12.8,30.5,38.3v3.7c-2.7,25.7-14.2,38.5-34.4,38.5h-7.6l-3.9-3.9c3.4-46.5,6.6-72,9.5-76.6H339z M333.2,267.6
		l-3.9,28.8h5.8l7.6-23.1l-1.9-5.7H333.2z M340.8,154.7l-3.9,26.7v11.5h3.9c2.1-8.8,4-13.2,5.7-13.2l-1.8-2.1v-19.1L340.8,154.7z
		 M342.7,211.9h3.7l7.8-7.4v-6h-1.8C346,202.5,342.7,207,342.7,211.9z"/>
	<path class="st0" d="M523.7,64.3l9.9,1.9h37.6c10.6,0,15.9,9.2,15.9,27.7v11.8l-9.9,39.6c10.5,0,15.7,10.5,15.7,31.6v15.7
		l-7.8,31.8c10.5,0,15.7,6.6,15.7,19.8v25.6c-8.6,41-19.1,61.5-31.6,61.5h-21.7l-17.8-2.1l-19.8,2.1h-35.5
		c-6.6-2.4-9.9-22.1-9.9-59.3c-2,0-3.3-7.2-3.9-21.7h1.8l-1.8-2.1v-37.4l1.8-2.1l-3.9-19.8l2.1-17.7l-2.1-57.4
		c6.4-29,12.3-43.4,17.8-43.4l7.9-2.1h15.7C515.9,68.2,523.7,66.9,523.7,64.3z M470.6,133.5l1.8,27.7l-1.8,7.8l1.8,51.6V260
		c4.8,39.6,8.8,59.3,12,59.3h81.1c1.9,0,3.8-2.6,5.8-7.8l-1.9-21.9v-9.9l-1.9-1.8v-2.1l-33.7,2.1h-7.8c-5.3,0-7.9-11.2-7.9-33.7v-6
		c0-3.3,2.6-5.2,7.9-5.8c27.7,0,41.5-2,41.5-6v-19.6c0-6.9-1.9-10.9-5.8-12h-2.1l-39.6,2.1l-3.9-12v-23.7c0-5.3,15.2-9.2,45.6-11.8
		l-2.1-14v-1.9l2.1-7.8c0-6.7-4.7-10.1-14-10.1c-51.3,0-77,3.9-77,11.8V133.5z M480.3,80.2c-5.3,10.4-7.9,18.9-7.9,25.6v4.1h7.9
		l81.2-6c5.2-10.1,7.8-18,7.8-23.7l-1.9-2.1h-1.9L480.3,80.2z M535.7,184.9l1.9,1.9h1.9l6-3.9l7.8,1.9c14.6-0.8,21.9-7.4,21.9-19.8
		v-1.9l-2.1-1.9v-2.1c-21,3.7-31.4,6.9-31.4,9.9l-8.1,15.9H535.7z M537.7,266l1.9,2.1h2.1c26.3,0,39.4-8.6,39.4-25.8l-1.9-1.9
		c-25,0-37.4,5.9-37.4,17.7C539,258,537.7,260.7,537.7,266z M571.2,109.9v9.9h1.9l2.1-9.9H571.2z M579.2,183l-1.9,9.7v9.9
		c3.1,0,5-4.6,5.8-13.8l-1.9-5.8H579.2z M585.2,260l-6,25.8l1.9,12c3.1,0,6.4-9.9,9.9-29.7l-1.9-8.1H585.2z"/>
	<path class="st0" d="M724.2,63.6c46.7,0,80.2,23.2,100.3,69.6l4.1,40.8l-2.1,8.3v14.3l-1.9,2.1l1.9,1.9v1.9
		c-12.8,56-24.4,84.1-34.8,84.1c-18,27.2-35.7,40.8-53.2,40.8l-1.9-2.1l-2.1,2.1h-26.5c-37.1,0-61.6-30.7-73.6-92h-2.1v-4.1h2.1
		l-2.1-24.5v-10.2l6.2-45v-2.1l-4.1-6.2v-1.9c6.4-4.2,15.9-19.9,28.6-47C677.1,73.8,697.6,63.6,724.2,63.6z M654.6,143.2l2.1,12.5
		c-9.5,0-14.3,15.6-14.3,46.8c0,42.9,11.6,78.3,34.8,106.5c7.5,6.8,23.2,10.2,47,10.2c43.6-6.8,65.3-28.7,65.3-65.5l6.4-51.2
		c-4.9-41-11.8-66.2-20.7-75.6c-15.5-19.1-40-28.6-73.5-28.6C686.4,98.4,670.7,113.3,654.6,143.2z M679.3,94.3l32.7-6.2
		c34.8,6.6,58,17.5,69.4,32.7c15.1,16.4,22.6,40.9,22.6,73.6v22.4l-1.9,34.8c9.5-12,14.3-36.5,14.3-73.5V168l1.9-2.1
		c0-29-9.6-51.4-28.8-67.5C779,82,757.2,73.8,724.2,73.8C704.4,73.8,689.4,80.7,679.3,94.3z M714.1,141.3h6
		c15.1,0,25.3,13.7,30.7,41l-2.1,2.1l2.1,10.1v49.1c-4.5,24.5-13.4,36.7-26.7,36.7h-1.9c-16.7,0-28.4-12.9-35-38.7v-59.3
		C692.1,155,701,141.3,714.1,141.3z M695.6,186.3l2.1,10.2v38.8c2.7,23.2,12.2,34.8,28.6,34.8l6-6.2c-13.5-14-20.3-28.3-20.3-42.9
		l-2.1-32.8v-28.6h-4.1C702.1,159.7,698.7,168.6,695.6,186.3z M720.1,190.4v4.1l2.1,8.1l-2.1,8.3l2.1,10.2h-2.1
		c3.6,19.1,9.1,28.6,16.4,28.6c2.4-2.9,4.4-12.5,6.2-28.6c-3.3-45-8.8-67.5-16.4-67.5C722.2,153.7,720.1,165.9,720.1,190.4z"/>
	<path class="st0" d="M910.6,64c58.5,9.2,87.8,19.6,87.8,31.3c7.8,6.5,11.7,18.2,11.7,35.1l5.8,11.5c0,24.6-14.9,59-44.7,103.3
		c-19.5,11.3-29.3,18.4-29.3,21.4c0,17.9-11.7,38.7-35.1,62.3l-15.4,1.9c-22.1-2.4-33.2-7.5-33.2-15.5l-3.9-33.2l1.9-9.7l1.9-110.9
		c4.9-50.6,12.1-75.9,21.4-75.9C885.4,71.1,895.8,64,910.6,64z M867.9,167.3l1.9,7.8l-1.9,5.8l1.9,7.8l-3.9,85.8l1.9,5.7l-1.9,11.8
		v7.8c0,13,8.5,19.4,25.4,19.4h1.8c9.1,0,13.6-20.1,13.6-60.4c28-6.1,46.9-13.2,56.7-21.4c15.5-17,23.3-40.3,23.3-70.1
		c-8.2-31.2-16.7-46.8-25.4-46.8c0-5.7-24.6-10.2-73.8-13.6C877,106.9,870.5,127,867.9,167.3z M885.4,93.3v1.9
		c61.1,6.8,91.6,15.9,91.6,27.2c11.7,13.9,17.5,29.5,17.5,46.8v1.9h1.8c4,0,6.6-9.1,7.9-27.2c0-34.8-15.6-55.6-46.8-62.3l-29.1-5.8
		l-1.9,1.8l-9.7-1.8h-7.8C901.9,75.8,894.1,81.6,885.4,93.3z M924.4,141.8c20.7,0,31.1,13,31.1,39v3.9c-2.7,26-14.4,39-35,39h-7.8
		l-3.9-3.9c3.4-47.3,6.6-73.3,9.7-78H924.4z M918.6,266.5l-3.9,29.3h5.8l7.8-23.5l-1.9-5.8H918.6z M926.3,151.7l-3.9,27.2v11.7h3.9
		c2.1-9.1,4.1-13.6,5.8-13.6l-1.9-1.9v-19.4L926.3,151.7z M928.3,210h3.9l7.8-7.6v-6H938C931.5,200.4,928.3,204.9,928.3,210z"/>
	<path class="st0" d="M1117.2,61.8c19.8,1.1,29.4,9.2,28.8,24.4l0.9,29.8l-2.6,2.1v2.3l2.1,2.5L1137,175l-1.2,27.4l-2.5,2.3
		c-0.4,6,9.4,9.5,29.3,10.4l18.4-3.7c6.8,3.3,10.5,6.5,10.9,9.7l-0.5,13.8c-2.2,44.9-16,75.4-41.1,91.6l-29.8,1.1
		c-54.7-2.7-81.9-8.7-81.4-17.8l0.2-4.6c1.6-13.5,3.5-20.3,5.5-20.3l-1.9-2.5l1.4-31.8l2.3-2.3l-1.9-2.3l0.2-2.3
		c7.7-106.4,15.5-159.5,23.5-159.1c2.9,0.2,4.6-2.7,4.9-8.8l-4.2-4.8l2.5-2.3l2.1,0.2l6.7,2.6C1080.5,65.4,1092.9,62.2,1117.2,61.8z
		 M1065.7,134.9l-2.3,47.9l-6.9,47.9l1.6,13.8l-3.4,22.6l1.6,18.5l-3.2,18c3.6,4.8,21.7,8,54.2,9.5l27.5,1.4
		c9.1,0.5,13.9-6.9,14.7-22.2l3.9-29.5l-2.3-2.5l-45.7-2.3c-3.4-0.1-5.5-4-6.2-11.7c4.1-65.5,8-98.1,11.7-97.8l-2.3-2.3l0.2-2.5
		l2.5-2.1l-2.3-2.3l0.9-18.4l2.5-2.1v-2.3l-6.5-4.8l-32-1.8C1069.2,109.9,1066.5,118.2,1065.7,134.9z M1076.8,94.1
		c0,3.2,8.3,5.9,24.9,8.3c8.1,0.4,16.1-6.1,23.8-19.4v-2.5l-4.2-4.6l-27.5-1.4C1091.3,74.5,1085.6,81.1,1076.8,94.1z M1129.1,101.6
		l-2.5,6.7l-12.2,109.1l4.6,0.2l13.8-97.7l0.7-13.8L1129.1,101.6z M1119.9,245.1l2.3,2.3l18.2,1.1c12.5,0.6,21.1-4.4,26-14.8v-4.6
		l-24.7-5.8C1127.7,225.7,1120.5,233,1119.9,245.1z M1172.5,245.3l-5.7,20.3l-0.5,13.6l-2.5,2.3v2.5l1.9,2.1l2.3,0.2l10.9-33.7
		l-1.9-6.9L1172.5,245.3z"/>
	<path class="st0" d="M1289.4,64.3l9.9,1.9h37.6c10.6,0,15.9,9.2,15.9,27.7v11.8l-9.9,39.6c10.5,0,15.7,10.5,15.7,31.6v15.7
		l-7.8,31.8c10.5,0,15.7,6.6,15.7,19.8v25.6c-8.6,41-19.1,61.5-31.6,61.5h-21.7l-17.8-2.1l-19.8,2.1h-35.5
		c-6.6-2.4-9.9-22.1-9.9-59.3c-2,0-3.3-7.2-3.9-21.7h1.8l-1.8-2.1v-37.4l1.8-2.1l-3.9-19.8l2.1-17.7l-2.1-57.4
		c6.4-29,12.3-43.4,17.8-43.4l7.9-2.1h15.7C1281.5,68.2,1289.4,66.9,1289.4,64.3z M1236.3,133.5l1.8,27.7l-1.8,7.8l1.8,51.6V260
		c4.8,39.6,8.8,59.3,12,59.3h81.1c1.9,0,3.8-2.6,5.8-7.8l-1.9-21.9v-9.9l-1.9-1.8v-2.1l-33.7,2.1h-7.8c-5.3,0-7.9-11.2-7.9-33.7v-6
		c0-3.3,2.6-5.2,7.9-5.8c27.7,0,41.5-2,41.5-6v-19.6c0-6.9-1.9-10.9-5.8-12h-2.1l-39.6,2.1l-3.9-12v-23.7c0-5.3,15.2-9.2,45.6-11.8
		l-2.1-14v-1.9l2.1-7.8c0-6.7-4.7-10.1-14-10.1c-51.3,0-77,3.9-77,11.8V133.5z M1246,80.2c-5.3,10.4-7.9,18.9-7.9,25.6v4.1h7.9
		l81.2-6c5.2-10.1,7.8-18,7.8-23.7l-1.9-2.1h-1.9L1246,80.2z M1301.4,184.9l1.9,1.9h1.9l6-3.9l7.8,1.9c14.6-0.8,21.9-7.4,21.9-19.8
		v-1.9l-2.1-1.9v-2.1c-21,3.7-31.4,6.9-31.4,9.9l-8.1,15.9H1301.4z M1303.4,266l1.9,2.1h2.1c26.3,0,39.4-8.6,39.4-25.8l-1.9-1.9
		c-25,0-37.4,5.9-37.4,17.7C1304.7,258,1303.4,260.7,1303.4,266z M1336.9,109.9v9.9h1.9l2.1-9.9H1336.9z M1344.9,183l-1.9,9.7v9.9
		c3.1,0,5-4.6,5.8-13.8l-1.9-5.8H1344.9z M1350.9,260l-6,25.8l1.9,12c3.1,0,6.4-9.9,9.9-29.7l-1.9-8.1H1350.9z"/>
</g>
<g>
	<path class="st0" d="M2411.4,67.6l21,1.9c7.5,0.8,12.4,16.3,14.5,46.4c-11.8,28.6-22.2,46.5-31.2,53.8l7.6,93
		c-10.5,49.4-23.1,73.4-37.8,72l-30.7-0.5l-16.4-1.6c-5.1-0.5-11.7-38.2-19.8-113.1c2.7-27.3-2-43.5-14.1-48.7l-24,2.5
		c-7.7-0.7-11.7-16.9-12-48.5c13.9-36.5,26.7-54.2,38.3-53.1L2411.4,67.6z M2283.1,121.4l-0.7,7.1c-0.8,20.4,1.4,30.8,6.5,31.4
		l33,0.7c5.1,0.5,9.1,31.7,12.2,93.6c7.1,46.5,13.5,70,19.2,70.6c23.8-0.4,35.9-3.2,36.4-8.5l-15.5-157.6l33.7-6.2l2.6-2.1l0.2-2.5
		c-0.6-20.5-4.3-31.1-11.1-31.8C2365.4,112.8,2326.5,114.6,2283.1,121.4z M2294,105.9l2.3,0.4c56.5-1.2,94.6-3.8,114.4-7.9l6.4-16.1
		l-7.1-0.5c-75.6-2.1-114,4.4-115.4,19.6L2294,105.9z M2387.1,171.7l12.2,119.7h2.3l9.5-25.1c-3.2-65-7.9-97.7-14.1-98.3l-4.8-0.5
		L2387.1,171.7z M2419.4,106.2l2.5,23.8l2.3,0.4c3.8,0.4,6.7-4.9,8.8-15.7l-2.6-21.5l-2.5-0.4C2424.8,92.6,2422,97.1,2419.4,106.2z"
		/>
	<path class="st0" d="M2544.5,63.3l9.9,2.1h37.6c10.6,0,15.9,9.2,15.9,27.7v12l-9.9,39.5c10.6,0,15.9,10.6,15.9,31.8v15.9l-7.8,31.8
		c10.5,0,15.7,6.6,15.7,19.8v25.8c-8.6,41.1-19.2,61.6-31.8,61.6h-21.9l-17.7-2.1l-19.9,2.1h-35.7c-6.6-2.4-9.9-22.2-9.9-59.5
		c-2,0-3.3-7.3-3.9-21.9h1.8l-1.8-1.9v-37.8l1.8-1.9l-3.9-19.9l2.1-17.8l-2.1-57.5c6.4-29.1,12.3-43.6,17.8-43.6l7.9-2.1h15.9
		C2536.6,67.2,2544.5,65.9,2544.5,63.3z M2491,132.9l1.9,27.7l-1.9,7.9l1.9,51.7v39.5c4.7,39.7,8.6,59.5,11.8,59.5h81.4
		c2,0,3.9-2.6,5.8-7.8l-1.9-22.1v-9.9l-1.9-1.9v-1.9l-33.7,1.9h-7.9c-5.3,0-7.9-11.2-7.9-33.7v-6c0-3.3,2.6-5.2,7.9-5.8
		c27.8,0,41.7-2,41.7-6v-19.8c0-6.9-1.9-10.9-5.8-12h-2.1l-39.7,2.1l-3.9-12v-23.8c0-5.3,15.2-9.2,45.7-11.8l-2.1-13.9v-1.9l2.1-7.9
		c0-6.6-4.7-9.9-14.1-9.9c-51.4,0-77.1,3.9-77.1,11.8V132.9z M2500.7,79.2c-5.2,10.5-7.8,19.1-7.8,25.9v3.9h7.8l81.6-6
		c5.2-10.1,7.8-18.1,7.8-23.8l-1.9-1.9h-1.9L2500.7,79.2z M2556.3,184.4l2.1,1.9h1.9l6-3.9l7.8,1.9c14.6-0.9,21.9-7.6,21.9-19.9
		v-1.8l-1.9-2.1v-2.1c-21.2,3.6-31.8,7-31.8,10.1l-7.9,15.9H2556.3z M2558.5,265.8l1.9,1.9h1.9c26.5,0,39.7-8.6,39.7-25.8l-1.9-1.9
		c-25.2,0-37.8,5.9-37.8,17.8C2559.8,257.9,2558.5,260.5,2558.5,265.8z M2592,109.1v9.9h2.1l1.9-9.9H2592z M2600.1,182.5l-2.1,9.9
		v9.9c3.2,0,5.2-4.6,6-13.9l-1.9-5.8H2600.1z M2606.1,259.8l-6,25.8l1.9,12c3.1,0,6.4-9.9,9.9-29.8l-1.9-7.9H2606.1z"/>
	<path class="st0" d="M2734.3,69.9c40.6,2,64.4,8.5,71.5,19.6c0,10,7.2,37.5,21.7,82.4l-2.1,8.6c2,0.2,7.1,21.2,15.2,63l2.1,8.6
		c-11.2,40.5-27.1,60.7-47.7,60.7c-13.7,5.8-23.8,8.6-30.4,8.6c-2.5,0-6.8-10.8-13.1-32.5h-17.3c-24.6,30.4-39.1,45.5-43.4,45.5
		c-21.5-9.2-38.9-18.6-52.1-28.2l50-201.8C2711.5,81.5,2726.6,69.9,2734.3,69.9z M2651.8,293.4c0,13.3,11.5,22.7,34.6,28.2
		c3.4,0,8.5-13.7,15.4-41.1c5.5-2.9,13.5-4.4,23.8-4.4h8.6c21.8,0,32.7,9.4,32.7,28.2l6.4,4.4c20.2-3.4,30.4-7.1,30.4-10.9
		c-2.8-32.8-12.9-76.9-30.4-132.2c-7.9-31.9-14.4-47.8-19.6-47.8h-6.4l-43.4-6.5c-10.2,0-21.8,36.9-34.8,110.7
		C2657.6,259.5,2651.8,283.3,2651.8,293.4z M2706,304.3h2.1c7.3-4.4,10.9-9.4,10.9-15.2h-6.5C2709.2,289.1,2707,294.2,2706,304.3z
		 M2729.9,169.8h2.1c5.3,1.8,11.8,25.7,19.6,71.7v6.4l-4.2,4.4h-34.8l-4.4-4.4C2716.4,195.8,2723.6,169.8,2729.9,169.8z
		 M2710.3,100.4l24,6.4l6.5-2.1l17.3,4.4c10.7,0,18.7-7.2,23.8-21.7c0-2.7-16.7-4.9-50-6.5C2718.2,88.9,2711,95.5,2710.3,100.4z
		 M2727.8,195.7l-6.5,30.4l2.3,2.1h2.1c4.8-3.5,8.4-9.2,10.8-17.1l-4.4-15.4H2727.8z M2729.9,239.2l2.1,2.3v2.1l6.5-2.1v-6.5h-4.2
		L2729.9,239.2z M2773.3,126.4v4.4c4.1,23.4,12.8,51.6,26.1,84.6l4.2,21.7h-2.1l15.2,45.5c5.2,0,10.2-8.6,15.2-25.9
		c-10.1-63.8-22.4-115.9-36.9-156.2h-4.2C2779.1,106.7,2773.3,115.3,2773.3,126.4z"/>
	<path class="st0" d="M3033.8,58c56,0,84,6.4,84,19.2l2.3,43.1l-2.3,21.5l2.3,86.1c0,26.9-10.4,57.3-31.1,90.9
		c-4.7,2.8-23.9,6-57.5,9.5l-4.8-21.5h-4.8c0,5.3-6.4,13.3-19.2,24h-4.8c-27,0-40.4-8.8-40.4-26.5l-26.5,28.8h-9.5l-12-2.3
		l-14.3,2.3h-21.7c-4.7-0.9-7.1-7.4-7.1-19.2v-40.6l2.3-150.7c0-15.3,12.8-33.6,38.5-54.9c49.3,4.2,74,12.2,74,23.8l7.4,14.3h7.1
		C3007.8,74,3020.5,58,3033.8,58z M2878.3,295.1l2.6,21.4h2.3l33.5,2.5l7.1-2.5v-31.1l-2.3-76.6l2.3-2.5h4.8
		c10.5,8.7,24.8,43,43.1,102.9c7.8,6.5,14.2,9.7,19.2,9.7c7.8,0,17.4-34.3,28.8-102.9l2.3-7.2l2.5-2.5c0-4.7,1.5-7.1,4.6-7.1h2.5
		l7.2,7.1l2.5,98.1c1.5,6.4,4.7,9.5,9.5,9.5c13.4,0,22.9-3.2,28.6-9.5l-2.3-9.4l2.3-98.1v-62.3c0-9.5-7.9-14.3-23.8-14.3l-45.4-2.5
		c-6.5,0-16.9,28-31.2,83.8l-2.5,2.3h-2.3l-28.8-76.6l-52.6-11.8c-7.9,0-11.8,24.7-11.8,74.1L2878.3,295.1z M2895.3,98.8v7.1
		l9.4,4.8h36c3.6,0,7.6-7.1,12-21.4c-6.1-4.9-13.3-7.4-21.5-7.4h-21.5C2906.6,81.9,2901.9,87.5,2895.3,98.8z M2933.6,254.3l4.8,9.5
		l-2.5,16.8l2.5,19.1h2.3c6.4-2.5,9.5-8.1,9.5-16.8l-9.5-33.4h-2.3L2933.6,254.3z M2957.6,115.6v14.3l14.1,43.1h2.5
		c3.2,0,7.2-12,12-36c-8.4-21.9-14.8-34.6-19.2-38.1C2960.7,101.4,2957.6,107,2957.6,115.6z M3014.9,105.9c6.4,0.4,9.5,1.9,9.5,4.8
		l7.1-2.3l45.5,2.3c11.2-11.1,16.8-23,16.8-35.8h-57.4c-11.2,0-18.4,8.8-21.5,26.3V105.9z M3022,271.1l-2.3,19.1h4.8l2.3-12v-7.1
		H3022z M3089.1,139.4l4.8,9.5l-2.5,28.8l2.5,57.4l-4.8,14.5l2.3,2.3v2.5l-4.8,19.1l2.5,2.5h4.8c4.7-7.9,8.6-58.1,11.8-150.7
		l-2.3-7.2l2.3-9.5l-2.3-9.5C3097,98.8,3092.3,112.4,3089.1,139.4z"/>
</g>
<g>
	<defs>
		<rect id="SVGID_1_" x="-13.7" y="-4.2" width="3211.3" height="1635.3"/>
	</defs>
	<clipPath id="SVGID_2_">
		<use xlink:href="#SVGID_1_"  style="overflow:visible;"/>
	</clipPath>
	<g class="st1">
		<g>
			<path class="st2" d="M3077.1,962.9c-1.3-26.5-17-95.3-6.9-109.3c10.1-14.1,27.5-31.8,16.3-49.4c-2.1-3.3-4.1-6.9-4-10.8
				c0.2-4.7,3.4-8.5,5.9-12.4c2.5-3.9,4.5-9,2.3-13.1c-2.4-4.2-8-4.9-11.2-8.5c-2.7-3.2-2.9-7.9-2.6-12.1c0.3-4.2,0.9-8.7-0.6-12.6
				c-7.7-20.1-40.9,9.3-48.1,15.8c-7,6.3-13.6,12.9-20.1,19.8c-1.7,1.9-8,6.7-8.5,9.4l-5.3,30.7l40.5,123.1L3077.1,962.9z"/>
			<g>
				<polygon class="st3" points="3005.6,807.2 2957,647.1 3045.7,625.9 3069.4,802 				"/>
				<path class="st4" d="M3023.8,791.5c1.1,4.3,5.3,6.8,9.4,5.6c4.1-1.2,6.5-5.6,5.4-9.8c-1.1-4.3-5.3-6.8-9.4-5.6
					C3025.1,782.8,3022.7,787.2,3023.8,791.5z"/>
				<polygon class="st5" points="2981,653.1 2984.8,660.6 3019.4,652.7 3020.4,645.1 3037.6,641.4 3051,775.4 3002.6,778.7 
					2970.2,656 				"/>
				<polygon class="st4" points="3013,645.8 2986.8,651.2 2987.9,655.6 3013.6,648.3 				"/>
			</g>
			<path class="st2" d="M3008.8,848.2c0,0-41.2-35.5-38.6-48.8c2.5-13.4,59.1-34.3,61.9-17.8c2.9,16.5-26.5,25.6-26.5,25.6
				s38.8,15,40.2,60.4c0.3,9.8-19,43.8-17.1,57.6C3035.7,975.4,3008.8,848.2,3008.8,848.2z"/>
			<path class="st4" d="M2758.4,866.2c36.5-6.9,54.8,1,67.1,7.7c18.4,10.2,161.2,195.9,161.2,195.9l5.3-197.3c0,0,52.6-18.8,90.6,4
				c0,0,16.4,211.8,9,287.3c-4.9,50.2-28,72.6-60.5,80c-47.7,10.8-193.8-147.6-193.8-147.6L2758.4,866.2z"/>
			<linearGradient id="SVGID_3_" gradientUnits="userSpaceOnUse" x1="2866.6411" y1="1106.7339" x2="2911.7925" y2="1047.4727">
				<stop  offset="0" style="stop-color:#2F2826;stop-opacity:0.5"/>
				<stop  offset="0.9947" style="stop-color:#2F2826;stop-opacity:0"/>
			</linearGradient>
			<path class="st6" d="M2758.4,866.2c36.5-6.9,54.8,1,67.1,7.7c18.4,10.2,161.2,195.9,161.2,195.9l5.3-197.3c0,0,52.6-18.8,90.6,4
				c0,0,16.4,211.8,9,287.3c-4.9,50.2-28,72.6-60.5,80c-47.7,10.8-193.8-147.6-193.8-147.6L2758.4,866.2z"/>
			<g>
				<path class="st4" d="M2561.9,652.1c0,0,16,0,23.3-8.3c7.3-8.3-10.9-81.1-10.9-81.1s22.4-17.9,24.3-44.7
					c1.9-26.8-14.4-41.7-41-41.5c-26.7,0.1-67.1,34.7-67.1,34.7l18.9,11.6c0,0,2.7,61.3,10.1,77.4
					C2526.9,616.4,2561.9,652.1,2561.9,652.1z"/>
				<path class="st4" d="M2517.7,530.3c5.6,38.5,25.9,133.9,25.9,133.9l24.5-25.9l-4.7-118.1L2517.7,530.3z"/>
				<path class="st4" d="M2854.2,1378.5c0,0,7.1,419.1,7.9,457.2c0.9,38.1,6.4,605.2,6.4,605.2c-49.3,16.8-100.2-1.3-100.2-1.3
					l-50.9-574.3l-37.7-306.9l-18.3-6.5c0,0-27.9,369.3-27.9,367.5c0-1.9-36.9,496-36.9,496c-48,21.8-111.3-8.5-111.3-8.5
					s8-484.6,4-513.2c-4-28.6,26-571,26-571L2854.2,1378.5z"/>
				<path class="st3" d="M2857,1492.3c-70.1,20.8-227.6,48.7-350.8-12.7c1.8-33.9,4.9-78.7,6.2-102.5l342.7,51.3
					C2855.4,1449.3,2856.5,1463.3,2857,1492.3z"/>
				<g id="XMLID_4511_">
					<path id="XMLID_4512_" class="st7" d="M2845,1340.1c-2.1-10.4-3.9-16.9-3.9-16.9l-304.9-4.7c0,0-1.4,6.4-3.8,17.4
						c1.4,2.3,2.5,4,2.5,4C2667.4,1405.5,2765.7,1411.3,2845,1340.1z"/>
				</g>
				<path class="st4" d="M2484.8,1048.6l41.4,207.3L2488,1445c0,0,235.2,109.4,392.3,15.4l-6.2-428.1L2484.8,1048.6z"/>
				<g id="XMLID_4508_">
					<g id="XMLID_4509_">
						<path id="XMLID_4510_" class="st4" d="M2844.5,889.7c31.4,16,75.1,47,29.6,142.7l-31.4,300.7c0,0,12.8,47.4,2.4,56.7
							c-79.4,71.4-177.8,65.7-310.3,0c0,0-6.6-9.9-7.3-13.8c-3.8-20.8,16.1-77,16.1-77l-61.6-250.5c0,0-68.7-110.6-16.9-146.2
							C2546.7,846.2,2720.1,826.2,2844.5,889.7z"/>
					</g>
				</g>
				
					<linearGradient id="SVGID_4_" gradientUnits="userSpaceOnUse" x1="2654.3687" y1="1103.8181" x2="2680.0295" y2="1400.7526" gradientTransform="matrix(0.9983 5.816089e-02 -5.816089e-02 0.9983 90.43 -151.2714)">
					<stop  offset="0" style="stop-color:#2F2826;stop-opacity:0.5"/>
					<stop  offset="0.9947" style="stop-color:#2F2826;stop-opacity:0"/>
				</linearGradient>
				<path class="st8" d="M2880.3,1460.5l-3.6-248.4c-37.5,40.9-68.3,88.4-90.3,140.1c-77.7-48.1-144.2-115.6-192.4-195.2
					c16.6,56.3,33.2,112.6,49.8,169c-47.7-65.8-118.7-240.1-166.4-305.9l48.8,235.9L2488,1445
					C2488,1445,2723.2,1554.4,2880.3,1460.5z"/>
				<path class="st3" d="M2758,848c0,0,30,0.4,35.3,4.2c5.2,3.8,16.5,45.6,18.8,52.3c2.4,6.6-39,42.5-39,42.5s29.1,57.2,27.5,61.6
					c-1.6,4.4-73,242.8-73,242.8s-126.4-224.1-128.6-235c-2.2-10.9,17.2-65.5,17.2-65.5s-39.3-34-41.4-41c-2.1-7-4.8-51.4,3.3-56.5
					c5-3.2,33-8,33-8L2758,848z"/>
				<path class="st5" d="M2610.5,855.6L2610.5,855.6c0,0,35.9,117,67.5,220.1c24.9,81.1,62.3,0,62.3,0l22.4-226.9
					c-2-0.3-6.3-1.1-8.3-1.3L2610.5,855.6z"/>
				
					<linearGradient id="SVGID_5_" gradientUnits="userSpaceOnUse" x1="2672.2463" y1="909.8199" x2="2786.4924" y2="1221.88" gradientTransform="matrix(0.9983 5.816089e-02 -5.816089e-02 0.9983 90.43 -151.2714)">
					<stop  offset="0" style="stop-color:#D0D3D6"/>
					<stop  offset="1" style="stop-color:#D0D3D6;stop-opacity:0"/>
				</linearGradient>
				<path class="st9" d="M2747.9,920.8c8.6-1.6,10.7-29.4,10.7-29.4l4.2-42c-0.1-0.2-0.2-0.4-0.2-0.7c-2.1-0.3-6-1.1-8-1.3
					l-132.7,7.5c0.4,1.7-5.6,12.8-4.8,16.1c6.3,23.9,28.9,59,33.8,60.1c5.7,1.3,21.5-15.4,23.8-21.1c2.9,3,7.6,11.9,10.4,14.9
					c-0.8,41-5.3,94.9-8.9,144.6c19.3,62.8,37.2,121.3,45,146.5c1.5,2.4,3.1,4.7,4.6,6.9l12-121.4c-11.5-59.5-22.9-118.9-34.4-178.4
					c5.1-6.5,11.5-11.1,16.6-17.6C2727.4,914.1,2736.9,920.1,2747.9,920.8z"/>
				<g id="XMLID_4505_">
					<g id="XMLID_4507_">
						<path class="st2" d="M2720.3,868.7c-13.2,7-39.9,9.4-54.3,9c-21.4-0.6-12-13.2-19-15.5l-59.5-170.6l121.8,66.1l0,5.5
							L2720.3,868.7z"/>
					</g>
				</g>
				<g id="XMLID_4501_">
					<g>
						<g id="XMLID_9_">
							<path class="st10" d="M2688.9,814.9c-13.6-2.5-25.6-7.2-37.8-13.9c-11.5-6.3-22.6-13.5-33-21.5l-30.7-88l121.8,66.1l0,5.5
								l5.9,55.8C2706.4,817.5,2697.6,816.5,2688.9,814.9z"/>
						</g>
					</g>
				</g>
				<path class="st11" d="M2740.3,1075.7l-35.4-159.4l20.8-21.7l-31.9-23l-26.7,22.9l22.3,23.1c0,0-9.8,72.3-11.4,158.1
					c24.9,81.1,47.1,153.5,47.1,153.5L2740.3,1075.7z"/>
				<g id="XMLID_4499_">
					<g id="XMLID_4500_">
						<path class="st5" d="M2631.9,818.9c0,0,47.4,53.2,60.4,51.7c13-1.4,22.7-51.7,22.7-51.7s45.2,16.5,50.4,23.5
							c5.2,7-12.3,71.8-18.6,74.6c-13.1,6-48.9-40.9-56.2-35.6c-7.3,5.3-29.3,42.2-35.8,41.1c-6.5-1.1-55.2-57.5-51.1-76.9
							C2607.9,826.2,2631.9,818.9,2631.9,818.9z"/>
					</g>
				</g>
				<path class="st2" d="M2547.6,600.2c0,0-42.6-12.8-39.8,41.4c2.9,54.2,40.2,57.4,51.1,60.4c0,0,15,97,128.9,94.5
					s100.7-95.2,103.4-155.9c2.7-60.7,15.3-165.8-58.4-177.9C2658.3,450.4,2549.8,449.3,2547.6,600.2z"/>
				<g>
					<path class="st12" d="M2725.1,713.1c0.4,0.9-2.6,3.6-8.5,5.7c-2.9,1.1-6.5,1.9-10.6,2.2c-4.1,0.3-8.6,0.1-13.3-0.7
						c-4.7-0.9-9-2.5-12.7-4.2c-3.7-1.9-6.8-3.9-9.2-6c-4.9-4.2-6.5-7.6-5.9-8.4c0.7-0.9,4,1.2,8.9,3.6c2.5,1.3,5.5,2.6,8.9,3.9
						c3.4,1.2,7.2,2.4,11.3,3.2c4.1,0.8,8.1,1.1,11.7,1.2c3.6,0,6.9-0.1,9.7-0.4C2721.1,712.7,2724.7,712,2725.1,713.1z"/>
				</g>
				<g>
					<path class="st10" d="M2707.1,694.6c0-1.1,3.8-2,6-6.9c1.2-2.4,1.7-5.3,1.2-9c-0.4-3.6-1.9-7.6-3.6-12.2
						c-6.9-18.4-10.8-34-8.8-34.8c2-0.8,9.2,13.4,16.1,31.8c1.7,4.6,3.3,9.5,3.5,14.5c0.1,2.5-0.2,4.8-0.9,7.2
						c-0.7,2.2-1.8,4.1-2.9,5.6c-2.4,3-5.3,4.5-7.4,4.6C2708.1,695.8,2707.1,695.1,2707.1,694.6z"/>
				</g>
				<g>
					<path class="st4" d="M2679.6,596.6c-0.7,0.9-3.8-0.6-8.8-2.3c-5-1.7-11.8-3.4-19.7-3.1c-7.5,0.3-14.5,2.6-19.2,4.7
						c-2.4,1.1-4.4,2-5.8,2.6c-1.5,0.6-2.5,0.9-2.8,0.4c-0.3-0.4-0.1-1.4,0.9-2.8c1-1.5,2.6-3.3,5-5.1c4.7-3.7,12.4-7.5,21.9-7.9
						c9.1-0.4,17.3,2.7,22.2,6.1C2678.2,592.5,2680.3,595.8,2679.6,596.6z"/>
				</g>
				<g>
					<path class="st4" d="M2723.6,597.2c-0.7-0.8,1.1-4.2,5.9-7.9c4.6-3.7,12.6-7.5,21.7-7.9c9.4-0.4,17.4,2.7,22.3,6
						c2.5,1.7,4.2,3.3,5.3,4.7c1,1.3,1.4,2.3,1.1,2.7c-0.3,0.5-1.3,0.3-2.8-0.2c-1.4-0.5-3.5-1.2-6-2.1c-4.9-1.7-12-3.4-19.5-3.1
						c-7.9,0.3-14.6,2.6-19.4,4.7C2727.4,596.3,2724.3,598.1,2723.6,597.2z"/>
				</g>
				
					<radialGradient id="SVGID_6_" cx="-1629.9335" cy="785.2101" r="32.5368" gradientTransform="matrix(-0.9365 -1.007046e-02 -1.418123e-02 0.976 1106.6005 -87.7571)" gradientUnits="userSpaceOnUse">
					<stop  offset="0" style="stop-color:#DA9B7F;stop-opacity:0.7"/>
					<stop  offset="1" style="stop-color:#DA9B7F;stop-opacity:0"/>
				</radialGradient>
				<path class="st13" d="M2652.4,695.4c-0.3,17.5-14.1,31.6-30.9,31.4c-16.8-0.2-30.3-14.5-30-32.1c0.3-17.5,14.1-31.6,30.9-31.4
					C2639.2,663.5,2652.7,677.8,2652.4,695.4z"/>
				
					<radialGradient id="SVGID_7_" cx="-1777.2544" cy="785.2144" r="32.5365" gradientTransform="matrix(-0.9365 -1.007046e-02 -1.418123e-02 0.976 1106.6005 -87.7571)" gradientUnits="userSpaceOnUse">
					<stop  offset="0" style="stop-color:#DA9B7F;stop-opacity:0.7"/>
					<stop  offset="1" style="stop-color:#DA9B7F;stop-opacity:0"/>
				</radialGradient>
				<path class="st14" d="M2790.4,696.9c-0.3,17.5-14.1,31.6-30.9,31.4c-16.8-0.2-30.3-14.5-30-32.1c0.3-17.5,14.1-31.6,30.9-31.4
					C2777.2,665,2790.6,679.3,2790.4,696.9z"/>
				<path class="st4" d="M2666.6,634.4c-0.1,8.8-7.1,15.8-15.5,15.7c-8.4-0.1-15.2-7.3-15-16.1c0.1-8.8,7.1-15.8,15.5-15.7
					C2660,618.4,2666.8,625.6,2666.6,634.4z"/>
				<path class="st4" d="M2753.6,635.4c-0.1,8.8-7.1,15.8-15.5,15.7c-8.4-0.1-15.2-7.3-15-16.1c0.1-8.8,7.1-15.8,15.5-15.7
					C2747,619.4,2753.8,626.6,2753.6,635.4z"/>
				
					<linearGradient id="SVGID_8_" gradientUnits="userSpaceOnUse" x1="-1406.1329" y1="659.7734" x2="-1382.8053" y2="646.7099" gradientTransform="matrix(-0.9983 -5.816089e-02 -5.816089e-02 0.9983 1184.2078 -87.5484)">
					<stop  offset="0" style="stop-color:#DA9B7F"/>
					<stop  offset="1" style="stop-color:#DA9B7F;stop-opacity:0.6"/>
				</linearGradient>
				<path class="st15" d="M2523.7,622.9c-4.8,14-0.1,29.3,4.7,43.3c1.4,4.2,3,8.6,6.3,11.2c3.3,2.7,9.1,2.6,11.1-1.2
					c2-3.7-0.4-8.2-2.2-12c-1.8-3.8-2.7-9.4,0.9-11.5c1.7-1,3.8-0.8,5.5-1.6c3.8-1.8,4.1-7.2,3.4-11.5c-1-5.9-2.7-11.6-5.2-17
					c-2.4-5.3-6.4-10.8-12-11C2530.3,611.4,2525.7,617.1,2523.7,622.9z"/>
				<g>
					<path class="st4" d="M2547.6,600.2c0,0,17,14.7,20.1,45.1l13.1,0.8l3-52.1c0,0,40.2-9,28.7-70.5c-11.5-61.5-73.9-4.7-73.9-4.7
						L2547.6,600.2z"/>
				</g>
				<path class="st2" d="M2427.6,1395.2c7.7-14.6,16-28.8,25-42.6c4.8,4.3,9.4,8.4,13.6,12c14.6,12.9,24.6,21.6,26.6,22.9
					c9.3,6.1,48.2,6.7,48.7,33.7c0,0,10.4,13.9,19.1,27.1c8.7,13.2-26.1,12.6-27.3,28.1c-1.2,15.4-25.7,6.7-30.3,22.2
					c-4.6,15.5-5.1,14.1-17.8,13.8c-12.6-0.3-24.6-10.9-25.3-33.2c0,0-26-2.3-30.4-26.8c-0.1-0.8-0.2-1.5-0.3-2.3
					C2427.4,1430.8,2446.3,1411.9,2427.6,1395.2z"/>
				<path class="st5" d="M2404.8,1387.6l14.1,17.5c0,0,32.4-16.3,50.9-51.5l-15.5-23L2404.8,1387.6z"/>
				<path class="st4" d="M2399.9,1400.7c35.2-19.4,68.4-68.7,68.4-68.7l-83-150.4l108.8-129.2l-28.9-150.1
					c-63.7,49-211.4,233.7-218.5,284.9C2244.2,1205.4,2399.9,1400.7,2399.9,1400.7z"/>
				<path class="st4" d="M2666.1,511.2c0,0-44.1,29.3-95.5,1.2c-51.5-28.1-49.1-65-49.1-65s46.4,0.8,80-33.7s127.3-66.1,193.5-12.1
					c66.2,54,40.2,126-1.9,136c-42.1,10-63.8-21.4-74.6-15.4C2707.5,528.3,2690.6,534.4,2666.1,511.2z"/>
				
					<linearGradient id="SVGID_9_" gradientUnits="userSpaceOnUse" x1="2620.7866" y1="535.4637" x2="2600.6824" y2="436.5672" gradientTransform="matrix(0.9983 5.816089e-02 -5.816089e-02 0.9983 90.43 -151.2714)">
					<stop  offset="0" style="stop-color:#F3E7D7;stop-opacity:0.2"/>
					<stop  offset="1" style="stop-color:#F3E7D7;stop-opacity:0"/>
				</linearGradient>
				<path class="st16" d="M2819.1,427.4c-3.9-5.7-8.7-11.3-14.2-16.8c-83.2,49.4-181,71.6-276.1,62.8c1.6,2.9,3.5,6,5.8,9.2
					c-8.3,3.7-16.5,8.6-23.6,13.4c38.6,12.2,79.4,17.1,119.7,13.8C2699.6,504.1,2766.7,474.7,2819.1,427.4z"/>
			</g>
		</g>
		<g>
			<g>
				<g>
					<g>
						<path class="st19" d="M2497.8,911.4l25.6,5.6c0,0,70,301.1,43.7,372.6c-26.3,71.5-68.7,0.7-81.9-5.8
							C2472,1277.3,2355,946,2355,946L2497.8,911.4z"/>
						<path class="st20" d="M2586,1251.9l-46-349.7c-27.4-92-128.5-58-128.5-58c-75.9,28.1-63.8,87.8-63.8,87.8l103.9,359.3
							c0,0,19.7,54.6,91.7,47.3C2543.3,1338.5,2595.8,1326,2586,1251.9z"/>
					</g>
					<path class="st21" d="M2448.1,1371.2l70.2-429.3c0,0,24.2-64.5-24.2-96.8l-184.5-86.7h-130.1l-221.8,131.1l145.4,481.7H2448.1z
						"/>
					<path class="st22" d="M2447.6,1638.9l0.5-267.7h-345c0,0-35.7,81.6-47.7,267.7H2447.6z"/>
					<g>
						<path class="st22" d="M2295.6,1638.9c-14-54.8-62.5-95.1-119.9-94.7c-56.8,0.4-104.3,40.5-118,94.7H2295.6z"/>
						<path class="st22" d="M2220,1638.9c-21.5-9.1-48.7-11.5-82.5,0H2220z"/>
					</g>
					<g>
						<path class="st22" d="M2441.1,1638.9c-14-52.9-48.8-89.4-105.3-83.6c-48.9,5-88,38.9-103.2,83.6H2441.1z"/>
					</g>
					<g>
						<path class="st21" d="M1977.1,942.3l-25.3,6.8c0,0-39.4,302.7-9.8,372.9c29.6,70.2,57.4,0.6,70.3-6.5
							c12.9-7.1,109.1-345.2,109.1-345.2L1977.1,942.3z"/>
						<path class="st20" d="M2045.1,1312.7l82.9-356.5c-17.1-96.4-108.9-89.6-108.9-89.6c-80.6,7.3-84.5,68.1-84.5,68.1l-5.3,362.6
							c0,0-5.3,62,41.4,58.7C1970.6,1355.9,2037.4,1345.5,2045.1,1312.7z"/>
					</g>
					<path class="st21" d="M2178.9,663.6v139.1h147c0,0-36.1-55.1-18.1-139.1H2178.9z"/>
					<path class="st23" d="M2253.5,781.7c13.2,8.5,41.4,26.7,57.5,16.1c4.3-2.9,6.3-6.6,7-10.8c-9.5-22-22.5-66-10.1-123.4h-129
						v12.6C2195,716.9,2215.6,757.3,2253.5,781.7z"/>
					<g>
						<path class="st24" d="M2175.4,665.6c0,0-25-10.9-53.4-72.8c0,0-61.5-73.3-17.9-156.4c0,0,25.8-70.3,150.6-50.7
							C2254.7,385.7,2265.9,574.2,2175.4,665.6z"/>
						<path class="st21" d="M2329.1,703.2l8.3-21.8c0,0,23-81.1,23-81.1c2.9-10.2,3-23.9,1.2-34.3c-2-11.4-3.3-23.3-0.3-35.4
							c14.5-58.3-15.4-91.5-15.4-91.5c-33-55-114.1-56.9-114.1-56.9c-100.4,2.6-111.1,99.5-111.1,99.5
							c-17.8,64.2,32.3,119.1,32.4,119.2c4,4.4,1.4,25.6,2.5,31.7c4.7,25.9,29,42.3,50.6,53.7c23.7,12.5,52.5,26,79.2,29
							C2295.6,716.5,2324.4,715.7,2329.1,703.2z"/>
					</g>
					<path class="st25" d="M2309.5,580.6l-27.9,8.5c0,0,36.5,5,38.7-5.6c0,0-4-21.2-8.6-41.3
						C2311.7,542.2,2313.7,579.4,2309.5,580.6z"/>
					<g>
						<path class="st26" d="M2264.9,538.1c0.2,5.8-2.9,10.5-6.8,10.6c-3.9,0.1-7.2-4.4-7.4-10.2c-0.1-5.8,2.9-10.5,6.8-10.6
							C2261.5,527.8,2264.8,532.3,2264.9,538.1z"/>
						<path class="st26" d="M2343.9,534.9c0.4,5.8-2.5,10.6-6.4,10.8c-3.9,0.3-7.4-4.2-7.7-9.9c-0.4-5.8,2.5-10.6,6.4-10.9
							C2340.1,524.7,2343.5,529.1,2343.9,534.9z"/>
						<path class="st27" d="M2273.7,519.2c2.5,0.7,3.4-2.6,3.4-2.6c1-3.3,0.3-6.1,0.3-6.1c-0.9-2.4-2.8-3.3-2.8-3.3
							c-6.5-1.4-19.3-0.7-30.3,1.7c-6.1,1.3-16.1,5.1-17.1,10.5c-0.3,1.6-0.7,4.4,1.2,5.1C2228.4,524.4,2249.3,519.6,2273.7,519.2z"
							/>
						<path class="st27" d="M2363.5,516.8c-7.1-0.4-19.7-0.7-35.3,1.1c-2.4,1-3.7-2.2-3.7-2.2c-1.4-3.1-1.1-6-1.1-6
							c0.5-2.5,2.4-3.6,2.4-3.6c6.2-2.2,15-3.1,26.3-2.2c3.4,0.3,9.1,1.2,12.9,2.7C2365,506.6,2365.6,508.8,2363.5,516.8z"/>
					</g>
					<g>
						<path class="st28" d="M2328.3,611.9c2.2,0.3,3.4,2,2.4,4.2c0,0-10.7,26-28,26.8c-17.3,0.8-30.5-24-30.5-24
							c-1.3-2.4,0-4.5,2.8-4.6C2275,614.3,2304.8,612.6,2328.3,611.9z"/>
					</g>
					<path class="st29" d="M2079.2,1359.6c0.3,14.3-21.4,163.9-12.3,165.8c0,0,248.2,57.2,380.6,0l0.5-154.2l70.2-429.3
						c0,0,24.2-64.5-24.2-96.8l-184.5-86.7l12.5,37.4l-26.7,75.8l-115.9-113.2l-221.8,131.1c12.4,41.1,24.7,82.2,37.1,123.2
						c22.9,75.7,45.1,151.6,68.7,227.1C2063.5,1239.9,2083,1321.8,2079.2,1359.6z"/>
					<polygon class="st30" points="2279.4,785.4 2277.9,854.6 2252.4,829.7 					"/>
					<g>
						<path class="st31" d="M2311.8,896.9c0,5.4-4.4,9.9-9.9,9.9c-5.4,0-9.9-4.4-9.9-9.9c0-5.4,4.4-9.9,9.9-9.9
							C2307.4,887,2311.8,891.5,2311.8,896.9z"/>
					</g>
					<g>
						<path class="st31" d="M2311.8,1076c0,5.4-4.4,9.8-9.9,9.8c-5.4,0-9.9-4.4-9.9-9.8c0-5.5,4.4-9.9,9.9-9.9
							C2307.4,1066.1,2311.8,1070.5,2311.8,1076z"/>
					</g>
					<g>
						<path class="st31" d="M2311.8,1255c0,5.5-4.4,9.9-9.9,9.9c-5.4,0-9.9-4.4-9.9-9.9c0-5.4,4.4-9.8,9.9-9.8
							C2307.4,1245.2,2311.8,1249.6,2311.8,1255z"/>
					</g>
					<g>
						<path class="st31" d="M2311.8,1434.1c0,5.4-4.4,9.9-9.9,9.9c-5.4,0-9.9-4.4-9.9-9.9c0-5.4,4.4-9.9,9.9-9.9
							C2307.4,1424.2,2311.8,1428.7,2311.8,1434.1z"/>
					</g>
					<line class="st32" x1="2279.4" y1="862.4" x2="2279.4" y2="1542"/>
					<g>
						<path class="st33" d="M2446,1539.5c0,0-126.8,59.4-386.2-1.3c-4.3-1-2.5-12.1-2.5-12.1l2.5-25c1.1-8,5.6-7.6,5.6-7.6
							c0.1,0,248.2,57.2,380.6,0c0,0,5.3-0.9,5.6,7.1v31.1C2451.6,1531.8,2451.6,1538,2446,1539.5z"/>
						<g>
							<path class="st34" d="M2317.2,1558.4c0,4-3.1,7.2-7,7.2h-50.5c-3.9,0-7-3.2-7-7.2V1522c0-4,3.1-7.2,7-7.2h50.5
								c3.9,0,7,3.2,7,7.2V1558.4z"/>
							<line class="st34" x1="2252.8" y1="1537.9" x2="2279.5" y2="1537.9"/>
						</g>
					</g>
					<path class="st35" d="M2279.4,783.9c0,0-81.4-31.6-100.5-63.1l-24.1,45.8l85.8,82.3l38.8-63.5"/>
					<path class="st27" d="M2069.9,508.6c32.8,98.9,81.4,134.5,81.4,134.5s-13.4-75.3,26.4-65l6.9-0.4c0,0-13.7-44.1,14.7-65.9
						c-13.4-17.3-2.5-51.8,0.2-56.8c13.7-24.8,53.4-14.3,76.7-20.8c18-5.1,62.6-12.7,72.9,9c78-2.3,38.6-96.7,38.6-96.7
						c-2.1,28-25.3,34.3-25.3,34.3c24.7-29.8-8.4-84.1-8.4-84.1c-33.7,27-122.2,32.6-122.2,32.6c-63.7-2-79.4,38.8-79.4,38.8
						S2033.9,391.3,2069.9,508.6z"/>
					<g>
						<g>
							<g>
								<g>
									<g>
										<g>
											<path class="st21" d="M2168.2,610.4c-3.6,3-8.2,4.9-14.1,5.1c-16,0.5-30-13.8-31.2-32c-1.2-18.2,10.7-33.3,26.7-33.8
												c7.6-0.2,14.7,2.9,20.2,8.1c8,7.7,9,22.5,7.7,32.8C2176.4,598.7,2173.5,605.9,2168.2,610.4z"/>
										</g>
									</g>
								</g>
							</g>
						</g>
						<g>
							<g>
								<path class="st25" d="M2156.8,566.2c-1.4-9.5-20.3,0.5-17.1,5.8c1.9,3,5.3,5.1,8.1,7.2c3.8,2.8,5.7,5.4,6.4,10.2
									c0.1,0.5,0.3,2.2-0.3,2.6c-2.4,1.8-11-7.1-12.9-9c-3.7-3.7-4.5-10.3-3-15.2c1.6-5.2,4.8-7.7,10.3-7.7c4.3,0,8.8,0.1,8.8,5.5
									C2157.1,565.8,2156.9,566.7,2156.8,566.2L2156.8,566.2z"/>
							</g>
							<g>
								<path class="st25" d="M2151.1,576.4c1.9-2.1,3.9-0.5,6,0.9c2,1.3,3.1,3.2,3.7,5.5c1.3,4.9,1,11.6-1.7,16.1
									c-2.1,3.6-5.9,5.9-10.1,6c-5.8,0.1-7.8-5-8.3-9.9c-0.1-1.3-0.4-4.4,0.9-5.3c1.4-0.9,2.4,1.2,3.4,2c1.3,1.2,3.3,1.6,5,1.6
									c3.3,0.1,6.5-1.7,8.5-4.3c0.3-0.5,0.6-1,0.8-1.6c0.1,3.2,0,4-0.4,2.2c-0.3-0.8-0.7-1.6-1.2-2.2c-1.4-2.2-3.8-3.6-5.4-5.6
									C2151.7,580.9,2150.2,577.5,2151.1,576.4L2151.1,576.4z"/>
							</g>
						</g>
					</g>
					<polygon class="st20" points="2012.5,1638.9 2229.4,1638.9 2241.3,1126.8 2142.7,780.2 1957.8,889.5 2053.7,1318.6 					"/>
					<path class="st36" d="M2142.7,780.2l98.6,346.5l-0.4,16.5L2116.7,1016c0,0-13-22.1,4.6-35.1l29.4-28.1l-20.9-15
						c0,0-29.4-14.2-25.8-40.9l8.4-100.3L2142.7,780.2z"/>
					<path class="st20" d="M2504.2,1638.9l-16.8-353.3l36.9-367c13.1-66.2-50.9-83.1-50.9-83.1l-112.3-52.8l-15.7,334.7l38.9,521.5
						H2504.2z"/>
					<path class="st35" d="M2348.1,787.4c0,0-7.5-28.9-44.2-53.4l4.8,99.8C2308.8,833.8,2329.1,782.7,2348.1,787.4z"/>
					<path class="st30" d="M2351.5,833.8l-3.3-46.4c-11.2-2.7-21.2,13-29.4,25.8L2351.5,833.8z"/>
					<g>
						<polygon class="st37" points="2271.4,810.4 2268.4,804.8 2247.9,836.2 2265.5,842.5 						"/>
						<path class="st37" d="M2318.7,813.2l5.7-8.8c0,0,21.9,18.4-1.1,38.1C2323.4,842.5,2323.4,826.2,2318.7,813.2z"/>
						<path class="st38" d="M2271.4,810.4c0,0,17.3,15.4,47.3,2.8c6.6,8.3,6.5,19,4.6,29.3l-15.5,32.1h-21.7l-20.6-32.1
							C2265.5,842.5,2263.4,835.4,2271.4,810.4z"/>
						<polygon class="st37" points="2286.1,874.6 2268.6,1333.2 2305.2,1404.5 2335.1,1333.6 2307.9,874.6 						"/>
					</g>
					<path class="st36" d="M2361.2,782.7l29,13.6l20.9,96.6c0,0,10.5,25-4.7,31.6l-27.3,15.9l38.5,24.3c0,0,20.3,12.7,7.8,31.4
						l-77.2,150.7l-2.4-25.8L2361.2,782.7z"/>
					<path class="st21" d="M2164.9,1165.2l-45.1-35.6c0,0-67.9-10-101.8-5.7c0,0-11.2,15.6,74.4,18c0,0-60.1,19.2-79.3,33.5
						c0,0-3.1,17.8,51.8-8l25-1.8l-58.1,29c0,0,2.3,11,55.2-3.3l53,5.8L2164.9,1165.2z"/>
					<path class="st39" d="M2453.7,1171.8l-290.6-34.8c-14.5,17.7-28.5,50-22.3,83.7l371.2,117.7c0,0,98.1,17.4,72.2-100.7
						C2584.2,1237.8,2542.7,1177.6,2453.7,1171.8z"/>
					<path class="st21" d="M2453.7,1171.8c0,0-52.2,28.1-71.8,30.4l-30.4-52.4l41.5-26.9l28.5-6.6c0,0,46.8-12.1,59.1,52.2
						L2453.7,1171.8z"/>
					<g>
						<path class="st36" d="M1934.1,1273.5c-17.6,106.2,59.7,79.4,59.7,79.4l393.8-141.7c-11.1-61-36.1-70.6-36.1-70.6l-336.8,64.3
							C2014.7,1204.9,1951.3,1224.8,1934.1,1273.5z"/>
					</g>
				</g>
			</g>
		</g>
		<g>
			<g>
				<g>
					<g>
						<path class="st19" d="M2096,1635.3c2.5-106.8-9.3-335.9-22.4-357c-15.4-25-97.9,28.3-97.9,28.3s56.7,223.4,76.8,328.8H2096z"
							/>
					</g>
					<g>
						<path class="st19" d="M2037.3,946.4l24.9,8.1c0,0,39.4,306.6,6.1,375.1c-33.4,68.5-71.8-0.3-84.3-8.1
							c-12.5-7.8-92.3-355-92.3-355L2037.3,946.4z"/>
						<path class="st40" d="M2090.8,1294l-15.9-384.1c-18-94.3-114.6-66.2-114.6-66.2c-78.3,20.4-74.5,108.1-74.5,108.1l67.3,367.9
							c0,0,14.1,56.3,86.5,56.3C2039.7,1376,2093.1,1368.8,2090.8,1294z"/>
					</g>
					<path class="st40" d="M2022.5,1635.3h84.1c-0.4-98.5-3.7-292.6-23.2-369.3c0,0-133.1,2.8-123.6,66.7
						C1959.8,1332.6,1984.7,1500.4,2022.5,1635.3z"/>
				</g>
				<path class="st21" d="M1990,1374.3l70.2-429.3c0,0,24.2-64.5-24.2-96.8l-184.5-86.7h-130.1l-221.8,131.1l145.4,481.7H1990z"/>
				<path class="st22" d="M1989.6,1635.3l0.5-261h-344.9c0,0-34.9,79.6-47.2,261H1989.6z"/>
				<g>
					<path class="st41" d="M1835.7,1635.3c-16.1-51.4-62.9-88.4-118-88c-54.4,0.4-100.3,37.3-116.1,88H1835.7z"/>
					<path class="st41" d="M1738.3,1635.3c-9.5-1.4-19.7-1.5-30.9,0H1738.3z"/>
				</g>
				<g>
					<path class="st41" d="M1981.2,1635.3c-15.1-49.3-49.3-82.5-103.4-77c-46.4,4.7-84.1,35.5-100.8,77H1981.2z"/>
				</g>
				<g>
					<path class="st21" d="M1512.9,1635.3c-2.5-57-2.7-117.3,15.4-299.3c0,0-79.9-37-97.1,3c-8,18.8,7.3,188,25.1,296.2H1512.9z"/>
					<path class="st21" d="M1584.6,900.5c-85.6-19.5-114.9,59.6-114.9,59.6s-43,263.4-42.5,376.3c0.4,76.2,93.3,14.8,99.4,1.4
						c13.4-29.5,111.1-346.9,111.1-346.9S1642.9,916.5,1584.6,900.5z"/>
					<path class="st42" d="M1541.1,1342.3l111-360c-2.5-89.5-90.1-102.8-90.1-102.8c-82.4-7.9-100.4,63-100.4,63l-39.8,360.4
						c0,0-13.5,81,33.3,82.2C1455.2,1385,1533.7,1393.5,1541.1,1342.3z"/>
					<path class="st42" d="M1531.6,1635.3c6.3-106.1,16.3-314.9,16.3-314.9c-37.8-65.8-126-17.6-126-17.6
						c-15.7,66.1,10.6,238.4,27.1,332.5H1531.6z"/>
				</g>
				<path class="st21" d="M1720.8,666.7v139.1h147.1c0,0-36.2-55.1-18.1-139.1H1720.8z"/>
				<path class="st23" d="M1795.5,784.8c13.3,8.5,41.4,26.7,57.5,16.1c4.3-2.9,6.3-6.6,7-10.8c-9.5-22-22.5-65.9-10.1-123.4h-129
					v12.6C1737,720,1757.6,760.4,1795.5,784.8z"/>
				<g>
					<path class="st24" d="M1717.3,668.6c0,0-25-10.9-53.4-72.8c0,0-61.5-73.2-17.9-156.4c0,0,25.8-70.3,150.6-50.6
						C1796.7,388.8,1807.9,577.3,1717.3,668.6z"/>
					<path class="st21" d="M1871.1,706.3l8.3-21.8c0,0,23-81.1,23-81.2c2.9-10.2,3-23.8,1.2-34.3c-2-11.4-3.3-23.3-0.3-35.4
						c14.5-58.4-15.4-91.5-15.4-91.5c-33-55-114-56.9-114-56.9c-100.4,2.6-111.1,99.5-111.1,99.5c-17.8,64.2,32.3,119.1,32.4,119.3
						c4,4.4,1.4,25.6,2.5,31.6c4.7,25.9,29,42.3,50.6,53.7c23.7,12.5,52.5,26,79.2,29C1837.6,719.6,1866.3,718.8,1871.1,706.3z"/>
				</g>
				<path class="st25" d="M1851.5,583.7l-28,8.5c0,0,36.5,5,38.7-5.6c0,0-4-21.2-8.6-41.3C1853.6,545.3,1855.6,582.4,1851.5,583.7z"
					/>
				<g>
					<path class="st26" d="M1806.9,541c0.3,5.8-2.7,10.5-6.6,10.7c-3.9,0.2-7.3-4.3-7.5-10.1c-0.3-5.7,2.7-10.5,6.6-10.7
						C1803.3,530.8,1806.7,535.3,1806.9,541z"/>
					<path class="st26" d="M1885.9,538.1c0.3,5.8-2.7,10.5-6.6,10.7c-3.9,0.2-7.3-4.3-7.6-10.1c-0.3-5.7,2.7-10.6,6.6-10.7
						C1882.2,527.8,1885.6,532.3,1885.9,538.1z"/>
					<path class="st43" d="M1815.7,522.2c2.5,0.7,3.4-2.7,3.4-2.7c1-3.2,0.3-6.1,0.3-6.1c-0.9-2.4-2.8-3.3-2.8-3.3
						c-6.5-1.4-19.3-0.7-30.3,1.7c-6.1,1.3-16.1,5.1-17.1,10.5c-0.3,1.6-0.7,4.4,1.2,5.1C1770.3,527.5,1791.3,522.7,1815.7,522.2z"
						/>
					<path class="st43" d="M1906.2,517c-7.1-0.4-26,2.6-41.6,4.3c-2.4,1-3.7-2.2-3.7-2.2c-1.4-3.1-1.1-6-1.1-6
						c0.5-2.5,2.4-3.6,2.4-3.6c6.2-2.2,23.2-5.9,34.4-4.9c3.4,0.3,8.7,1.9,10.3,5.1C1907,509.7,1908.3,508.9,1906.2,517z"/>
				</g>
				<path class="st29" d="M1621.2,1362.6c0.3,14.3-21.4,163.9-12.3,165.8c0.1,0,248.2,57.2,380.6,0l0.5-154.2l70.2-429.3
					c0,0,24.2-64.5-24.2-96.8l-184.5-86.7l12.4,37.4l-26.7,75.9l-115.9-113.2l-221.8,131.1c12.4,41.1,24.7,82.2,37.1,123.2
					c22.9,75.7,45.1,151.6,68.7,227.2C1605.5,1243,1625,1324.9,1621.2,1362.6z"/>
				<polygon class="st30" points="1821.4,788.5 1819.8,857.6 1794.4,832.7 				"/>
				<g>
					<path class="st31" d="M1853.8,900c0,5.4-4.4,9.9-9.9,9.9c-5.4,0-9.9-4.4-9.9-9.9c0-5.4,4.4-9.9,9.9-9.9
						C1849.4,890.1,1853.8,894.5,1853.8,900z"/>
				</g>
				<g>
					<path class="st31" d="M1853.8,1079c0,5.4-4.4,9.9-9.9,9.9c-5.4,0-9.9-4.4-9.9-9.9c0-5.5,4.4-9.9,9.9-9.9
						C1849.4,1069.2,1853.8,1073.6,1853.8,1079z"/>
				</g>
				<g>
					<path class="st31" d="M1853.8,1258.1c0,5.4-4.4,9.9-9.9,9.9c-5.4,0-9.9-4.4-9.9-9.9c0-5.4,4.4-9.9,9.9-9.9
						C1849.4,1248.2,1853.8,1252.7,1853.8,1258.1z"/>
				</g>
				<g>
					<path class="st31" d="M1853.8,1437.2c0,5.4-4.4,9.9-9.9,9.9c-5.4,0-9.9-4.4-9.9-9.9c0-5.4,4.4-9.9,9.9-9.9
						C1849.4,1427.3,1853.8,1431.7,1853.8,1437.2z"/>
				</g>
				<line class="st32" x1="1821.4" y1="865.5" x2="1821.4" y2="1545.1"/>
				<g>
					<path class="st33" d="M1988,1542.6c0,0-126.8,59.4-386.2-1.3c-4.3-1-2.5-12.1-2.5-12.1l2.5-25c1.1-8,5.6-7.6,5.6-7.6
						c0.1,0,248.2,57.2,380.6,0c0,0,5.3-0.9,5.6,7.1v31.1C1993.6,1534.8,1993.6,1541.1,1988,1542.6z"/>
					<g>
						<path class="st34" d="M1859.2,1561.5c0,4-3.1,7.2-7,7.2h-50.5c-3.9,0-7-3.2-7-7.2v-36.4c0-3.9,3.1-7.2,7-7.2h50.5
							c3.9,0,7,3.2,7,7.2V1561.5z"/>
						<line class="st34" x1="1794.7" y1="1541" x2="1821.5" y2="1541"/>
					</g>
				</g>
				<path class="st35" d="M1821.4,787c0,0-81.4-31.6-100.5-63.1l-24,45.8l85.8,82.3l38.8-63.5"/>
				<path class="st43" d="M1818.2,437.3c15.9-4.5,34.3-7.6,50.8-4.6c16.5,3,25.7,25.1,42.7,13.9c6.9-4.5,20-14.5,24.3-21.3
					c6.6-10.5-7.7-30.3-17.5-33.8c-11-4-9.9-7.6-15.3-18.4c-4.6-9.2-5.7-17.6-17-20.7c-10.8-3-21.2,4.2-31.8,2.7
					c-18.2-2.7-21.6-22.3-40.7-25.7c-21.1-3.7-32.3,31.7-53.2,30.3c-18.1-1.2-29.8-17-49.4-13.2c-20.2,3.9-25.4,25.6-43.7,31.9
					c-18.7,6.4-39.3,3-44.9,27.2c-4.5,19.7,4.1,33.1-9.9,49.9c-15.5,18.7-9.9,38.1-1.6,57.8c14.9,35.4,29.7,70.3,52.8,101.3
					c6.4,8.6,13.5,17,21.3,24.4c1.3,1.3,7.9,5.5,8.2,7.2c0,0-13.3-75.3,26.4-65l6.9-0.4c0,0-13.7-44.1,14.7-65.9
					c-13.4-17.3-2.5-51.8,0.2-56.7C1755.3,433.3,1794.9,443.9,1818.2,437.3z"/>
				<g>
					<g>
						<g>
							<g>
								<g>
									<g>
										<path class="st21" d="M1710.2,613.5c-3.6,3-8.2,4.9-14.1,5c-16,0.5-30-13.8-31.2-32c-1.2-18.2,10.7-33.3,26.7-33.8
											c7.6-0.2,14.7,2.9,20.2,8.1c8.1,7.7,9,22.5,7.7,32.8C1718.4,601.8,1715.5,609,1710.2,613.5z"/>
									</g>
								</g>
							</g>
						</g>
					</g>
					<g>
						<g>
							<path class="st25" d="M1698.8,569.3c-1.4-9.5-20.3,0.5-17.1,5.8c1.8,3,5.3,5.1,8.1,7.2c3.8,2.8,5.7,5.5,6.4,10.2
								c0.1,0.6,0.3,2.2-0.3,2.6c-2.4,1.8-11-7.1-12.9-9c-3.7-3.7-4.5-10.3-3-15.2c1.6-5.2,4.8-7.8,10.3-7.7c4.3,0,8.8,0.1,8.8,5.6
								C1699,568.9,1698.9,569.8,1698.8,569.3L1698.8,569.3z"/>
						</g>
						<g>
							<path class="st25" d="M1693.1,579.5c1.9-2.1,3.9-0.5,6,0.9c2,1.3,3.1,3.2,3.7,5.5c1.3,4.9,1,11.6-1.7,16.1
								c-2.1,3.6-5.9,5.9-10.1,6c-5.8,0.1-7.8-5-8.3-9.9c-0.1-1.3-0.4-4.4,0.9-5.3c1.3-0.9,2.4,1.2,3.4,2.1c1.4,1.2,3.3,1.5,5,1.6
								c3.3,0.2,6.5-1.7,8.5-4.3c0.3-0.5,0.6-1,0.8-1.5c0.1,3.2,0,4-0.4,2.2c-0.3-0.8-0.7-1.5-1.2-2.2c-1.4-2.2-3.8-3.6-5.4-5.6
								C1693.6,584,1692.1,580.6,1693.1,579.5L1693.1,579.5z"/>
						</g>
					</g>
				</g>
				<polygon class="st42" points="1555.4,1635.3 1771.6,1635.3 1783.3,1129.8 1684.7,783.3 1499.7,892.6 1595.6,1321.7 				"/>
				<path class="st44" d="M1684.7,783.3l98.6,346.5l-0.4,16.4l-124.2-127.2c0,0-13.1-22.1,4.6-35.1l29.4-28.1l-20.9-15
					c0,0-29.4-14.2-25.8-40.9l8.4-100.4L1684.7,783.3z"/>
				<path class="st42" d="M2045.9,1635.3l-16.5-346.7l37-367c13.1-66.3-50.9-83.1-50.9-83.1l-112.3-52.8l-15.7,334.8l38.5,514.8
					H2045.9z"/>
				<path class="st35" d="M1890.1,790.5c0,0-7.5-28.9-44.2-53.4l4.8,99.8C1850.7,836.8,1871.1,785.8,1890.1,790.5z"/>
				<path class="st30" d="M1893.4,836.8l-3.3-46.4c-11.2-2.8-21.2,12.9-29.4,25.8L1893.4,836.8z"/>
				<g>
					<polygon class="st45" points="1813.4,813.5 1810.4,807.9 1789.9,839.3 1807.5,845.6 					"/>
					<path class="st45" d="M1860.7,816.3l5.7-8.8c0,0,21.9,18.4-1.1,38.1C1865.4,845.6,1865.4,829.3,1860.7,816.3z"/>
					<path class="st46" d="M1813.4,813.5c0,0,17.3,15.4,47.4,2.8c6.6,8.4,6.5,19,4.6,29.3l-15.5,32.1h-21.7l-20.6-32.1
						C1807.5,845.6,1805.4,838.5,1813.4,813.5z"/>
					<polygon class="st45" points="1828.1,877.6 1810.6,1336.3 1847.2,1407.5 1877.1,1336.7 1849.8,877.6 					"/>
				</g>
				<path class="st44" d="M1903.1,785.7l29,13.6L1953,896c0,0,10.5,25-4.7,31.5l-27.3,15.9l38.5,24.4c0,0,20.3,12.7,7.8,31.4
					l-77.2,150.7l-2.4-25.8L1903.1,785.7z"/>
				<g>
					<path class="st47" d="M1811.3,619.2l61.8-4c3.3-0.2,5,2.2,3.8,5.3c0,0-12,31.6-32,32.8c-20,1.3-35.8-28.6-35.8-28.6
						C1807.7,622,1808.8,619.8,1811.3,619.2z"/>
					<path class="st48" d="M1867.2,638c-5.4,7.5-13,14.6-22.3,15.2c-9.4,0.6-17.8-5.6-24.1-12.5
						C1831.9,626.8,1853.7,625.8,1867.2,638z"/>
					<path class="st28" d="M1810.8,619.5c0.2-0.1,0.4-0.2,0.6-0.3l61.8-4c0.6,0,1.2,0.1,1.7,0.3c-1.6,3.7-3.2,7.3-4.8,10.9
						c-9.4,2.4-30.8,6.7-53.6,3.4C1814.7,626.2,1812.8,622.8,1810.8,619.5z"/>
				</g>
			</g>
		</g>
		<g>
			<path class="st19" d="M1326.8,1635.3h271.7c-11.9-77.6-28.7-146.1-52.3-189.5c0,0-262.3-13-222.9,164.8
				C1323.4,1610.7,1324.4,1619.6,1326.8,1635.3z"/>
			<path class="st49" d="M1522.4,646.6c5.3,66,17.9,130.9,54,188c10,15.9,20.2,32.7,34.2,45.5c-54,11.5-196,11.1-217.7-69.6
				c-14.2-52.8-17.2-108-15.4-162.3c1.7-49.2,2.8-104.1,23.7-149.5c19-41.3,86-40.8,110.9-2.9c12.1,18.4,5.3,41,6,61.8
				C1519.1,587.1,1520.1,617,1522.4,646.6z"/>
			<path class="st19" d="M1534.6,838.3c44.2-1.2,68.4,38.1,82.2,77.8c14.5,41.8-22.8,158.2-56.5,129.5
				c-66.2-56.3-99.2-90.2-100.4-134.4C1458.7,867,1490.4,839.5,1534.6,838.3z"/>
			<path class="st50" d="M1446.3,1241.7c10.1-1.8,52,19.8,52,19.8s52.2,167.9,54.5,193.4c2.3,25.5-173.3,157.6-369.4,82.4
				c0,0,90.8-236.4,96.3-294.6C1285.3,1184.4,1446.3,1241.7,1446.3,1241.7z"/>
			<path class="st51" d="M1498.3,1261.5c0,0,50.1,151.4,54.5,193.4c15.6,148.7-185.6,211.1-381.7,135.8c0,0-12.7-204.5,108.7-348
				C1279.7,1242.7,1312,1272.1,1498.3,1261.5z"/>
			<path class="st21" d="M1193.2,1635.3l-22.1-12.1c0,0,0.2,4.3,0.6,12.1H1193.2z"/>
			<path class="st21" d="M1435.9,1635.3c15.2-128.8-92.2-195.5-208.9-143.4c0,0-67.2,19.4-54.2,143.4H1435.9z"/>
			<path class="st21" d="M1322.6,829.4h136.5c-6.2-19.9-19.1-71.3,0.8-106.3L1322,632.6C1322,632.6,1346.6,784.5,1322.6,829.4z"/>
			<path class="st23" d="M1449.3,769.8c-0.4-15.2,2.1-31.7,10.6-46.7L1322,632.6c0,0,10,61.9,11,118.4
				C1382.8,766.8,1403.3,772.9,1449.3,769.8z"/>
			<path class="st21" d="M1231.1,842.3c-63.9,30.5-29.6,101.1-29.6,101.1l83,302.2c0,0,77.6,31.7,213.7,15.8
				c18.9-27.1,57.8-140.4,70.8-227c10.7-71.3,44-141.5,7.7-181.3c-13.9-15.2-119.8-30.5-120.4-32.9l-125.1-0.5L1231.1,842.3z"/>
			<g>
				<path class="st21" d="M1481.2,735.5l8.3-20.1l20.7-59.4c2.9-9.5,4.8-22.5,1.9-32c-3.4-11.4-5.5-29.9-0.3-50.2
					c14-54.3-8.9-84.2-8.9-84.2c-29.5-52.1-105.1-55.7-105.1-55.7c-93.7,0.1-105.9,90.2-105.9,90.2c-18.1,59.5,27.4,111.9,27.5,112
					c5.8,6.6,5.9,16.9,8.4,24.9c2.7,8.5,7,16.6,12.5,23.6c12.4,15.7,28.8,31,46,40.9c16.3,9.4,48.2,19.7,71.2,20.7
					C1467.1,746.5,1476.4,747.1,1481.2,735.5z"/>
				<path class="st49" d="M1328.1,671.5c1.7-42.7,2.6-40,2.6-40c1.6-12.4,24.7,15.7,25.1-0.6c1.5-74.5,30.3-108.5,41.1-113.7
					c29.5-14.1,60-17,83.8-11.5c37.3,8.6,33.3,58.6,33.3,58.6c41.4-181.7-166-133.5-166-133.5c-100.9,21.1-95.4,115.4-95.4,115.4
					c-17.3,100.1,78.9,163.2,78.9,163.2L1328.1,671.5z"/>
				<g>
					<g>
						<g>
							<g>
								<g>
									<g>
										<path class="st24" d="M1335.3,657.3c-3.5,2.4-7.8,3.7-13.2,3.3c-14.5-0.9-25.8-15.1-25.3-31.6
											c0.5-16.5,12.6-29.1,27.1-28.1c6.9,0.5,13,3.9,17.5,9.1c6.6,7.6,6.1,21.1,4,30.2C1343.8,647.5,1340.5,653.7,1335.3,657.3z
											"/>
									</g>
								</g>
							</g>
						</g>
					</g>
					<g>
						<g>
							<path class="st25" d="M1329,616.5c-0.4-8.7-18.3-1.3-15.9,3.7c1.4,2.9,4.4,5.1,6.7,7.2c3.2,2.8,4.7,5.4,4.9,9.7
								c0,0.5,0.1,2-0.5,2.3c-2.3,1.5-9.3-7.4-10.9-9.2c-3-3.7-3.2-9.7-1.4-13.9c1.9-4.5,5-6.5,9.9-6c3.9,0.4,7.9,0.9,7.4,5.8
								C1329.2,616.1,1329,616.9,1329,616.5L1329,616.5z"/>
						</g>
						<g>
							<path class="st25" d="M1322.9,625.2c1.9-1.7,3.6-0.1,5.4,1.3c1.7,1.4,2.5,3.2,2.9,5.3c0.8,4.5-0.1,10.5-2.9,14.3
								c-2.2,3.1-5.8,4.8-9.6,4.5c-5.3-0.4-6.6-5.1-6.6-9.6c0-1.2,0.1-4,1.2-4.7c1.3-0.7,2.1,1.3,2.9,2.2c1.1,1.2,2.8,1.7,4.4,1.9
								c3,0.4,6-1,8-3.1c0.3-0.4,0.7-0.8,0.9-1.3c-0.2,2.9-0.3,3.6-0.6,1.9c-0.2-0.8-0.5-1.5-0.9-2.1c-1.1-2.1-3.1-3.5-4.4-5.6
								C1323.1,629.3,1322,626.1,1322.9,625.2L1322.9,625.2z"/>
						</g>
					</g>
				</g>
				<g>
					<path class="st26" d="M1421.5,597.8c0.2,5.2-2.4,9.6-6,9.7c-3.5,0.2-6.6-3.9-6.8-9.1c-0.2-5.2,2.4-9.6,6-9.7
						C1418.2,588.5,1421.3,592.6,1421.5,597.8z"/>
					<path class="st26" d="M1493.9,591.8c-0.1,5.2-3,9.4-6.5,9.4c-3.5,0-6.3-4.3-6.3-9.5c0.1-5.2,3-9.4,6.5-9.3
						C1491.2,582.3,1494,586.6,1493.9,591.8z"/>
					<path class="st49" d="M1390.9,589.3c13.9-18.2,50.5-11.1,50.5-11.1s2.1,0,1.9-6.5c0,0,0.1-5.7-4.5-5.4
						C1438.7,566.3,1393.9,558.7,1390.9,589.3z"/>
					<path class="st49" d="M1512.7,571.2c0.1-20.1-38.7-9.4-38.7-9.4c-4.6-0.1-4.2,5.7-4.2,5.7c0.1,6.5,2.3,6.4,2.3,6.4
						s35.1-9.6,40.1-1.2C1513.7,568.6,1511.8,573.5,1512.7,571.2z"/>
					<path class="st25" d="M1445,648.7c26.9-0.6,28.8-7.5,28.8-7.5l-12.6-29C1461.2,612.2,1462.9,640.6,1445,648.7z"/>
					<g>
						<path class="st47" d="M1433,664l51.6-3.4c2.7-0.1,4.2,1.8,3.2,4.4c0,0-10,26.3-26.7,27.4c-16.7,1-29.9-23.9-29.9-23.9
							C1429.9,666.3,1430.9,664.5,1433,664z"/>
						<path class="st48" d="M1479.6,679.7c-4.5,6.3-10.9,12.2-18.6,12.7c-7.8,0.5-14.9-4.7-20.1-10.4
							C1450.2,670.4,1468.3,669.6,1479.6,679.7z"/>
						<path class="st28" d="M1432.5,664.2c0.2-0.1,0.3-0.2,0.5-0.2l51.6-3.4c0.5,0,1,0.1,1.4,0.2c1.5,2.2,0.1,6.4-4,9.1
							c-7.8,2-25.7,5.6-44.7,2.8C1432.5,668.8,1430.6,665.4,1432.5,664.2z"/>
					</g>
				</g>
				<path class="st28" d="M1335.9,660.3c-0.3,4.9-4.4,8.7-9.3,8.4c-4.9-0.2-8.6-4.4-8.4-9.3c0.2-4.9,4.4-8.7,9.3-8.4
					C1332.4,651.3,1336.1,655.4,1335.9,660.3z"/>
			</g>
			<path class="st52" d="M1569.1,845c0,0,33.5,0,52.5,84.8c0,0,92.9,282.1,33.3,298.4c0,0-89-17.5-172.7-242.2
				C1482.2,986.1,1474.5,850.4,1569.1,845z"/>
			<path class="st52" d="M1493.9,827.7l58.9,10.6c0,0,42.9,9.4,44.4,46.1c0,0,2.4,69.6-35.5,195.5
				C1561.7,1079.9,1499,886.7,1493.9,827.7z"/>
			<path class="st52" d="M1478.9,825.4l26.5,4.1c0,0,51.5,99.6,63.7,205c-13,86.6-39.1,217.6-70.8,227
				c-107.3,31.7-219.4-18.1-219.4-18.1l-51.3-204.9c137.8-53.7,68.2-211.2,68.2-211.2l29-6.9l121.8,123.2L1478.9,825.4"/>
			<path class="st53" d="M1533.3,893.3c0,0,53.9,74.6,63.2,113c6.2,25.3-37.9,82.2-73.4,92.2C1503.7,1104,1503.3,898.3,1533.3,893.3
				z"/>
			<path class="st51" d="M1533.3,893.3c0,0,53.9,74.6,63.2,113c6.2,25.3-37.9,82.2-73.4,92.2C1503.7,1104,1503.3,898.3,1533.3,893.3
				z"/>
			<g>
				<path class="st51" d="M1509.5,829.4c0,0,49.1,100.2,61.2,205.7c-13,86.6-40.8,217-72.4,226.4c-107.3,31.7-219.4-18.1-219.4-18.1
					l-51.3-204.9c137.8-53.7,68.2-211.2,68.2-211.2l29-6.9l128.9,184.2l25.2-179.1L1509.5,829.4z"/>
				<path class="st54" d="M1324.8,820.3l128.9,184.2l0,0l-92.7-25.1c0,0-13.5-11.4-4.9-23.9l12.8-24.9l-17-5c0,0-22.3-2.6-26-20.8
					l-13.9-81.5L1324.8,820.3z"/>
				<path class="st54" d="M1478.4,825.6l-24.8,178.9l0,0l50.4-46.8c0,0,20.7-16.8,1.3-25.3l-24-7.4l28.1-25.3c0,0,5.9-7.7,0-22.3
					l-16.9-50.2L1478.4,825.6z"/>
			</g>
			<g>
				<polygon class="st55" points="1428.3,854.6 1426.7,923.7 1401.3,898.8 				"/>
				<path class="st56" d="M1428.3,853c0,0-77.2-31.6-96.4-63.1l-36.1,37.3l93.7,90.8l38.8-63.5"/>
			</g>
			<path class="st56" d="M1497,856.5c0,0-7.5-28.9-44.2-53.4l4.8,99.8C1457.6,902.9,1478,851.9,1497,856.5z"/>
			<path class="st55" d="M1500.3,902.9l-3.3-46.4c-11.2-2.7-21.2,12.9-29.4,25.8L1500.3,902.9z"/>
			<path class="st51" d="M1604.5,1635.3c-14.6-81.6-33.8-156.3-59-202.6c0,0-356.6-33-373.3,100.3l-4.3,102.3H1604.5z"/>
			<path class="st52" d="M1203.2,863.2c0,0-14.3,14.9-25.9,57.8c0,0-56.5,206.6-14.9,311.5c0,0,13.6,21.3,48.6,30.8L1322,996
				c0,0,47.4-111.9-27.9-169.8l-63,16.1C1231.1,842.3,1212.9,849.2,1203.2,863.2z"/>
			<path class="st21" d="M1301,1086.4l-39.7-31.3c0,0-59.7-8.8-89.5-5c0,0-9.9,13.7,65.5,15.8c0,0-52.8,16.9-69.8,29.4
				c0,0-2.7,15.6,45.6-7.1l22-1.6l-51.1,25.5c0,0,2,9.7,48.5-2.9l46.7,5.1L1301,1086.4z"/>
			<path class="st52" d="M1555,1092.3l-255.6-30.6c-12.8,15.6-25.1,43.9-19.6,73.6l326.5,103.6c0,0,86.3,15.3,63.5-88.6
				C1669.8,1150.3,1633.3,1097.3,1555,1092.3z"/>
			<path class="st21" d="M1555,1092.3c0,0-45.9,24.8-63.2,26.7l-26.7-46.1l36.5-23.7l25-5.8c0,0,41.2-10.6,52,45.9L1555,1092.3z"/>
			<g>
				<path class="st57" d="M1215.8,1264.7c0,0-70,6.4-52.5-69.8c15.1-42.9,70.9-60.4,70.9-60.4l230.9-69.7c0,0,22,8.4,31.7,62.1
					C1496.8,1126.9,1294.9,1266.7,1215.8,1264.7z"/>
			</g>
			<path class="st49" d="M1358.6,644.6c-8.5,65.7-9.7,131.7,13.8,195.2c6.5,17.6,13,36.2,24,51.6c-55.2,0-194-29.9-198.5-113.3
				c-2.9-54.5,5.5-109.2,18.7-162c11.9-47.7,24.4-101.2,54.2-141.3c27.1-36.5,92.6-22,109.1,20.2c8,20.5-3.3,41.2-7,61.7
				C1367.7,585.7,1362.4,615.1,1358.6,644.6z"/>
		</g>
		<g>
			<g>
				<polygon class="st59" points="946.7,646.2 945.8,809.6 936.5,892.5 997.9,909.5 1069.4,930.7 1060.7,810 1056.5,686.7 				"/>
				<path class="st60" d="M976.1,370.8c-82,20.2-78.8,76.8-78.8,76.8s-4.6,33.2-2,85.2c-7.8-10.3-20.8-14.5-33.9-8.6
					c-27.8,12.5-5.5,100.4,36.9,92c2.3,24.6,12.9,54.2,16.2,60.8c12.4,24.9,65.7,62.2,112.5,67.4c46.8,5.2,105.8-21.7,109.2-76.6
					c4.7-76.1-8.3-239.8-8.3-239.8S1111.9,337.3,976.1,370.8z"/>
				<path class="st61" d="M946.7,417.4c-22.2,0.3-57.2-6.7-79.4-6.9c0-2.2,0,16.3,0.1,16.5c3.9,9.6,4.9,96.5,4.9,96.5
					c22.4,0.7,22.1,18.6,22.1,18.6L898,582l22.1-2.7l-0.2-84.7c14.9-8.2,19.6-21.9,19.6-21.9S943.5,432.5,946.7,417.4z"/>
				<g>
					<path class="st62" d="M1030.8,461.3c-5.7,4.5-12.3,8-19.2,10.5c-6.9,2.5-14.2,3.9-21.6,4.1c-3.7,0-7.4-0.3-11-1
						c-3.6-0.7-7.2-1.7-10.6-3.1c-0.8-0.4-1.7-0.8-2.5-1.1l-1.3-0.6l-1.2-0.6l-2.4-1.3l-2.3-1.5c-1.6-0.9-3-2.1-4.5-3.2
						c-1.5-1.1-2.8-2.3-4.2-3.5l2.2,1.6c0.7,0.5,1.4,1.1,2.2,1.6c1.5,1,3,2,4.6,2.9l2.4,1.4l2.4,1.2l1.2,0.6l1.3,0.5
						c0.8,0.3,1.7,0.7,2.5,1c3.4,1.2,6.9,2.2,10.4,2.9c3.6,0.6,7.2,0.9,10.8,0.8c7.2,0,14.4-1.4,21.3-3.7c3.4-1.1,6.8-2.5,10.1-4.1
						C1024.6,465.1,1027.8,463.3,1030.8,461.3z"/>
				</g>
				<g>
					<path class="st62" d="M1065.6,488.2c1.9-2.4,4.2-4.5,6.6-6.5c2.4-1.9,5-3.7,7.7-5.2c5.4-3,11.6-4.9,17.9-5
						c3.1,0,6.3,0.5,9.3,1.3c1.5,0.4,3,1,4.4,1.6c0.7,0.3,1.4,0.7,2.1,1l1,0.5l1,0.6l2,1.2l1.9,1.4c1.3,0.9,2.4,2,3.6,3
						c1.1,1,2.2,2.2,3.3,3.3c1,1.2,2,2.3,3,3.5l-3.3-3.3c-1.2-1-2.3-2.1-3.5-3c-1.2-0.9-2.3-2-3.6-2.8l-1.9-1.3l-2-1.1l-1-0.6
						l-1-0.5c-0.7-0.3-1.4-0.7-2.1-1c-1.4-0.5-2.8-1.1-4.3-1.5c-2.9-0.8-5.9-1.3-8.9-1.2c-6,0-12,1.8-17.4,4.5
						c-2.7,1.4-5.3,3-7.8,4.8C1070.1,484,1067.8,486,1065.6,488.2z"/>
				</g>
				<path class="st61" d="M1047.2,611.7c0,0-66.3-13.1-76.4,7.7c-10.1,20.8-13.4,43.6-31.8,35.6c-18.5-8-18.3-173.9-18.3-173.9
					l-24,55.4c0,0-40,219.7,93.5,223.9c140,4.4,160-35.9,146.9-109.5c0,0-15.4,7.6-23.2-12.2C1105.9,618.7,1120.7,601,1047.2,611.7z
					"/>
				<path class="st28" d="M1070.6,654.4l-78-3.1C992.6,651.3,1017.2,618.6,1070.6,654.4z"/>
				<path class="st61" d="M867.3,427c0,0-13.2-71.1,48-66.4c0,0,43.1-62.9,131.5-63.1l-36.1,20.6c0,0,49.4-33,134.8-2.8
					c0,0-7.6,30.7-40,34.8c0,0,39.2-6.8,48.1-14.3c0,0-1.6,55.9-31.1,69.2c-29.5,13.3-141.6-36.4-180.4,19.3
					c-38.8,55.7-67.8-5.6-67.8-5.6"/>
				<path class="st63" d="M948.4,490.5l91.1,7.7c0,0,3.6,76.1-56.4,70.4C923.1,562.9,948.4,490.5,948.4,490.5z"/>
				<polygon class="st64" points="1042.9,495.2 937.4,485.2 934.7,497.2 1040.8,504.9 				"/>
				<path class="st63" d="M1148.8,501.4l-87.3-2.4c0,0-10,83.3,50.2,79.4C1171.9,574.5,1148.8,501.4,1148.8,501.4z"/>
				<polygon class="st64" points="1058.4,495.4 1160,496.4 1162.3,508.5 1060.1,505.6 				"/>
				<polygon class="st59" points="1043.1,603.6 1053.7,509.3 1088,592.2 				"/>
				<polygon class="st64" points="934.9,497.2 863,525.1 863.5,514.4 937.4,485.2 				"/>
				<path class="st65" d="M1037.8,514.4c7.1-4.9,16.5-5.4,23.3,0.4"/>
			</g>
			<path class="st69" d="M1159.2,1289.8c0,0,77,545.7-102.8,1084.2c0,0-55.4,37.5-103.6-2.9c0,0,63.3-517.7,43.5-823.9l-38.6,5.9
				c0,0-96.6,265.3-107,337.7c-10.4,72.4-74.3,465.2-89.7,497.6c0,0-79.3,21.1-101.7-21.2c0,0,20.1-302.7,27.4-430.9
				c5.4-95.2,118.8-563.4,118.8-563.4L1159.2,1289.8z"/>
			<path class="st70" d="M804.5,1355.7c0,0,191.3,84.2,369.2,28.5c0,0,32.4-324.9,49.5-521.9c0,0-97.8-38.6-211.5-48.8l-14.6,42.3
				l-9.1-44c0,0-166.5,8.4-229.5,22.2C758.5,834.1,787.6,1204.4,804.5,1355.7z"/>
			<polygon class="st71" points="899.7,816.6 954.3,873 988.1,811.9 928.3,778.1 			"/>
			<polygon class="st71" points="1099.5,826.1 1052.6,874.4 1011.8,813.1 1076.2,788.1 			"/>
			<path class="st70" d="M1223.2,862.3c0,0,76,185.9,109.6,287.4c0,0-38.7,40.9-94.5,44l-62-165.1L1223.2,862.3z"/>
			<path class="st70" d="M759.1,835.7c0,0-126.5,247.3-157.5,349.7c0,0,39.7,39.9,95.6,41.5l113-226.2L759.1,835.7z"/>
			<path class="st70" d="M804.6,1381.1c0,0,38.2,62.8,146.1,103.8l33.8-85.6l59.7,86.8c0,0,93-36.1,129.6-101.8L770.2,959.1
				L804.6,1381.1z"/>
			<path class="st71" d="M1007.5,889.9c0.3,4.8-3.4,9-8.3,9.3c-4.8,0.3-9-3.4-9.3-8.3c-0.3-4.8,3.4-9,8.3-9.3
				C1003.1,881.3,1007.3,885,1007.5,889.9z"/>
			<path class="st71" d="M1005.7,970.4c0.3,4.8-3.4,9-8.3,9.3c-4.8,0.3-9-3.4-9.3-8.3c-0.3-4.8,3.4-9,8.3-9.3
				C1001.3,961.9,1005.4,965.6,1005.7,970.4z"/>
			<path class="st71" d="M1007.4,1070.9c0.3,4.8-3.4,9-8.3,9.3c-4.8,0.3-9-3.4-9.3-8.3c-0.3-4.8,3.4-9,8.3-9.3
				C1003,1062.3,1007.2,1066,1007.4,1070.9z"/>
			<path class="st71" d="M1006.4,1166.4c0.3,4.8-3.4,9-8.3,9.3c-4.8,0.3-9-3.4-9.3-8.3c-0.3-4.8,3.4-9,8.3-9.3
				C1002,1157.9,1006.2,1161.6,1006.4,1166.4z"/>
			<path class="st71" d="M994.5,1360.6c0.3,4.8-3.4,9-8.3,9.3c-4.8,0.3-9-3.4-9.3-8.3c-0.3-4.8,3.4-9,8.3-9.3
				C990.1,1352.1,994.2,1355.8,994.5,1360.6z"/>
			
				<rect x="834" y="1012.3" transform="matrix(0.9998 -1.969877e-02 1.969877e-02 0.9998 -19.9212 17.724)" class="st71" width="111.4" height="15.6"/>
			<g>
				<path class="st71" d="M1041.2,1259.9c0.3,4.6-3.2,8.5-7.8,8.7c-4.6,0.3-8.5-3.2-8.7-7.8c-0.3-4.6,3.2-8.5,7.8-8.7
					C1037.1,1251.9,1041,1255.4,1041.2,1259.9z"/>
				<path class="st72" d="M896.2,1276.6c0.2,5.5,7.4,9.8,16.2,9.5l502.8-16.2c8.7-0.3,15.7-5,15.5-10.5l0,0
					c-0.2-5.5-7.4-9.8-16.2-9.5l-502.8,16.2C902.9,1266.4,896,1271.1,896.2,1276.6L896.2,1276.6z"/>
				<path class="st73" d="M911.7,1266.1l502.8-16.2l-349.8,11.3c-7.1,0.6-12.6,6.6-12.4,14c0.1,2.4,0.9,4.5,2,6.4l-142,4.6
					c-8.7,0.3-16-4-16.2-9.5C896,1271.1,902.9,1266.4,911.7,1266.1z"/>
				<path class="st74" d="M1046,1249.9c0.2,7.8,6.8,14,14.7,13.8l364.8-8.9c7.9-0.2,14.2-6.7,14-14.5l-6.7-275.9
					c-0.2-7.8-6.8-14-14.7-13.8l-364.8,8.9c-7.9,0.2-14.2,6.7-14,14.5L1046,1249.9z"/>
				<path class="st72" d="M1053.2,959.5l4.5-0.1c-4.2,2.6-7.1,7.1-7,12.3l6.8,278c0.2,7.4,6.1,13.1,13.4,13.7l-10.2,0.2
					c-7.9,0.2-14.5-6-14.7-13.8l-6.7-275.9C1039,966.2,1045.3,959.7,1053.2,959.5z"/>
			</g>
			<path class="st60" d="M850.6,1237l42.5,11.3c5.1-3.7,14.3-9.1,25.8-10.4c0.4-0.1,0.8-0.1,1.2-0.2c8.5-0.7,18.2,0.8,28.3,7
				c0,0,38.3,2.1,39.7,18.7l-36.2,2c4.6,9.2,7.2,18.8,7.2,18.8l45.2-1.2c-25.4,46-114.8,10.6-114.8,10.6l-47.3-9.5L850.6,1237z"/>
			<path class="st70" d="M723.9,1156.4c0,0,82.7,64.9,150.8,84.7c0,0-1.1,37.3-20.1,61.3c0,0-179.9-26.5-242.6-75.5
				c0,0-32.5-16.2,5.7-89.9C632.3,1108.8,723.9,1156.4,723.9,1156.4z"/>
			<ellipse class="st75" cx="995.4" cy="530.7" rx="11.6" ry="7"/>
			<ellipse class="st75" cx="1107.6" cy="538.7" rx="14.1" ry="8"/>
		</g>
		<g>
			<g>
				<g>
					<g>
						<path class="st19" d="M767.8,1635.3c-20.1-105.4-76.8-328.8-76.8-328.8s82.5-53.3,97.9-28.3c13.1,21.2,24.9,250.3,22.4,357
							H767.8z"/>
					</g>
					<g>
						<path class="st19" d="M752.6,946.4l24.9,8.1c0,0,39.4,306.6,6.1,375.1c-33.4,68.5-71.8-0.3-84.3-8.1
							c-12.5-7.8-92.3-355-92.3-355L752.6,946.4z"/>
						<path class="st76" d="M806.2,1294l-15.9-384.1c-18-94.3-114.6-66.2-114.6-66.2c-78.3,20.4-74.5,108.1-74.5,108.1l67.3,368
							c0,0,14.1,56.3,86.5,56.3C755,1376,808.5,1368.8,806.2,1294z"/>
					</g>
					<path class="st76" d="M737.8,1635.3c-37.7-134.9-62.7-302.7-62.7-302.7c-9.6-63.9,123.6-66.7,123.6-66.7
						c19.5,76.7,22.8,270.9,23.2,369.3H737.8z"/>
				</g>
				<path class="st21" d="M705.4,1374.3L775.6,945c0,0,24.2-64.5-24.2-96.8L567,761.5H436.8L215.1,892.6l145.4,481.7H705.4z"/>
				<path class="st22" d="M313.2,1635.3c12.4-181.4,47.2-261,47.2-261h345l-0.5,261H313.2z"/>
				<g>
					<path class="st41" d="M316.9,1635.3c15.8-50.7,61.7-87.6,116.1-88c55-0.4,101.9,36.6,118,88H316.9z"/>
					<path class="st41" d="M422.7,1635.3c11.2-1.5,21.5-1.4,30.9,0H422.7z"/>
				</g>
				<g>
					<path class="st41" d="M492.3,1635.3c16.7-41.5,54.4-72.3,100.8-77c54.1-5.5,88.3,27.7,103.4,77H492.3z"/>
				</g>
				<g>
					<path class="st21" d="M228.2,1635.3h-56.6c-17.8-108.3-33.1-277.5-25.1-296.2c17.2-40.1,97.1-3,97.1-3
						C225.5,1518,225.7,1578.3,228.2,1635.3z"/>
					<path class="st21" d="M299.9,900.5c-85.6-19.5-114.9,59.6-114.9,59.6s-43,263.4-42.5,376.3c0.4,76.2,93.3,14.8,99.4,1.4
						C255.5,1308.3,353.1,991,353.1,991S358.2,916.5,299.9,900.5z"/>
					<path class="st77" d="M256.5,1342.3l111-360c-2.5-89.5-90.1-102.8-90.1-102.8c-82.4-7.9-100.4,63-100.4,63l-39.8,360.4
						c0,0-13.5,81,33.3,82.2C170.5,1385,249.1,1393.5,256.5,1342.3z"/>
					<path class="st77" d="M164.3,1635.3c-16.5-94.1-42.8-266.4-27.1-332.5c0,0,88.2-48.1,126,17.6c0,0-9.9,208.8-16.3,314.9H164.3z
						"/>
				</g>
				<path class="st21" d="M436.2,666.7v139.1h147.1c0,0-36.2-55.1-18.1-139.1H436.2z"/>
				<path class="st23" d="M510.8,784.8c13.3,8.5,41.4,26.7,57.5,16.1c4.3-2.9,6.3-6.6,7-10.8c-9.5-22-22.5-66-10.1-123.4h-129v12.6
					C452.3,720,472.9,760.4,510.8,784.8z"/>
				<g>
					<path class="st24" d="M432.7,668.6c0,0-25-10.9-53.4-72.8c0,0-61.5-73.2-17.9-156.4c0,0,25.8-70.3,150.6-50.6
						C512,388.8,523.3,577.3,432.7,668.6z"/>
					<path class="st21" d="M586.4,706.3l8.3-21.8c0,0,23-81.1,23-81.1c2.9-10.2,3-23.8,1.2-34.3c-2-11.4-3.3-23.3-0.3-35.4
						c14.5-58.3-15.4-91.5-15.4-91.5c-32.9-55-114.1-56.9-114.1-56.9C388.7,387.9,378,484.8,378,484.8
						C360.3,549,410.4,603.9,410.5,604c4,4.4,1.4,25.6,2.5,31.7c4.7,25.9,29,42.3,50.6,53.7c23.7,12.5,52.5,26,79.3,29
						C552.9,719.6,581.7,718.8,586.4,706.3z"/>
				</g>
				<path class="st25" d="M566.8,583.7l-27.9,8.5c0,0,36.5,5,38.7-5.6c0,0-4-21.2-8.6-41.3C569,545.3,571,582.4,566.8,583.7z"/>
				<g>
					<path class="st26" d="M522.3,541c0.3,5.7-2.7,10.5-6.6,10.7c-3.9,0.2-7.3-4.3-7.5-10.1c-0.3-5.8,2.7-10.5,6.6-10.7
						C518.6,530.8,522,535.3,522.3,541z"/>
					<path class="st26" d="M601.2,538.1c0.3,5.8-2.7,10.5-6.6,10.7c-3.9,0.2-7.3-4.3-7.6-10.1c-0.3-5.8,2.7-10.6,6.6-10.8
						C597.6,527.8,601,532.3,601.2,538.1z"/>
					<path class="st26" d="M531.1,522.2c2.5,0.7,3.4-2.6,3.4-2.6c1.1-3.2,0.3-6.1,0.3-6.1c-0.9-2.4-2.8-3.3-2.8-3.3
						c-6.5-1.4-19.3-0.7-30.3,1.7c-6.1,1.3-16.1,5.1-17.1,10.5c-0.3,1.6-0.7,4.5,1.2,5.1C485.7,527.5,506.6,522.7,531.1,522.2z"/>
					<path class="st26" d="M621.5,517c-7.1-0.4-26,2.6-41.6,4.4c-2.4,1-3.7-2.2-3.7-2.2c-1.4-3.1-1.1-6-1.1-6
						c0.5-2.5,2.3-3.6,2.3-3.6c6.2-2.2,23.2-5.9,34.4-4.9c3.4,0.3,8.7,1.9,10.3,5.1C622.3,509.7,623.6,508.9,621.5,517z"/>
				</g>
				<path class="st28" d="M336.6,1362.6c0.3,14.3-21.4,163.9-12.3,165.8c0.1,0,248.2,57.2,380.6,0l0.5-154.2L775.6,945
					c0,0,24.2-64.5-24.2-96.8L567,761.5l12.5,37.4l-26.7,75.9L436.8,761.5L215.1,892.6c12.4,41.1,24.7,82.2,37.1,123.2
					c22.9,75.7,45.1,151.6,68.7,227.1C320.8,1243,340.3,1324.9,336.6,1362.6z"/>
				<polygon class="st78" points="536.7,788.5 535.2,857.6 509.7,832.7 				"/>
				<g>
					<g>
						<path class="st79" d="M569.1,900c0,5.5-4.4,9.9-9.9,9.9c-5.4,0-9.9-4.4-9.9-9.9c0-5.4,4.4-9.8,9.9-9.8
							C564.7,890.1,569.1,894.5,569.1,900z"/>
					</g>
					<g>
						<path class="st79" d="M569.1,1079c0,5.4-4.4,9.8-9.9,9.8c-5.4,0-9.9-4.4-9.9-9.8c0-5.5,4.4-9.9,9.9-9.9
							C564.7,1069.2,569.1,1073.6,569.1,1079z"/>
					</g>
					<g>
						<path class="st79" d="M569.1,1258.1c0,5.5-4.4,9.9-9.9,9.9c-5.4,0-9.9-4.4-9.9-9.9c0-5.4,4.4-9.8,9.9-9.8
							C564.7,1248.2,569.1,1252.7,569.1,1258.1z"/>
					</g>
					<g>
						<path class="st79" d="M569.1,1437.2c0,5.4-4.4,9.9-9.9,9.9c-5.4,0-9.9-4.4-9.9-9.9c0-5.4,4.4-9.9,9.9-9.9
							C564.7,1427.3,569.1,1431.7,569.1,1437.2z"/>
					</g>
				</g>
				<line class="st80" x1="536.7" y1="865.5" x2="536.7" y2="1545.1"/>
				<g>
					<path class="st33" d="M703.3,1542.6c0,0-126.8,59.4-386.2-1.3c-4.3-1-2.5-12.1-2.5-12.1l2.5-25c1.1-8,5.6-7.6,5.6-7.6
						c0.1,0,248.2,57.2,380.6,0c0,0,5.3-0.9,5.6,7.1v31.1C708.9,1534.8,708.9,1541.1,703.3,1542.6z"/>
					<g>
						<path class="st34" d="M574.6,1561.5c0,4-3.1,7.2-7,7.2h-50.5c-3.9,0-7-3.2-7-7.2v-36.4c0-4,3.1-7.2,7-7.2h50.5
							c3.9,0,7,3.2,7,7.2V1561.5z"/>
						<line class="st34" x1="510.1" y1="1541" x2="536.8" y2="1541"/>
					</g>
				</g>
				<path class="st79" d="M536.7,787c0,0-81.4-31.6-100.5-63.1l-24,45.8l85.8,82.3l38.8-63.5"/>
				<path class="st26" d="M650.1,366.3c-10.7,26.2-34.1,34.1-34.1,34.1c2.8,8.8,21.4,15.5,21.4,15.5c-16.5,28.2-53.1,16.9-53.1,16.9
					c-16.5-3-34.9,0.1-50.8,4.6c-23.2,6.6-62.9-4-76.7,20.8c-2.7,4.9-13.6,39.5-0.2,56.7c-28.4,21.8-14.7,65.9-14.7,65.9l-6.9,0.4
					c-39.8-10.3-26.4,64.9-26.4,65c-0.3-1.7-6.9-5.9-8.2-7.2c-7.8-7.5-24.2-34.2-29.3-43.7c-28-51.3-25.4-53.9-32.9-84.2
					c-5.1-20.7-2.9-76.7,27.2-104.9c0,0-9.4-36.9,48.9-59.3c0,0,124.3-31.2,184.5,9.9C598.9,356.8,625.8,370.2,650.1,366.3z"/>
				<g>
					<g>
						<g>
							<g>
								<g>
									<g>
										<path class="st21" d="M425.5,613.5c-3.6,3-8.2,4.9-14.1,5c-16,0.5-30-13.8-31.2-32c-1.2-18.2,10.7-33.3,26.7-33.8
											c7.6-0.2,14.7,2.9,20.2,8.1c8,7.7,9,22.5,7.6,32.8C433.7,601.8,430.8,609,425.5,613.5z"/>
									</g>
								</g>
							</g>
						</g>
					</g>
					<g>
						<g>
							<path class="st25" d="M414.1,569.3c-1.4-9.5-20.3,0.5-17.1,5.8c1.8,3,5.3,5.1,8.1,7.2c3.8,2.8,5.7,5.4,6.4,10.2
								c0.1,0.5,0.3,2.2-0.3,2.6c-2.4,1.9-11-7.1-12.9-9c-3.7-3.7-4.5-10.3-3-15.2c1.6-5.2,4.8-7.7,10.3-7.6c4.3,0,8.8,0.1,8.8,5.5
								C414.4,568.9,414.2,569.8,414.1,569.3L414.1,569.3z"/>
						</g>
						<g>
							<path class="st25" d="M408.4,579.5c1.9-2.1,3.9-0.5,6,0.9c2,1.3,3.1,3.2,3.7,5.5c1.3,4.9,1,11.6-1.7,16
								c-2.1,3.6-5.9,5.9-10.1,6c-5.8,0.1-7.8-5-8.2-9.9c-0.1-1.3-0.4-4.4,0.9-5.3c1.3-0.9,2.4,1.2,3.4,2.1c1.4,1.2,3.3,1.6,5,1.6
								c3.3,0.1,6.5-1.7,8.5-4.3c0.3-0.5,0.6-1,0.8-1.5c0.1,3.2,0,4-0.4,2.2c-0.3-0.8-0.7-1.5-1.2-2.2c-1.4-2.2-3.8-3.6-5.4-5.6
								C409,584,407.5,580.6,408.4,579.5L408.4,579.5z"/>
						</g>
					</g>
				</g>
				<polygon class="st77" points="270.7,1635.3 311,1321.7 215.1,892.6 400,783.3 498.7,1129.8 486.9,1635.3 				"/>
				<path class="st81" d="M400,783.3l98.7,346.5l-0.4,16.5L374,1019.1c0,0-13.1-22.1,4.6-35.1l29.4-28.1l-20.9-15
					c0,0-29.4-14.2-25.8-40.9l8.4-100.3L400,783.3z"/>
				<path class="st77" d="M744.7,1288.6l16.5,346.7h-120l-38.4-514.8l15.7-334.7l112.3,52.8c0,0,63.9,16.9,50.9,83.1L744.7,1288.6z"
					/>
				<path class="st79" d="M605.4,790.5c0,0-7.5-29-44.2-53.4l4.8,99.8C566.1,836.8,586.4,785.8,605.4,790.5z"/>
				<path class="st78" d="M608.8,836.8l-3.3-46.4c-11.2-2.8-21.2,12.9-29.4,25.8L608.8,836.8z"/>
				<path class="st81" d="M618.5,785.7l29,13.6l20.9,96.6c0,0,10.5,25-4.7,31.6l-27.3,15.9l38.5,24.3c0,0,20.3,12.7,7.8,31.4
					l-77.2,150.7l-2.4-25.8L618.5,785.7z"/>
				<g>
					<path class="st47" d="M526.7,619.2l61.8-4c3.2-0.2,5,2.2,3.8,5.3c0,0-12,31.6-32,32.8c-20,1.2-35.8-28.6-35.8-28.6
						C523,622,524.1,619.8,526.7,619.2z"/>
					<path class="st48" d="M582.6,638c-5.5,7.5-13,14.6-22.3,15.2c-9.4,0.6-17.8-5.7-24.1-12.5C547.3,626.8,569,625.8,582.6,638z"/>
					<path class="st28" d="M526.1,619.5c0.2-0.1,0.4-0.2,0.6-0.3l61.8-4c0.6,0,1.2,0.1,1.7,0.2c-1.6,3.7-3.2,7.3-4.8,10.9
						c-9.4,2.4-30.8,6.7-53.6,3.4C530.1,626.2,528.2,622.8,526.1,619.5z"/>
				</g>
				<path class="st26" d="M424.4,628.1l10.8-46.9l6.9-0.4c0,0,6.9,31.1,44.1,36.6c0,0,16.1,2.4,22.9,3.3c0.9,0.1,10.8-9.7,12.1-10.5
					c11-7.2,24.2-9.1,37-10.1c13.1-1,27.1-2.3,39.7,2.5c1.7,0.6,17.7,8.8,18.2,6.5c0,0-17,75.1-28.9,96.6c0,0-5.2,16.5-43.8,12.5
					c0,0-66.3-5.9-117.8-53.9C416.9,657.9,424.4,628.1,424.4,628.1z M597.4,624.8c-1.5-7.8-1.8-12.7-8.5-14
					c-13.2-2.4-27.7-0.2-40.8,1.5c-10.6,1.3-23.8,2.7-28.2,14.4c-3.8,10.2-1,25.2,4.4,34.5c9.1,15.8,38.5,23.9,53.5,13.7
					C590.4,666.2,600.3,639.6,597.4,624.8z"/>
				<g>
					<polygon class="st82" points="528.7,813.5 525.7,807.9 505.3,839.3 522.8,845.6 					"/>
					<path class="st82" d="M576.1,816.3l5.7-8.8c0,0,21.9,18.4-1.1,38.1C580.7,845.6,580.7,829.3,576.1,816.3z"/>
					<path class="st83" d="M528.7,813.5c0,0,17.3,15.4,47.3,2.8c6.6,8.3,6.5,19,4.6,29.3l-15.5,32.1h-21.7l-20.6-32.1
						C522.8,845.6,520.7,838.5,528.7,813.5z"/>
					<polygon class="st82" points="543.5,877.6 525.9,1336.3 562.5,1407.5 592.4,1336.7 565.2,877.6 					"/>
				</g>
			</g>
		</g>
	</g>
</g>
</svg>
