<svg xmlns="http://www.w3.org/2000/svg" viewBox="0 0 367.3 367.3"><defs><style>.cls-1{fill:#fff;}.cls-2{fill:none;}.cls-3,.cls-5{fill:#cc4841;}.cls-3{fill-rule:evenodd;}.cls-4{fill:#50b7e1;}</style></defs><title>Ресурс 2</title><g id="Слой_2" data-name="Слой 2"><g id="Слой_1-2" data-name="Слой 1"><circle class="cls-1" cx="183.65" cy="183.65" r="163.32"/><path class="cls-2" d="M367.3,183.65a183.38,183.38,0,1,0-14,70.29,183.88,183.88,0,0,0,14-70.29H326.64a142.72,142.72,0,1,1-10.86-54.72,143.23,143.23,0,0,1,10.86,54.72Z"/><path class="cls-3" d="M351.34,183.59c-.33.26-.44-.42-.66-.61.12-.9.19-1.94.6-1.85Z"/><path class="cls-3" d="M345.42,103c-1.49-2.77-.93-3.16-2.15-5.61-1.06-2.25-1.36-1.71-2.06-2.66A120.63,120.63,0,0,0,316.66,62c.47,0-.42-.9-1.13-1.66.61-.41,1.69,0,3,.84,10.35,10.6,18.24,21.81,26.05,34C342.49,95,347.16,102.73,345.42,103Z"/><path class="cls-3" d="M231,7c-.87-.6-3.3-1.11-3.06-1.62C229.8,5.89,230.8,6.51,231,7Z"/><path class="cls-3" d="M210.65,42.23a31.3,31.3,0,0,1-4.15-.57c-1.45-.32-2.74-.55-3.09-.94-1.51.09-3,.19-4.65.19a51.87,51.87,0,0,1-5.95-.12,3.26,3.26,0,0,1-1-1c1.35-.2,3.17-.42,5.16-.57l1.52-.11H200c1,0,2.08.06,3.08.13s2,.16,2.85.31a14.82,14.82,0,0,1,2.35.66C209.68,40.7,210.56,41.37,210.65,42.23Z"/><path class="cls-3" d="M96.89,29.15c2.46-1.22-1.77,1.52.24.43-.23.54-3.16,1.9-3,1.33C94.93,30.36,97.16,29.4,96.89,29.15Z"/><path class="cls-3" d="M39.34,77.54c.45.1.42.61-.62,2C38.27,79.42,38.3,78.92,39.34,77.54Z"/><path class="cls-3" d="M10.12,178.59c-.66,3.77.4,3.34-.43,5.73.2,1.72.32,3.57.39,5.49,0,1,.07,1.94.1,2.93s.13,2,.19,3c.13,2,.22,4,.37,5.93s.45,3.79.72,5.51c.14.85.29,1.69.47,2.51s.42,1.63.64,2.44c.46,1.61.93,3.23,1.33,4.95,3.27,13.64,8,28.51,14.18,41.24,3.64,7.28,7.87,14.5,11.29,20.49a20.33,20.33,0,0,1-4.12-4.14,61.54,61.54,0,0,1-4.12-6.44c-.7-1.17-1.31-2.42-1.91-3.68l-1.79-3.76c-.6-1.22-1.12-2.47-1.6-3.67L24.4,253.7c-.44-.81-.85-1.53-1.26-2.16s-.74-1.21-1.09-1.7a262.33,262.33,0,0,1-10.11-31.05,96.11,96.11,0,0,1-2.77-29.36,40.12,40.12,0,0,1-.37-5c-.06-1.65,0-3.35-.15-5.28.09-.56.17-1.14.36-1.27C9.26,177,9.79,178.09,10.12,178.59Z"/><path class="cls-3" d="M32.68,259.53c1.13,1.73,3.21,5.54,2.44,5.72,1.57,1.81,2.31,4.39,4.06,7a121,121,0,0,0,16.71,24.61,204.87,204.87,0,0,0,23.87,23.31c.2,1.11-1.54-.3-2.58-.79-3.4-2.87-6.38-5.32-9.41-7.67-1.47-1.23-2.89-2.5-4.33-3.83-.71-.68-1.44-1.36-2.14-2.1s-1.36-1.55-2-2.39c-1-.91-2.06-1.87-3.08-2.88s-1.93-2.12-2.87-3.23-1.86-2.25-2.76-3.41-1.7-2.4-2.54-3.61-1.62-2.44-2.43-3.64l-2.22-3.69-2.15-3.56c-.67-1.19-1.33-2.35-2-3.46-.38-.94-.9-2-1.52-3.26s-1.23-2.61-2-4-1.54-2.9-2.3-4.43-1.55-3.06-2.35-4.55C31,259,32.05,259.12,32.68,259.53Z"/><path class="cls-3" d="M69.44,307.28l.33-.36c4.13,3.27,7.62,7,11.85,9.77-1.11,0-3.61-1.83-5.17-2.42l-3.89-3.57A19.67,19.67,0,0,1,69.44,307.28Z"/><path class="cls-3" d="M81,321.69c.1-.89,4.84,2.82,5.84,3.75C84.75,324.61,83.19,322.9,81,321.69Z"/><path class="cls-3" d="M201.68,355.56c.76-.69,4.59-2.52,7.4-1.92,1.47-.47,3-1,4.61-1.38s3.31-.74,5.05-1.16a110.9,110.9,0,0,0,11-3c-.39.8,3.43-.39,4.31-.89-.4-.45-2.21,1.08-1.9.21,2.47-.8,4.87-1.71,7.1-2.47,1.11-.4,2.17-.77,3.15-1.15s1.84-.85,2.61-1.27c.26.18-.45.48-.4.68s1.1-.29,1.8-.54c-.08.37-5,2.23-3,1-1,.4-1.17.66-2.3,1,1.14-.27,1,0,1.11.17s.31.27,2.11-.51c-.05.27-1.72.75-1.65,1-1.1.22-1.28-.16-2.06-.15-.84.46-3.07,1.22-4.84,1.89s-3.11,1.11-2.08,1.24c-2.36,1.21-8.24,1.18-10.39,2.61-1.93.38-3.62.8-5.22,1.22s-3.16.75-4.76,1.16A89.55,89.55,0,0,1,201.68,355.56Z"/><path class="cls-3" d="M247.3,341.57c1.23-.35,2.56-.49,1.47.29C247.49,342.34,247.37,342,247.3,341.57Z"/><path class="cls-3" d="M251.15,339.46c1.75-.88,1.67-.28,3-.85C253.53,339.38,251,340,251.15,339.46Z"/><path class="cls-3" d="M259.55,336.79c0-.67,3.19-1.57,4.87-2.86C264.48,334.5,261.32,335.8,259.55,336.79Z"/><path class="cls-3" d="M267.68,332.09a9.66,9.66,0,0,1,2.93-2.43A9.31,9.31,0,0,1,267.68,332.09Z"/><path class="cls-3" d="M323.1,292.66c1.39-1.57,2.45-2.4,3.17-2.48C325.28,290.86,323.69,292.87,323.1,292.66Z"/><path class="cls-3" d="M216.09,327.4c-1.16.14-2.32.37-3.52.47s-2.38.26-3.55.43-2.33.41-3.46.61a28.52,28.52,0,0,0-3.31.74c-1.25.09-2.54.2-3.85.27l-4,.07c-1.36,0-2.72.1-4.11,0l-4.16-.08c-5.55-.08-11.09-.4-16.16-.39-.43-.11-.88-.19-1.33-.27s-.91-.19-1.37-.26c-.92-.16-1.87-.27-2.82-.38l-2.85-.32c-.94-.14-1.86-.35-2.75-.57-8.45-2.15-17-4.3-25.42-6.84a214.1,214.1,0,0,1-24.77-9.11c-1.1-.63-2.21-1.25-3.26-2s-2.36-1.2-3.56-1.78-2.39-1.19-3.58-1.84l-3.66-2c-1.24-.69-2.42-1.53-3.66-2.36A91.39,91.39,0,0,1,76.08,289l-3.44-3.77c-1.11-1.28-2.15-2.62-3.22-3.92l-1.58-1.95-1.47-2c-1-1.33-1.92-2.64-2.86-3.93.17-.2.49-.28-.25-1.19-1.62-2.65-3.25-5.24-4.6-8-.69-1.36-1.41-2.7-2.07-4.06L54.69,256l-1-2.07c-.29-.71-.58-1.41-.88-2.12-.59-1.42-1.19-2.83-1.82-4.24s-1.13-2.9-1.73-4.35c-.31-.72-.61-1.45-.92-2.18l-.87-2.24c-.57-1.46-1.25-2.83-1.88-4.22a19.4,19.4,0,0,1-1.28-4.36c-.39-.73-.78-1.52-1.17-2.35s-.71-1.72-1.07-2.62c-.67-1.82-1.44-3.7-2-5.59-.31-1.83-.74-3.92-1.25-6.11S38,209,37.43,206.74s-.86-4.56-1.36-6.63c-.26-1-.45-2-.65-2.94s-.41-1.78-.63-2.55a27.54,27.54,0,0,0-.1-3.17c0-1-.1-2.07-.2-3.09s-.19-2.06-.29-3.11c0-.52-.09-1.05-.13-1.59s0-1.08,0-1.63c0-3.06,0-6.26.31-9.52.13-1.63.18-3.3.37-5s.41-3.35.61-5.06a141.78,141.78,0,0,1,4.35-20.63l.71-2.57c.27-.85.57-1.69.85-2.54.57-1.69,1.1-3.38,1.71-5.05,1.3-3.3,2.5-6.61,4-9.74s3-6.21,4.45-9.2c.76-1.48,1.62-2.89,2.4-4.31s1.55-2.81,2.42-4.12a41.39,41.39,0,0,1,3.08-5.9c1.19-1.34,2.52-3,3.92-4.94s3-3.88,4.57-5.92,3.16-4,4.65-5.88,2.91-3.53,4-5a50.31,50.31,0,0,0,6-5.06l3.53-3c.6-.51,1.2-1,1.82-1.51s1.27-.91,1.91-1.34c3.93-2.79,8-4.43,10.51-7.13,4.6-2.78,9.25-5.78,14.31-8.39l3.83-1.95c1.31-.6,2.65-1.16,4-1.73a66.42,66.42,0,0,1,8.39-2.91,35.54,35.54,0,0,1,3.56-.87l3.61-.76c1.2-.28,2.42-.47,3.65-.67s2.45-.43,3.68-.68a164.78,164.78,0,0,1,19.64-4.16c.06-.19-.15-.44.48-.54,1-.05,2.16-.26,3.41-.45s2.59-.4,4-.62a39.41,39.41,0,0,1,4.23-.53,30.48,30.48,0,0,1,4.17,0c1.06-.15,2.12-.38,3.17-.49l3.19-.4,3.29-.4c1.12-.14,2.27-.15,3.47-.22a57.42,57.42,0,0,1,7.82.09c1.43.12,2.93.26,4.51.45s3.23.57,5,.93a20.74,20.74,0,0,1,2.46-.1c.9,0,1.87.16,2.9.29s2.11.31,3.23.51l1.71.31,1.72.42,3.49.9c1.17.3,2.34.58,3.45.95,2.24.7,4.41,1.3,6.31,1.8,2.74,1.27,6.43,2.73,9.72,4.59a38.06,38.06,0,0,1,7.94,5.26c1.68.92,3.19,2,4.87,3,.83.52,1.7,1.05,2.63,1.59s1.86,1.19,2.9,1.82a29.72,29.72,0,0,0,2.92,2.63,12.61,12.61,0,0,1,3,1.53c1.5,1.41,3.32,2.89,5.19,4.6.95.84,1.95,1.68,3,2.53s2,1.8,3,2.7l3.14,2.71c1,.94,2,1.87,3.05,2.78,2.07,1.77,3.94,3.64,5.76,5.27a5.57,5.57,0,0,0,1.5,1.93A5.78,5.78,0,0,1,297,84.51a138.15,138.15,0,0,1,16.22,19.56,81.44,81.44,0,0,1,11,23.21,35.73,35.73,0,0,0-.6,5.36c-.22,1.77-.53,3.32-1.41,4.09.09,1.4.83,3.59.42,4.35-.55-.09-.4.91-.64,1.3.63,4.77,1.46,13.78,3.43,18.67,1.94,2.27,3.87,5.3,5,.86,1.7.06,3.31-1.75,4.77-1.93s2.89,1.29,4.12,8.15c1.64,2,2.77,4.38,4.76,3.08.33-1.79.87-3.18,1.27-4.8a28.6,28.6,0,0,0,.79-6.2c.44,1.07.41,0,.79-.12-.06-1.28-.38-2.85-.56-4.15s-.23-2.33.11-2.53c1,6.35,2.2,7,3.07,11.87a10.47,10.47,0,0,0,1.57,2.75,5.52,5.52,0,0,0,1.55,1.22,5,5,0,0,1,2.81,3,15.08,15.08,0,0,0,.06,3.78c1.11,1,1.37-1.39,2.15,1.82.6-1.16.54-2.82.41-5.13.79-1,1.2-3.18,1.44-5.82s.11-5.75.16-8.63c-.22-2.1-.63-4.09-.88-6s-.49-3.8-.82-5.6-.59-3.55-.87-5.27l-.42-2.55-.51-2.49c-.35-1.65-.69-3.28-1-4.91s-.84-3.23-1.28-4.85-1-3.24-1.51-4.88-1.27-3.27-2-4.94c.39-.37.08-1.8-.54-3.44a32.66,32.66,0,0,0-2.4-4.63c-.14-1.27,1-1,.21-3-1.16-1.48-.36.84-.74,1.09-.63-1-1.71-2.77-2.64-4.48a22.31,22.31,0,0,1-2-4.31,75.74,75.74,0,0,1-4.94-7.31,77,77,0,0,0-5.77-7.75,22.18,22.18,0,0,0-1.66-3.71,36.3,36.3,0,0,0-3.22-4.93c-.5.28-1.39-.3-2.23-.76-1.06-1.16-2-2.27-2.93-3.35s-1.82-2.05-2.65-3c-1.67-2-3.12-3.89-4.72-5.67-.78-.9-1.56-1.81-2.36-2.72s-1.61-1.84-2.54-2.71A66.87,66.87,0,0,0,303,50.54a53.84,53.84,0,0,0-4.35-4.33c-1.74-1.61-3.85-3.16-5.94-4.83-.59-.6-1.19-1.24-1.84-1.85l-2.05-1.82c-1.42-1.23-2.91-2.5-4.5-3.76a108,108,0,0,0-10.6-7.1,118.68,118.68,0,0,0-11.87-6.13,115,115,0,0,0-12.23-4.47,16.13,16.13,0,0,0-3.38-2.18A36.14,36.14,0,0,0,242,12.42L237.42,11c-1.53-.41-3-.84-4.4-1.33-2.18-.78-4.34-1.63-6.55-2.32s-4.42-1.47-6.67-2.1-4.55-1.09-6.86-1.52a29.3,29.3,0,0,0-3.51-.46c-1.18-.11-2.36-.18-3.56-.21s-.42.39-1.37.31-1.76-.27-2.68-.35L199,2.77c-2-.13-4-.24-6.05-.34h-6.23l-3.07,0-3,.09c-5.59,0-11-.16-16.59.68a71.64,71.64,0,0,0-8.45,1.92,32.75,32.75,0,0,0-6.23,2.74c-.61.11-1.23.23-1.86.4s-1.24.4-1.86.62c-1.25.45-2.5,1-3.76,1.42a32.83,32.83,0,0,1-7.57,2.19c-.88.45-.55.85-2.32,1.33a6.58,6.58,0,0,1-2,.27c.24.55.83.2.29.92,3.39-1.36,5.08-1.72,7.9-3.12.86-.2,1.25-.12,2.57-.49,3.33-1.27,6.95-2.75,11-3.88l3.07-.91,1.58-.44L158,5.77q3.28-.73,6.81-1.4c2.27-.36,4.58-.57,6.86-.77s4.54-.27,6.7-.32l6.18-.21a47.52,47.52,0,0,0,5.34-.34c1.51.1.85.67,1.95.86a18.8,18.8,0,0,1,5,.19c1.69.23,3.45.48,5.5.58,2.87.21,5.39-.25,8.67.12s5.95,1.16,8.72,1.84,5.6,1.62,9.34,2.53a29,29,0,0,0,6.18,2.51c2.25.69,4.1,1.51,4.16,2.07a8.25,8.25,0,0,1-2.94-1,8.35,8.35,0,0,0-3.34-.91,10,10,0,0,1,3,1.52,54.17,54.17,0,0,0-8.38-.2,44.91,44.91,0,0,1-9.51-.35c-3.39-.65-6.32-1.18-8.94-1.41s-4.91-.24-7-.21a140.38,140.38,0,0,0-37.59-.4,146.91,146.91,0,0,0-36.3,9.23c-1.31.33-2.57.66-3.82,1s-2.43.83-3.66,1.29A63.79,63.79,0,0,0,113,25.54a25,25,0,0,0-7,2.4,73.44,73.44,0,0,0-8.16,4.57l-4,2.55-3.72,2.53c-1.18.78-2.3,1.5-3.34,2.11A28.26,28.26,0,0,1,84,41.27c-.85,1.64-3.59,3.71-6.32,5.82-1.38,1-2.82,2-4.11,2.8a32.89,32.89,0,0,1-3.14,1.93c-.12.84-1.21,2-2.6,3.2s-3,2.51-4.25,3.45c-.18-.16,1.59-2.22-.34-.35-.94.84-.76,1-1.15,1.56-.54.27-1.14.61-1.68.9a3.39,3.39,0,0,1-1.38.55c-1.73,1.64-1.7,2.18-3.42,3.82a5.33,5.33,0,0,1,1.18-2.41c2.23-2.65,2.92-2.66,4.39-3.79-.34-.23-1.24.49,0-.9,1.32.13,2.82-3,4.63-3.52a7.49,7.49,0,0,0-1.64,2c1.69-1.87,3.86-3.94,5.41-5.5-.52.45-1.29,1-.59.3A121.48,121.48,0,0,0,45.6,73.85a163.43,163.43,0,0,0-17.38,27.41A31.26,31.26,0,0,0,25,106.15c-1.25,3-2.25,5.63-2.93,7.72a12.13,12.13,0,0,0-.6,2.82,4.65,4.65,0,0,0,.24,2.08c2.89-7.16,5-13,11.27-23.68,1.62-2,3.23-3.37,4.31-3.35L33.6,98.26c-.63,1.08-1.27,2.17-1.92,3.26l-1.81,3.32c-.6,1.11-1.21,2.22-1.81,3.31s-1.09,2.24-1.62,3.36a59,59,0,0,0-2.77,6.68c-.43,1.28-.42,1.88-.86,3.07-1.45,3.64-2.33,6.44-3.31,8.89s-1.69,4.65-2.54,7.18c-3.15,9.86-4.79,20.89-5.94,31.14-.22,2.25-1.19,4.46-.66,6.95.36-2.79.78-5.71,1-8.45s.68-5.28.77-7.32l.49-2.32.63-2.6c.42-1.82.85-3.78,1.27-5.79s1-4,1.52-5.95c.25-1,.46-1.94.73-2.85l.78-2.64c.63-1.62,1.21-3.19,1.76-4.74s1.2-3,1.75-4.51,1-3,1.65-4.43l1.76-4.42.89-2.25c.3-.76.66-1.5,1-2.26l2.12-4.69c.73-1.62,1.64-3.21,2.53-4.91s1.83-3.45,3-5.21c1.17-.32,2-2.14,3.51-4.49.7.65,2.13-.89,3.89-3.43.73-1.59-1.13.55-.33-1,1.2-1.34,2.36-2.58,3.11-2.4a29.48,29.48,0,0,1-2.5,3.54c.95-.06,2.9-3.29,3.7-2.72-1.61,2.59-3,5.19-4.43,7.74s-2.56,5.17-3.75,7.75-2.33,5.17-3.45,7.8c-.56,1.32-1.13,2.64-1.73,4s-1.23,2.64-1.81,4c-1,1.3-1.88,1.8-2.91,3.44.16,1.43,2.13-2.53,3-2.75-.41,1.75-1.16,3.87-1.77,6a47,47,0,0,0-1.3,5.75c-.44.6-.9.26-1.35,2.1-3.66,10.76-4.15,18.53-5,27.27-.14,1.67-.36,3.3-.47,4.94l-.33,4.87-.19,2.42c-.06.81-.06,1.62-.1,2.43-.05,1.62-.11,3.24-.16,4.87s0,3.29,0,5,.07,3.35.14,5.06.32,3.45.48,5.22c.09.88.18,1.78.28,2.68s.29,1.8.44,2.72-.8,0-.42,1.87c.13,1.1.26,2.27.39,3.48s.41,2.42.61,3.67c.45,2.49.83,5,1.36,7.44s.8,4.73,1.11,6.75a17.84,17.84,0,0,1,.14,5.14,32.48,32.48,0,0,1,1.06,4c.18,1,.27,1.93.58,3.15.51,1,.94,2,1.52,3.35-.07,1.45,1.76,5.18,2.9,8.07a42.74,42.74,0,0,1,1.52,4.66c.22.76.42,1.55.69,2.32s.59,1.57.95,2.4a38.05,38.05,0,0,0,6,10c1,1.45,2.39,3.19,3.66,4.79a15.15,15.15,0,0,0,3.63,3.62,21.49,21.49,0,0,1-1-3c-1.32-1.5-2.86-3-4.42-4.82a44.7,44.7,0,0,1-4.34-6.25c-1.56-3.09-1.68-5.45-3.59-8.47l.44-.21q-1.55-3.13-2.74-6c-.77-1.91-1.34-3.79-1.9-5.57l-.77-2.64c-.22-.87-.4-1.74-.58-2.6-.35-1.71-.68-3.38-1-5.05-1-6.75-2-13.31-3.64-22a56.59,56.59,0,0,1,.22-6.72,43.64,43.64,0,0,1,.73-5.94,25.27,25.27,0,0,0,.45,3.93c.21,1.13.43,2.12.66,3.11s.44,2,.68,3.05.52,2.3.75,3.76c1.15,3.58,2.47,7.42,3.59,11.5.67,2,1.3,4.08,1.92,6.19s1.41,4.19,2.09,6.33a123.14,123.14,0,0,0,10.93,24.17,71.73,71.73,0,0,0,4.41,7.94q1.19,1.86,2.4,3.67c.84,1.19,1.74,2.32,2.61,3.47s1.73,2.31,2.66,3.41l2.83,3.31c1.84,2.26,3.94,4.36,5.94,6.67.2,1,1.39,2.45,2.83,4.1l2.26,2.53c.77.85,1.59,1.63,2.27,2.39.93.74.69-.48,2.13,1.13,6.35,6,5.25,8.31,10,12.7A15.85,15.85,0,0,0,87.23,313c.72.45,1.49.92,2.12,1.37.89.65,2.16,1.67,3.39,2.65A37.48,37.48,0,0,0,96,319.34c1.39.82,2.78,1.6,4.18,2.32l4.34,2c2.87,1.4,5.94,2.52,9,4.15a167.66,167.66,0,0,0,30.2,11.44c2.12.76,4.57,1.45,7.23,2.12s5.55,1.05,8.51,1.52l4.51.54c1.51.17,3,.43,4.54.53s3,.28,4.52.46l2.21.27,2.18.21c1.13-.1,2.34-.16,3.62-.19s2.61,0,4-.09l4.23-.13c1.44,0,2.89-.05,4.34-.19l4.29-.35,2.09-.21c.69-.1,1.36-.22,2-.34a36.45,36.45,0,0,0,7-1.82c1.51-.32.55.53,2.39.06,1.21-.42,2.48-.77,3.74-1.1s2.49-.73,3.68-1.08c2.36-.75,4.52-1.42,5.9-2.55a11.91,11.91,0,0,1,2.84-.64l2.71-1.1c.91-.36,1.79-.81,2.68-1.22,1.78-.85,3.59-1.65,5.38-2.55l5.37-2.82c1.81-.94,3.58-2,5.42-3.05,7.27-4.19,14.81-8.85,23.08-14.19l4.52-1.72c1.5-.56,2.93-1.23,4.42-1.85s3-1.26,4.48-2,3-1.56,4.56-2.42c1.43-.54,2.76-1.15,4.15-1.79s2.8-1.32,4.3-2.13a50.81,50.81,0,0,0,4.6-3c.81-.6,1.66-1.25,2.53-2s1.71-1.55,2.61-2.43c.8-1.11,1.54-2.19,2.23-3.25s1.24-2.16,1.8-3.2a48.52,48.52,0,0,0,2.76-5.95c.73-1.9,1.34-3.67,1.86-5.31s.86-3.22,1.24-4.63a10.58,10.58,0,0,0,1.69-6.47l1.38-3,.67-1.45.6-1.46,2.36-5.69c.7-1.92,1.42-3.83,2.18-5.79.39-1,.73-2,1.08-3l1.08-3.15c.8-2.13,1.44-4.2,2.17-6.15.35-1,.72-1.92,1.09-2.86s.68-1.86,1-2.77c.67-1.82,1.4-3.57,2.08-5.32s1.28-3.48,1.92-5.21c2.41-6.93,4.66-14.08,4.92-23.12a9.9,9.9,0,0,0,.66-2.31c-1-1.13.95-7.18-.6-8.2a34.1,34.1,0,0,0-1.42,6.61c-.14,1.35-.38,2.76-.55,4.18s-.3,2.84-.37,4.19c-1,1.72-1,4.94-1.6,7.93a31.89,31.89,0,0,1-1.76,5.16c-.67,1.61-1.26,3.14-1.82,4.64a15.66,15.66,0,0,0-.35,2.24c-.4,1.21-.87,2.28-1.35,3.45a31.37,31.37,0,0,0-1.57,4c-1,3.58-1.85,5.86-2.49,8.11S328,238.53,327,241.7c-4.26,12.92-11.23,24.79-11.08,30.51a14.45,14.45,0,0,0-2.41,5.54c-.19.85-.34,1.7-.58,2.57a14,14,0,0,1-1.12,2.73c-3.56,4.85-2.45,4.18-6.46,8.56a41.77,41.77,0,0,1-3.92,2.21c-1.3.67-2.57,1.3-3.83,1.9s-2.55,1.14-3.82,1.69L289.91,299c-2.59,1.1-5.32,2.13-8.12,3.47-1.44.61-2.93,1.25-4.46,2-.77.36-1.55.74-2.34,1.15l-2.49,1.16c-1.39,1.06-2.76,2.11-4.05,2.94a15.28,15.28,0,0,1-3.58,1.65c1.49-1.32,3.24-2.65,5.06-4.19s3.89-3,5.93-4.75l3.18-2.56,3.21-2.76c1.07-.95,2.22-1.84,3.26-2.86l3.21-3c8.59-8,16-17.62,19.59-25.46a5.5,5.5,0,0,0-1.12,1,11.93,11.93,0,0,0-1,1.29c-.64.92-1.23,1.94-1.89,2.87-.46.64-.91,1.3-1.39,1.93l-1.49,1.88c-1,1.26-2,2.56-3.06,3.83-2.2,2.47-4.34,5.09-6.8,7.53s-5,4.94-7.56,7.45-5.43,4.89-8.4,7.2c-.87.7-1.72,1.42-2.56,2.15l-2.58,2.1c-1.71,1.41-3.38,2.89-5.19,4.22s-3.59,2.8-5.59,4a53.13,53.13,0,0,1-6.3,3.62c-1.31.63-2.57,1.21-3.81,1.76s-2.49,1-3.75,1.48-2.54,1-3.88,1.55-2.8,1-4.34,1.66c-.31-.15-1.65.5-1.25-.2-.44.2-.88.38-1.33.55s-.9.28-1.34.41c-.9.25-1.8.47-2.68.66a49.76,49.76,0,0,1-5.26.88,44.54,44.54,0,0,0-5.08.89,21.38,21.38,0,0,0-4.95,1.57C215.93,327.76,217.22,327.47,216.09,327.4ZM341.64,159.66c-.06-.73.24-.63.32,0,.19-.12,0-1.07-.13-1.76.37.1.52,2.13.84,2.25a16.74,16.74,0,0,0,.06-3.59C344,159.67,342.46,162.08,341.64,159.66Zm-5.28-37.94c.61-.55,1.74,1.11,2.79,3.14.26.51.52,1,.76,1.57s.42,1.06.6,1.55c.36,1,.63,1.83.74,2.29.45,1.86.77,5.12-.41,3.33a25.92,25.92,0,0,1-1.93-5.54A28.6,28.6,0,0,0,336.36,121.72Zm-9-14.33c-.25.35-.6.21-1-.15a41.75,41.75,0,0,0-2.86-6.29l-.84-1.7c-.28-.54-.55-1.07-.77-1.56a8.2,8.2,0,0,1-.82-2.55A51.59,51.59,0,0,1,324.2,101c.41.87.83,1.76,1.34,2.78S326.69,105.93,327.37,107.39Zm-7.82-17.75c-.1.61-1-.79-1.23-.62-.2-.83-1.21-2.35-1.09-2.93C318.55,87.73,318.38,88.13,319.55,89.64Zm-4.2.76a95.6,95.6,0,0,0-13.13-17.62c-1.17-1.18-2.38-2.31-3.59-3.39s-2.52-2-3.73-3-2.36-2-3.51-2.83a34.41,34.41,0,0,1-3.13-2.79c5.25,3,11.86,9.63,16.15,12.42.94,1.13,1.84,2.4,2.79,3.64s1.91,2.49,2.79,3.74a53.88,53.88,0,0,0,5.07,6.34C314.75,87.76,316.27,90.08,315.35,90.4Zm.82-5.79-.39.29c-1.67-1.89-4.68-5.3-4.11-6A30,30,0,0,1,316.17,84.61Zm-4.5-6.51c-.42-.26-.71-.26-.9,0C309,76.09,310.07,75.91,311.67,78.1Zm2.08-2.52c-.09-.94-1.93-2.34-2.72-3.39a23.43,23.43,0,0,1-1.75-2.8,17.23,17.23,0,0,0-1.71-2.45A25.82,25.82,0,0,0,304,63.62a36.23,36.23,0,0,1-4.37-3.7c-1.17-1.09-1.13-.25-1.9-.69a211.67,211.67,0,0,0-28.23-19.62,242.57,242.57,0,0,0-33.3-16.23c.77-.59,3-.1,5,.23s3.79.62,3.77-.71q2.64.93,5.1,1.86c1.64.65,3.19,1.38,4.71,2.06s3,1.34,4.44,2.11l4.19,2.19C268.92,34,274,37,279.63,39.71c1.82,1.18,3.45,2.46,5.09,3.69l2.41,1.87,2.34,2c1.54,1.38,3.2,2.69,4.82,4.23s3.37,3.1,5.27,4.79,3.75,3.63,5.5,5.39,3.23,3.64,4.56,5.32a25.83,25.83,0,0,1,3.07,4.79A8.38,8.38,0,0,1,313.75,75.58Zm-29-33.26c-1.72-1.17-1.22-1.48-2.23-2.37-1.72-1.21-3-2.06-4.07-2.93s-2-1.65-3.09-2.52a54.58,54.58,0,0,0-5.24-3.12L267,29.68l-3.29-1.6c-4.31-2.21-8.5-4-10.34-5.59,3.55,2,6.59,1.54,10.26,4a36.46,36.46,0,0,1,4.72.94,42,42,0,0,1,5.07,2q1.35.63,2.85,1.41c1,.56,2,1.19,3.05,1.88a68,68,0,0,1,7.09,5.12,40.83,40.83,0,0,1,3.14,2.92c1,1,1.95,2.11,3,3,3.88,3.38,8.16,6.44,9.54,8.81-1.4.27-4.49-2-7.88-4.5-1.73-1.19-3.52-2.45-5.14-3.51A19.07,19.07,0,0,0,284.78,42.32Zm2,17.43c-1.3-.53-1.84-1.35-3.9-2.7C283.53,56.6,285.74,58.77,286.82,59.75ZM207.3,25.29c-2-.23-3.9-.44-5.84-.63L200,24.52l-1.47-.07-2.95-.13c-4-.28-8-.2-12.27-.45-2,0-3.74-.08-5.42-.17l-2.48-.15-2.47,0c-1.66,0-3.4,0-5.36.07s-4.1.4-6.61.76a19.65,19.65,0,0,0-2.05.39l-2,.6c-1.36.42-2.92.89-5.12,1.36-2.46.61-4.89,1.09-7.13,1.6a18.48,18.48,0,0,0-5.79,2.28,81.35,81.35,0,0,0-8,2.15,27.25,27.25,0,0,0-6.87,3.17c.44-.85,2.17-2.2,4.3-3.63s4.75-2.77,6.77-4a165.4,165.4,0,0,1,37-6.8,109.35,109.35,0,0,1,35.26,3.29ZM95.88,51.1c0,.26-1.43,1-1.28,1.23A45.42,45.42,0,0,0,88,57c-1.87,1.66-3.55,3.23-5.24,4.66s-3.48,2.44-5.59,4.2c-2.71,2.47-5.58,6.35-7.34,6.66a41.48,41.48,0,0,1-4.29,5,36,36,0,0,0-4.2,5.39c-.52-.64,2.8-5.44-.2-3.22-.77,1.4-.21,1.84-.78,3.17-2.23,2.89-4,4.6-4.88,4.37a53,53,0,0,1,7.08-10.27,66,66,0,0,1,5.09-5.49,40.49,40.49,0,0,1,4.57-4C74.93,64,78,62,81.53,59.29c0-.44-.85.3-1.56.9a14.43,14.43,0,0,1,3.2-2.66c1.19-.77,2.45-1.46,3.72-2.15a42.21,42.21,0,0,0,7.56-4.32C95.35,50.6,94.84,51.72,95.88,51.1Zm-40.83,38c-.78.93-1.37,1.34-2.09,2.1-.23-.48.12-1.43,1-2.87C55.24,87.2,55.17,88.14,55.05,89.11ZM46,118.28a135.6,135.6,0,0,0-7.91,22.6c-.34,1.34-.71,2.72-1.1,4.15s-.67,2.91-1,4.41-.75,3-1,4.58l-.84,4.71c-.32,1.56-.5,3.16-.68,4.73s-.34,3.15-.51,4.69-.14,3.07-.17,4.55a41.36,41.36,0,0,0,0,4.32c-.12,1-.25,2.39-.37,3.9,0,.76-.1,1.55-.16,2.35s0,1.63,0,2.44c.07,3.25.29,6.38,1,7.92.1,2.1.2,4.21.5,6.26s.69,4.09,1.07,6.09c1,4,1.91,7.8,3.06,11.42.23,1.26.48,2.53.77,3.81s.73,2.54,1.09,3.82.73,2.59,1.21,3.86l1.41,3.86c.87,2.62,2.06,5.16,3,7.79.48,1.33,1.08,2.61,1.61,3.93s1,2.64,1.54,4c1,2.37,1.23,4.42,2.26,6.89,1,2.09,2.56,4.43,3.72,6.8,1.81,3.31,3.06,6.87,5.09,10,.45.72,1,1.51,1.63,2.29s1.24,1.51,1.69,2.2c.62.92.7,1.74,1.23,2.6.41.67.87,1.36,1.37,2l1.6,1.95a26.86,26.86,0,0,1,2.71,3.73c1.67,1.61,3.29,3.19,4.88,4.79s3.32,3.06,5,4.65,3.56,3,5.45,4.66c.93.82,2,1.56,3,2.35l3.24,2.39c-2.2-1.19-4.53-2.43-6.54-3.41s-3.72-1.63-4.91-1.41l-1.62-1.37-1.54-1.42-3-2.82c-1-.91-1.94-1.94-2.89-2.94s-1.87-2-2.79-3.1c-1.28-1.56-2-2.69-3.1-4-.52-.66-1.1-1.37-1.83-2.22s-1.52-1.93-2.57-3.21-2-2.2-2.88-3.31-1.81-2.19-2.63-3.31a139.07,139.07,0,0,1-11-19.44c-1.48-2.73-2.79-5.54-4.08-8.17A36.66,36.66,0,0,1,37.32,238c-1-2.3-1.77-4.82-2.63-7.37s-1.42-5.25-2.16-7.84-1.2-5.22-1.89-7.66a55.73,55.73,0,0,0-1.93-6.83c-.38-7.1-2.07-14.49-2.16-20.6.36-1.43.67-3,1.06-4.65s.81-3.45,1.13-5.37.71-4,1-6.17c.14-1.1.26-2.24.34-3.42s.27-2.38.35-3.64c.54-8.13-.92-13.34-.24-19.86A19.53,19.53,0,0,0,31.6,140a28.54,28.54,0,0,1,1.16-4.89,89.56,89.56,0,0,1,3.65-8.45c.73-1.51,1.41-3.11,2.15-4.8s1.54-3.44,2.24-5.37c1.05,1.74,2.2,2.26,2.63,4.35C44.24,120.31,45.31,118,46,118.28ZM94.62,308.06c.36-.21,1.07,0,1.11-.6a11.9,11.9,0,0,0,3.78,2.64c1.43.65,2.88,1.16,4,1.63a58,58,0,0,0,5.16,2.83c1.67.85,3.28,1.68,5,2.36l5,2.19c1.74.66,3.52,1.37,5.38,2.16,1.45.92,2.4,1.6,3.77,2.42l3.9,1.61,3.94,1.44c1.31.45,2.59,1,3.9,1.37l3.86,1.17a83.56,83.56,0,0,0,8.49,1.94c1.41.32,2.84.47,4.24.69s2.76.44,4.08.69c1.48.23,3,.47,4.44.77s2.92.65,4.36.83,2.87.35,4.25.42a16,16,0,0,0,4-.21c3,.17,6.55.65,10,.68,1.74,0,3.46.14,5,0a40.9,40.9,0,0,0,4.34-.49c2.54.32,5.89-.08,9.45-.38,1.78-.18,3.59-.5,5.38-.71l2.66-.32,2.54-.34c1.55-.44,3-.88,4.43-1.33s2.74-1,4-1.52,2.57-1,3.81-1.52l3.69-1.66c5-2.12,9.94-4.44,16.67-6.76a31.06,31.06,0,0,1-3.53,2.1c-1.31.66-2.65,1.4-4,2s-2.68,1.16-3.85,1.74a23.52,23.52,0,0,0-2.94,1.75,34.43,34.43,0,0,0-3.71,1.29l-3.41,1.47c-2.19.93-4.18,1.92-5.94,2.6-3.07,1-7.06,2.05-10.38,2.88a60.49,60.49,0,0,1-12.8,2.95c-2.61.2-5.08.41-8,.57-6.07.27-12.82-.71-17.66-1-1.32-.08-2.7.14-4,0a34.76,34.76,0,0,1-4.92-1c-1.7-.43-3.46-.76-5.13-1.09-.51-.1-2.3-.06-2.85-.18a23.47,23.47,0,0,1-2.48-.76l-1.22-.42c-.4-.15-.79-.29-1.18-.41-1.31-.4-2.67-.8-4.09-1.19l-2.16-.59-2.19-.69-4.57-1.39c-1.55-.49-3.1-1.07-4.69-1.6-3.19-1-6.33-2.4-9.52-3.63-1.57-.67-3.12-1.41-4.66-2.12l-2.31-1.07c-.76-.38-1.49-.79-2.23-1.18-2.4-1.29-4.47-2.65-6.8-4-1.56-.89-3.49-1.53-5-2.57s-2.84-2.2-4.18-3.3A27.25,27.25,0,0,0,94.62,308.06Zm123.8,19.79c1.45-.32,1-.5,2.12-.48C221.12,327.87,218.15,328.55,218.42,327.85Z"/><path class="cls-3" d="M115.14,20.71c1.22-.58,1.82-1.08,2.84-1.64a40.36,40.36,0,0,0,5.68-2.17c2.1-.82,4.15-1.57,5.41-1.51L123,17.59l-5.6,2.26c-.92.38-1.84.72-2.74,1.11l-2.71,1.22c-1.81.84-3.69,1.62-5.6,2.56C107.27,23.54,114.9,20.43,115.14,20.71Z"/><path class="cls-3" d="M100.3,27.26c2.09-1,1.9-1.51,3.83-2.5-.53.87-3.13,2.23-3.52,3.07C99.1,28.56,101.27,27.18,100.3,27.26Z"/><path class="cls-3" d="M245,344.22a45.22,45.22,0,0,1,6.44-3.22,65.21,65.21,0,0,0,7-3.64,34.91,34.91,0,0,1-6.34,3.6c-.6.29-1.2.59-1.81.86l-1.84.79C247.23,343.13,246.05,343.67,245,344.22Z"/><path class="cls-4" d="M140.66,80.23q3.87,0,21.38,23.92l-23.55,57.53q.06,5.76,21.49,34.56l0,3.12-8.64,36.24-21,28.86-3,0q-20.87-22.94-26-37.39l-3,0q-12,14.64-26.7,44.06l-7.5.07q-23-24.64-23.06-28.53-.19-19.64,22.13-62.14L40.14,146.17q3.47-28,20.72-53l7.3-7.58,4.63,0q7.56,4.92,29,34.35,9-3.84,26.83-30.54Q137.65,80.26,140.66,80.23ZM99.23,163.71h-1.5q-12.26-12-27.53-37.49l-7.52-1.43L50.75,144.56l24.54,39,.11,10.51-23.69,44,0,3q.07,8.13,15.33,19.48,6.32-5.82,28.18-45.57l3,0q4,.09,21.45,30.05l9.1,8.92q16.42-19.68,16.35-27.31l-24.52-37.53-3.08-7.47L141.23,136q-8.17-16.42-13.8-16.37-5.13,0-11.78,22.76Q101.61,163.69,99.23,163.71ZM71.44,100.57l-3,13.67,24.61,34.39q3.51,0,4.4-10.55H99q-4.62-11.72-23-37.54Zm58,73.46-2.91,9L145,214.53l4.5-.05,1.55-7.65-.12-12Q140.79,178.29,134.11,174Zm11.3-81.67-7.3,19.71q.06,5.88,10.64,13.4l8.93-19.73Q153,98.36,140.78,92.36Z"/><path class="cls-5" d="M156.25,154.62Q171,156.56,171,159.2c1.31,1,2,2.73,2,5.3l1,1.72q.06,5.59-7.32,15.71c-3.25,1.74-4.88,2.84-4.87,3.28,0,2.71-1.9,5.87-5.79,9.49l-2.57.32q-5.56-.48-5.58-2.29l-.7-5,.31-1.47.15-16.78q1.13-11.51,3.46-11.53A5.28,5.28,0,0,1,156.25,154.62Zm-7,15.7.33,1.17-.31.89.34,1.17-.52,13,.33.85-.31,1.8,0,1.17q0,2.94,4.28,2.9h.3c1.52,0,2.24-3.07,2.18-9.16q7-1.47,9.46-3.33c2.57-2.6,3.84-6.14,3.79-10.65-1.43-4.71-2.87-7.05-4.33-7q0-1.28-12.37-1.93Q149.81,161.18,149.26,170.32Zm2.81-11.22v.29q15.36,1.4,15.39,4a10.11,10.11,0,0,1,3,7.05v.29h.29c.67,0,1.1-1.38,1.29-4.13q-.07-7.91-7.93-9.35l-4.88-.83-.33.27-1.63-.25H156C154.81,156.43,153.51,157.32,152.07,159.1Zm6.61,7.28q5.2-.06,5.26,5.85v.59q-.63,5.91-5.8,6l-1.3,0-.65-.59q.75-10.74,1.5-11.82Zm-.79,18.87-.6,4.44h1l1.27-3.56-.34-.88ZM159,167.87l-.61,4.12,0,1.77h.65c.34-1.38.66-2.06.95-2.07l-.33-.29,0-2.94Zm.41,8.81h.65l1.29-1.16v-.91H161C160,175.23,159.43,175.92,159.43,176.68Z"/><path class="cls-5" d="M189.74,154.33l1.66.28,6.3-.07q2.66,0,2.7,4.17l0,1.79-1.6,6c1.76,0,2.65,1.57,2.68,4.76l0,2.38-1.25,4.82c1.75,0,2.64,1,2.66,3l0,3.88q-2.07,9.31-5.2,9.35l-3.63,0-3-.29-3.31.35-5.94.06q-1.66-.51-1.75-9c-.33,0-.56-1.09-.68-3.28h.29l-.3-.32-.05-5.66.29-.33-.68-3,.33-2.68-.45-8.68q1.53-6.58,2.92-6.6l1.33-.33,2.63,0C188.43,154.93,189.75,154.72,189.74,154.33ZM181,164.9l.34,4.19-.28,1.18.37,7.79.06,6c.87,6,1.57,9,2.1,9l13.57-.14c.32,0,.64-.4,1-1.19l-.36-3.31,0-1.49-.33-.27v-.32l-5.64.38-1.3,0c-.89,0-1.35-1.69-1.38-5.09v-.91q0-.75,1.32-.9,6.94-.06,6.93-1l0-3c0-1-.34-1.66-1-1.81h-.35l-6.62.39-.67-1.81,0-3.58q0-1.2,7.61-1.87l-.38-2.1v-.3l.34-1.18c0-1-.79-1.51-2.35-1.49q-12.88.12-12.87,1.92Zm1.55-8.09a8.44,8.44,0,0,0-1.29,3.89v.61h1.33l13.59-1.05a8.11,8.11,0,0,0,1.26-3.59l-.32-.32h-.33Zm9.44,15.75.33.29h.32l1-.6,1.31.28q3.66-.22,3.63-3v-.29l-.36-.29v-.33c-3.51.59-5.25,1.11-5.25,1.55l-1.34,2.42Zm.45,12.26.33.32h.35c4.4,0,6.58-1.37,6.55-4l-.32-.29q-6.27.07-6.24,2.74C192.6,183.61,192.38,184,192.39,184.82Zm5.38-23.68v1.5h.33l.33-1.5Zm1.44,11.05-.31,1.47v1.5c.52,0,.83-.7,1-2.09l-.34-.88Zm1.12,11.64-1,3.91.34,1.81q.76,0,1.61-4.5l-.34-1.23Z"/><path class="cls-5" d="M223.29,153.88q11.75-.12,16.9,10.36l.74,6.16-.34,1.26,0,2.17-.32.32.33.29v.29q-3.09,12.75-5.69,12.78-4.45,6.23-8.84,6.26l-.32-.31-.36.32-4.43.05q-9.31.09-12.47-13.8h-.35v-.62h.36l-.4-3.71v-1.55l1-6.83V167l-.69-.92v-.3c1-.65,2.63-3,4.71-7.15Q216.62,153.95,223.29,153.88Zm-11.52,12.17.37,1.89c-1.59,0-2.37,2.39-2.32,7.11q.1,9.72,6,16,1.91,1.53,7.88,1.47,10.92-1.66,10.83-10l1-7.76q-1.33-9.28-3.58-11.4-3.94-4.29-12.34-4.21Q215.75,159.23,211.77,166.05Zm4.06-7.44,5.46-1q8.76,1.41,11.67,4.82c2.55,2.45,3.84,6.15,3.9,11.1l0,3.4-.27,5.26q2.37-2.74,2.28-11.14l0-1.54.33-.33A12.06,12.06,0,0,0,234.28,159q-2.67-3.67-11-3.6C220,155.47,217.51,156.52,215.83,158.61Zm5.9,7h1q3.78,0,5.21,6.14l-.35.33.37,1.51.07,7.43q-1.07,5.56-4.4,5.6h-.33q-4.2,0-5.91-5.79l-.09-9Q218.44,165.69,221.73,165.66Zm-3,6.84.37,1.55.06,5.87q.74,5.27,4.85,5.22l1-.95c-2.29-2.09-3.44-4.25-3.46-6.45l-.41-5,0-4.33h-.68C219.76,168.45,219.2,169.81,218.69,172.5Zm4.12.57v.62l.37,1.22-.34,1.26.37,1.55h-.35q1,4.32,2.79,4.3c.39-.45.72-1.89,1-4.34q-.93-10.2-2.85-10.18Q222.76,167.52,222.81,173.07Z"/><path class="cls-5" d="M254.51,153.62q14.72,1.94,14.74,4.58c1.31,1,2,2.73,2,5.29l1,1.73q0,5.58-7.32,15.71c-3.26,1.74-4.88,2.83-4.88,3.28q0,4.06-5.78,9.49l-2.57.32q-5.56-.48-5.58-2.29l-.71-5,.31-1.47.16-16.78Q247,157,249.34,156.93A5.25,5.25,0,0,1,254.51,153.62Zm-7,15.7.34,1.17-.32.89.34,1.17-.52,13,.34.85-.31,1.8v1.17q0,2.94,4.29,2.9h.3c1.51,0,2.24-3.07,2.18-9.16q7-1.46,9.45-3.33,3.87-3.88,3.8-10.64c-1.43-4.71-2.87-7.05-4.33-7q0-1.28-12.38-1.93Q248.08,160.18,247.51,169.32Zm2.82-11.22v.29q15.36,1.4,15.38,4a10.17,10.17,0,0,1,3,7.05v.29h.3c.67,0,1.1-1.38,1.29-4.13q-.09-7.91-7.93-9.35l-4.89-.83-.32.27-1.63-.25h-1.3Q252.49,155.42,250.33,158.1Zm6.6,7.28q5.2-.06,5.27,5.85v.59c-.41,3.94-2.34,5.92-5.79,6h-1.3l-.66-.58c.5-7.16,1-11.11,1.51-11.82Zm-.78,18.87-.6,4.44h1l1.27-3.57-.34-.87Zm1.12-17.38-.6,4.12v1.76h.65q.51-2.07,1-2.07l-.33-.29,0-2.94Zm.42,8.81h.65l1.29-1.17v-.9h-.33C258.22,174.23,257.68,174.92,257.69,175.68Z"/><path class="cls-5" d="M289.09,152.94q5,.19,4.86,3.64l.19,4.52-.44.32v.35l.36.37-1.49,7.9-.16,4.14-.41.35q-.08,1.36,4.92,1.53l3.07-.59c1.15.48,1.77,1,1.85,1.45l-.07,2.08q-.45,10.19-6.74,13.94l-5,.21q-13.75-.48-13.65-2.56l0-.7c.25-2,.55-3.07.88-3.08l-.32-.37.18-4.81.38-.35-.33-.35,0-.34q1.68-24.18,3.69-24.11.73,0,.81-1.35l-.72-.71.41-.35.36,0,1.13.39Q283,153.09,289.09,152.94Zm-8.52,11.15-.31,7.25-1.08,7.25.29,2.08-.53,3.43.3,2.8-.51,2.73q.93,1.08,9.09,1.35l4.62.17c1.51,0,2.32-1.08,2.41-3.4l.61-4.46-.39-.37-7.66-.27c-.57,0-.92-.6-1.05-1.76q.88-14.87,1.8-14.82l-.39-.34,0-.37.41-.33-.39-.34.12-2.78.41-.33v-.34l-1.1-.71-5.36-.22Q280.74,160.3,280.57,164.09Zm1.8-6.19c0,.48,1.4.89,4.18,1.22,1.36,0,2.68-1,4-3v-.38l-.72-.68-4.61-.17C284.76,154.91,283.83,155.91,282.37,157.9Zm8.76,1-.4,1-1.87,16.53.77,0,2.15-14.8.1-2.09Zm-1.31,21.73.38.35,3.05.12a4.21,4.21,0,0,0,4.32-2.28v-.7l-4.14-.84Q289.94,177.92,289.82,180.67Zm8.8-.06-.91,3.08-.07,2.06-.41.35v.37l.32.32.39,0,1.78-5.12-.34-1Z"/><path class="cls-5" d="M317.91,153l1.66.28,6.3-.06q2.65,0,2.7,4.17l0,1.79-1.59,6q2.63,0,2.68,4.75l0,2.38-1.25,4.82c1.75,0,2.64,1,2.66,3l0,3.87q-2.07,9.31-5.2,9.35l-3.63,0-3-.29-3.31.35-5.94.06q-1.66-.51-1.75-9c-.33,0-.56-1.08-.68-3.27h.29l-.3-.32-.05-5.66.29-.32-.68-3,.33-2.67-.45-8.68Q308.61,154,310,154l1.33-.33,2.63,0C316.6,153.63,317.92,153.42,317.91,153Zm-8.79,10.57.34,4.19-.28,1.18.37,7.8.06,6q1.31,9,2.11,9l13.56-.14c.32,0,.64-.4,1-1.18l-.36-3.31,0-1.5-.33-.26V185l-5.64.38h-1.3q-1.34,0-1.38-5.09v-.91c0-.5.43-.8,1.32-.89q6.95-.08,6.94-1l0-3c0-1-.34-1.65-1-1.81h-.35l-6.62.39-.67-1.81,0-3.58q0-1.22,7.61-1.87l-.38-2.11v-.29l.34-1.18c0-1-.79-1.52-2.35-1.5q-12.89.13-12.87,1.92Zm1.55-8.09a8.47,8.47,0,0,0-1.29,3.89V160l1.33,0,13.59-1a8.14,8.14,0,0,0,1.26-3.6l-.32-.32h-.33Zm9.44,15.75.33.29h.32l1-.6,1.31.28q3.66-.22,3.63-3v-.29l-.36-.29v-.32c-3.51.59-5.25,1.1-5.25,1.55l-1.33,2.42Zm.45,12.26.33.32h.35c4.4-.05,6.58-1.37,6.56-4l-.33-.29q-6.27.06-6.24,2.73C320.77,182.31,320.55,182.71,320.56,183.51Zm5.38-23.67v1.49h.33l.34-1.5Zm1.44,11-.31,1.48v1.49c.52,0,.83-.7,1-2.09l-.34-.88Zm1.12,11.64-1,3.91.34,1.82q.76,0,1.61-4.51l-.34-1.22Z"/></g></g></svg>