<?xml version="1.0" encoding="utf-8"?>
<!-- Generator: Adobe Illustrator 23.0.5, SVG Export Plug-In . SVG Version: 6.00 Build 0)  -->
<svg version="1.1" id="Слой_1" xmlns="http://www.w3.org/2000/svg" xmlns:xlink="http://www.w3.org/1999/xlink" x="0px" y="0px"
	 viewBox="0 0 2398.1 2597.1" style="enable-background:new 0 0 2398.1 2597.1;" xml:space="preserve">
<style type="text/css">
	.st0{clip-path:url(#SVGID_2_);}
	.st1{fill:#FFFFFF;}
	.st2{fill:#387284;}
	.st3{fill:#FFC7A3;}
	.st4{fill:#FFFDEB;}
	.st5{fill:#BE1E2D;}
	.st6{fill:#8B5E3C;}
	.st7{fill:#F7EEDA;}
	.st8{fill:#3B2D20;}
</style>
<title>Ресу1рс 1</title>
<g>
	<g id="Layer_1">
		<g>
			<defs>
				<rect id="SVGID_1_" x="-473.4" y="128.8" width="2937.3" height="2304.1"/>
			</defs>
			<clipPath id="SVGID_2_">
				<use xlink:href="#SVGID_1_"  style="overflow:visible;"/>
			</clipPath>
			<g class="st0">
				<path class="st1" d="M2279.1,1320.1c0.6-4.2,1.2-8.4,1.6-12.6c10.1-107.8-64-202.8-165.4-212.3c-21.2-2-42.6-0.1-63.1,5.6
					c-17.6-63.3-66.5-110.9-128.1-116.7c-78.1-7.3-148.7,55.3-164.4,142.4c-6.6-1.1-13.2-1.9-20-2.6
					c-137-12.8-257.1,73.3-268.3,192.4c-10.7,114.6,83.4,217.9,212.7,237c23.8,66.2,91.3,117.7,175,125.5
					c79.9,7.5,152.7-26.9,190.1-82.8c32.3,28.1,75.2,47.2,123.6,51.8c110.4,10.3,207.1-59.1,216.1-155
					C2395.7,1419.9,2349.9,1352.7,2279.1,1320.1z"/>
				<path d="M2287.5,1318.6c9.6-65.4-11.6-130.7-56.8-175.5c-48.2-47.8-117.7-61.7-181.2-44.8l11.1,1c-22.1-76.9-89.4-128-166-117.7
					c-73.1,9.8-129.1,71.1-143.3,146.6l14-4.9c-94.2-14.8-200.7,13.1-263.2,94.7c-27.7,36.2-41.9,82.2-39.6,128.4
					c2.3,47,23.4,90.6,52.9,124.6c42,48.4,102.2,76.4,163.1,85.7l-2.8-1.7c57.1,154.6,291.7,172.4,381.8,40.5l-16.2,3
					c80.3,68.8,206,72.6,290.9,7.7c35.7-27.2,60.4-68.4,65.2-114.8c5.3-51.4-18-99.9-52.5-134c-17.1-16.9-37.4-30-58.8-40
					c-3.8-1.8-19.2,3.4-14.1,5.8c46.3,21.7,85.9,60,102.3,111.8c14.7,46.4,4.7,96.8-23,135.8c-68.8,96.7-211.8,93.7-294.2,23.2
					c-3.6-3.1-13.6-0.8-16.2,3c-67.7,99.1-209.6,100.8-294.7,30.4c-19.6-16.3-35.7-36.5-47-59.4c-2.5-5.2-4.8-10.6-6.7-16
					c-1.2-3.2-9.8-2.8-12.4-3.3c-14.1-2.6-28-6.2-41.6-11c-46.7-16.1-89.2-45.9-119.6-86.7c-49.5-66.4-52.7-158-5.1-227.5
					c54.1-79,153.3-107.1,240.3-93.4c3.5,0.6,13.1,0,14.1-4.8c12.4-65.7,60.3-128.3,125.7-137c70.3-9.4,130.4,46.5,150,114.4
					c1,3.6,9,1.6,11.1,1c61-16.3,124.6,5.7,167.7,52.5c40.1,43.5,56.9,105.8,48.1,165.8C2270.2,1324.8,2286.6,1324,2287.5,1318.6z"
					/>
				<path class="st1" d="M1785,1530.7c-36.6,116-102.1,175.5-217.5,202.7c38.3-73.8,74.1-143.4,55.4-210.3L1785,1530.7z"/>
				<path d="M1785,1530.7c-6.8,26-16.1,51.5-28.8,75.3c-18.6,35.9-46,66.4-79.6,88.8c-11,7.2-22.5,13.7-34.4,19.2
					c-23.7,11.3-48.6,18.8-73.6,24.7l-11.1,2.6l5.5-10.5c8.6-16.3,17.3-32.6,25.4-49.1s15.9-33.1,22.3-50.3
					c6.7-17.1,11.4-35,14.1-53.2c2.6-18.3,1.9-37-2.1-55.1c5.8,17.9,7.9,36.8,6.3,55.5c-1.3,18.9-5.9,37.4-11.6,55.3
					c-6,17.7-13,35.1-21,52.1c-7.9,16.9-16.2,33.4-24.6,49.9l-5.6-7.9c24.6-5.8,48.6-13.9,71.6-24.2c11.5-5.3,22.6-11.4,33.3-18.2
					c10.8-6.8,20.9-14.5,30.5-23c19.2-17,35.6-37.4,49.3-59.9S1775.6,1555.8,1785,1530.7z"/>
				<path class="st2" d="M2002.5,2231.2c-13.8-30.6-24.5-53.8-45.4-80.3c-10-12.6-18.7-24.3-21.5-39c-2.3-1.5-4.6-3.1-7-4.6
					c-3.1-1.9-5.6-4.5-7.5-7.7c-25.7-15.7-53.6-27.8-82.8-34.9c-42.7-10.4-90.3-13.3-131.9-27.9c-21-2.2-42.1-5.5-61.9-10.7
					c-7.6-2-15-4.5-22.4-7.2c-66.5-4.3-137.2-7.4-177.8-59.6c-0.1-0.2-0.2-0.3-0.3-0.5c-8.2-4.8-15.6-11-21.7-18.4
					c-14.4-9.1-27.8-19.5-40.3-34.1c-18.3-21.4-16.2-40.5-17.2-66.3c-26.2-1.3-54.8,8.1-76.4,17.4c-33.3,14.3-45,47.7-65.6,74.3
					c-22.1,28.7-50.1,36-83.7,44.6c-23.5,6-48.6,4.5-73,4.5c-31.9,0-40.1-5.1-66-20.4c-63.5-37.6-135.6-57.7-195.2-101.4
					c-14.5-10.6-35.1-20.4-56.7-25.5c-3.2,2.3-5.8,5.2-7.7,8.6c-33,54-69.8,68.3-111.2,109.7c-9.4,9.4-29,25.8-40.8,30.8
					c-0.8,3.8-5.8,4-9.5,7.4c-33.8,31.5-82.3,37.3-124.1,54.4c-35.6,14.6-125.7,38.8-166.3,43c-22.8,2.3-86.3,41.4-106.5,43.6
					c-2.5,2.4-43.7,27.4-49.7,31.9c-37.8,28.4-84.2,83.2-112.6,161.4C18.2,2330-4.8,2439.6,2,2476.1c2.9,15.8,4,53.1,19.5,62.3
					c5.8,3.4,11.4,6.9,17,10.5c6.8,0,13.7-0.5,20.7-0.5h108.6c48.9,0,90.8-2.7,134-19.7c27.1-10.7,52.1,5.9,79.2,12
					c54.2,12.3,112.1-7.2,167.3-7.2c77.7,0,148.6-0.9,222.6-26.8c24.3-8.5,42-15.6,67.5-14.6c29.8,1.3,59.6,1.2,89.4,1.2
					c50.6,0,100.7,8.3,151.2,11.8c23.2,1.6,37.1-1.3,58.4-6.3c17.6-4.1,36.3-1.7,54.2-3.6c13.6-1.4,26.6-3.2,40.1-3.4
					c25.5-0.2,45.7,5.5,69.9,13.4c4.2,1.3,8.5,2.3,12.8,3c7.2,0.4,14.3,0.8,21.3,1c21.4-1,42.9-6.8,64.6-8.2
					c25.9-7.1,51.7-13.5,78.3-17.9c55.6-9.3,110.3-18.1,166-25.4c61.4-17.1,131.3,0.9,193.5,1c42.2,0.1,84.7,9.1,126.7,1.4
					c23.8-4.4,45.6-12.1,67.4-20.9C2031,2372.1,2030,2292,2002.5,2231.2z"/>
				<path d="M1448,1166.4c2.5-8.3,3.5-16.8,5-25.9c-0.4-1.2-0.7-2.4-0.9-3.6c-4.5-32.7-2.2-65.1-3.6-98c-1-23.5-8.9-44.6-8.6-67.4
					c-1-1.7-1.8-3.6-2.3-5.5c-10.1-39-32.3-76-37.3-115.8c-0.1-0.5,0-0.9,0-1.4c-5.6-8-11.8-15.6-18.5-22.7c-4.4-1.9-8-5.4-10.1-9.7
					c-8.2-15.5-22.5-28-33.8-41.3c-6.4-7.6-14-24.3-24.4-26.3c-7.8-1.5-12.4-5.9-14.6-11.3c-10.6-6.7-21-13.5-30.9-21.1
					c-8-6.1-14.7-14.4-23.5-19.4c-20-11.4-41.4-20.3-63.6-26.4c-3.1-0.8-6.1-2.4-8.6-4.5c-1.9-0.2-3.8-0.5-5.6-1.1
					c-63.1-21.4-132.7-18.4-198.6-18.6c-1.4,0.4-2.9,0.6-4.4,0.7c-8.3,0.7-16.2,3.5-24.6,3.7c-6.8,0.2-12.6,0-19,2.5
					c-0.6,0.2-1.2,0.3-1.8,0.4c-2.7,3.1-6.2,5.4-10.2,6.6c-8.5,2.8-17.8,3.3-26.1,6.7c-6.6,2.7-13.4,6.4-20.5,7.8
					c-5,1-12.2,1.2-19,2.1c-0.5,0.3-0.9,0.6-1.4,0.8c-4.5,2.2-9.2,3.8-14,4.9c-2,1.9-4.4,3.5-7,4.6c-1.9,2.4-4.3,4.3-6.9,5.8
					c-20.8,11.3-39.9,24.9-60.3,36.7c-11.4,6.6-28.5,11.3-34.9,23.4c-3.1,6-7.7,9.2-12.6,10.5c-10.6,10.4-22.1,19.9-28.7,32.7
					c-0.1,0.2-0.3,0.4-0.4,0.6c-1,3.2-2.7,6.2-4.9,8.7c-17.8,20.1-34,44.8-41.2,71c-1.3,5.1-4.4,9.6-8.8,12.5
					c-5,14-11.5,27.5-15.7,41.7c-3.1,10.5-5.9,20.9-10.8,30.7c2.2,4.4,3,9.4,2.1,14.2c-7.3,45.4-19.5,91-21.2,137.1
					c-0.1,2.6-0.7,5.2-1.6,7.7c0,1.8-0.2,3.6-0.7,5.3c-5.4,22.2,10.1,52.9-5.2,72.7c-2.2,2.8-4.8,5.2-7.7,7.2
					c2.1,3.9,4.4,7.5,7.5,10.1c4.2,3.4,8.6,3,13.7,4.1c7.7,1.7,15,5.7,21.7,9.7c11.1,6.7,14.6,17.9,21.4,28.6
					c7.5,11.8,17.8,21.4,25,32.6c5.8,8.9,14.5,25.8,24.3,30.4c20.4,9.7,37.8,0.8,55.1-9c17-9.6,25.3-25.6,29-44.4
					c6-30.5-3.3-55.1-16.3-81.4c-5-10.2-10.1-20.3-13.4-31.1c-3-9.7,3.2-14.5,8.9-22.1c8.2-11,16.9-22.9,26.2-32.2
					c10.1-10.1,22.6-18,28.7-31.5c6-13.1,5.8-28,8.9-41.6c2.9-12.2,7.9-23.7,14.7-34.2c12.9-19.2,51.1-21.8,72.6-21.6
					c11.9,0.1,24.3,3,35.7,6c13.2,3.5,26.7,6.6,40,10.2c11.3,3,21.8,7.7,33.7,9.1c7.8,0.8,15.5,2.1,23.1,4
					c49,12.6,102.5,21.1,152.9,14.1c9.3-1.3,18.8-3.3,28.2-5.5c11.4-2.6,22.5-6.8,33.6-10.4c8.1-2.6,17-3.6,23.9-9
					c3.5-2.7,4.4-4.2,6.8-7.5c6.3-8.8,14.1-13.7,21.9-21.3c5.4-5.3,9.4-11.2,16.7-13.8c9.4-3.3,21.8-2.2,32.1-4.1
					c13.6-2.5,17,2.4,26.5,12c3.7,3.8,7.1,7.2,11.6,10.3c4.3,2.9,14.2,6.6,17,10.2c4.3,5.7,0.5,18.8,2,26.1c1.3,6,5.8,10.1,7.7,15.8
					c1.4,4.2,1.2,9.5,1.4,13.9c0.4,9.9,0,19.9,0,29.8c0,28.1-0.2,58.2,8.4,85.5c3.7,11.9,8.7,15,19.2,20.5
					c5.9,3.1,10.8,8.7,17.3,11.2C1446.9,1175.5,1446.8,1170.8,1448,1166.4z"/>
				<path class="st3" d="M1454.1,1560.6c5.5-42.3,0.2-87.3,7.1-129.3c-1.6-2.3-2.8-5-3.5-7.7c-4.3-17.2,0.6-32.3-0.8-49.5
					c-1.5-18.9-2.4-37.8-5.2-56.6c-2.6-17.2-3.4-32.8,0.4-47.5c-0.6-5.5-1.1-11-1.5-16.6c-0.2-1.3-0.4-2.6-0.4-3.9
					c-0.4-27.6-4.4-54.5-1.3-81.8c-15.2-5.8-21.7-23.6-23.2-41.3c-1.5-4.7-2.6-9.5-3.2-14.3c-3.3-24.7,5.8-48.6,6.4-73.3
					c-2-2.5-3.4-5.4-4.2-8.5c-8.6-36.4-28.8-69-57.6-92.9c-16-13.4-31.9-26.3-45.2-41.9c-12.4,18.2-30.1,31.3-47.7,44.8
					c-21.7,16.7-43.2,32.3-69.4,40.8c-11.9,6.5-26.7,10.2-43.2,13.3c-3.3,0.6-6.8,0.5-10.1-0.3c-35.6,5-75-5.1-108.5-13.7
					c-4.8-1.1-9-3.9-11.9-7.8c-23.3-4.9-49.3-6.4-70-10.5c-11.7-2.3-23.2-5.2-34.5-8.7c-0.6,0-1,0-1.6,0
					c-33.3-4.3-65.8-7.8-99.4-4.5c-39.9,4-52.5,41.9-51.9,77.1c0,1.5-0.1,3-0.4,4.4c0.2,0.8,0.4,1.6,0.6,2.5
					c4.4,22.4,2.3,50.9-19.9,63.4c-9.2,5.2-19.1,8.1-29.3,10.3c-2.5,0.5-5.7,1-8.9,1.6c-0.9,0.9-1.8,1.7-2.8,2.4
					c-5.5,4-11.1,7.7-16.9,11.2c-0.1,4.7-1.7,9.3-4.7,13.1c5.5,44.7,96.2,155.1,18.9,170.7c-1.8,2.9-8.6,2-11.9,3l1.1-4.5
					c0-0.2,0-0.4,0-0.6c-0.2,0-7.6,2.4-7.8,2.4c-9.7,1.2-11.8-10-14.3-18.7c-7.3-26-25.6-58.3-50.5-70.9
					c-13.4-6.8-73.5-25.3-84.1-5.3c-0.3,0.6-0.7,1.1-1.1,1.7c-11.4,20.6-20.6,41-20.7,65.4c-0.1,18.3,4.8,36.1,5.4,54.2
					c3.6,3.9,5.6,9.1,5.6,14.4c0.3,17,11.8,52.4,24.8,63.5c8.6,7.4,17.6,13.8,24.2,23.1c4.6,6.5,8.5,12.6,14.8,17.7
					c2.3,1.8,4.2,4,5.6,6.6c0.1,0.1,0.1,0.1,0.2,0.2c16.8,22.6,23.4,55.9,55.8,61.9c11.4,2.1,30.7-8.8,34.4-2
					c4.1,7.6,6.5,29.1,6.6,38.8c0.3,0.7,1.3-0.5,2.8,7.3c6.9,36.6,24.2,63.4,26.2,99.8c3.9,4,6,9.4,5.8,15
					c0,33.2,14.8,65.7,15.1,99.4c0,6.1-0.1,11.9-0.2,17.7c-2.6,17.7-0.6,11.8-3.6,40.3c-1.2,7.8-2.7,15.6-4.7,23.7
					c5.2,1.6,9.5,5.1,12.1,9.8c49.7,85.1,158.2,113.1,228.3,174.8c1.5,1.4,2.9,2.9,4,4.7c12.4,3.2,26.3,7.4,33.8,16.1
					s4.2,20.6,11.1,29.7c27.4,0,54.8,0,82.1-2.6c0.5-1.9,1.1-3.8,1.9-5.6c2.7-6.2,7.6-8.7,11.5-13.7c3.3-4.2,5.5-9.7,9.5-13.4
					c11.2-10.3,23.5-15,36.4-22.5c11.1-6.4,23.5-15.8,37-15.9c0.3,0,0.5,0,0.8,0c2.5-2.5,5.6-4.3,8.9-5.4c18.2-6,32.9-20.3,49.1-30
					c9.4-5.6,17.9-12.5,27.2-18.1c2.2-1.3,6.5-2.9,10.6-4.7c0.4-1.2,0.9-2.3,1.5-3.4c15.2-28.9,32.1-56.6,41.3-88.2
					c4-13.8,9.3-30.3,19.5-41.4c0.7-2.1,1.7-4,3-5.7c0.4-3.1,1.5-6.1,3.2-8.8c20.5-33.5,24-72.7,38.5-108.6
					c2.4-6.4,6-12.2,10.6-17.2c0-4.4,1.4-8.6,3.9-12.1c5.4-7.9,5.1-16,7.8-24.8c3.1-10.4,7.6-20.7,10-31.3
					c3.9-16.9,8-33.7,11.9-50.6C1453.9,1567.4,1453.6,1563.9,1454.1,1560.6z"/>
				<path class="st1" d="M1403.2,1333.2c-12.2-6.6-26.6-8.8-39.4-14c-12-4.9-27.3-6.7-40.5-6.7c-4.1-0.1-8.2,0.4-12.2,1.5
					c-5.6,1.8-10.1,5-15,8.4c-9,6.3-15.6,14.6-23.2,22.3c-4.5,4.5-8.7,9.4-12.5,14.6v-0.6c-0.3,0.4,1-4.2-1.5-0.8
					c-1.1,2-2.1,6-4,7.6c-0.3,0.2-0.6,0.4-0.8,0.7c0,0.2,0,0.2,0,0.4c2.1,0.4,4.1,1.1,6,2c1.3,0,2.6,0.2,3.9,0.4
					c4,0.8,7.5,2.9,11.3,4.4c6.2,2.5,13.5,4.1,20.2,5.6c10.6,2.4,21.7,2.6,32.5,3.6c9.2,0.7,18.4,0,27.4-2.2
					c14.8-3.3,30.5-7.7,42.5-17.8c2-1.9,4.2-3.6,6.6-5.2c2.6-1.5,5.5-2,8-3.8c1.9-1.4,3.6-3,5.2-4.7c1.8-1.9,2.5-6.2,4.6-7.2
					C1415.6,1339.5,1409.2,1336.6,1403.2,1333.2z"/>
				<path class="st1" d="M881.3,1372.4c2.9,0.3,6.7-1.1,9.6-1.7c3.4-0.6,6.8-1.5,10-2.7c6.6-2.6,13.1-5.1,19.6-7.8
					c4.9-2,9.5-4.5,13.9-7.4c5.1-3.3,10.8-5.2,16.5-7.5c8.1-3.2,15.6-7.6,24.1-9.4c7.7-1.5,15.5-2.4,23.4-2.6
					c5.6-0.3,11.1-0.6,16.5,1.1c5.9,1.9,12.6,3,18.3,5.3c2.5,1,4.7,3.1,7.1,4.3c3.4,1.7,7.1,1.7,10.5,3.7c1.4,0.7,2.8,1.5,4,2.5
					c2.2,2.1,3.3,5.2,6.3,6.6c3.4,1.7,7.3,2.8,10.2,5.4c2.1,2,3,5,5,7.2c1.8,1.9,3.9,2.6,2,5c-1.5,1.9-5.3,3.8-7.6,5.1
					c-5.2,3-10.6,5.5-16.3,7.5c-15.6,5.3-30.9,12.1-47.6,14.4c-11.3,1.5-22.8,1.9-34.2,1.2c-4.3-0.2-8.5-1.8-12.8-2.9
					c-3.5-0.8-7.1-0.8-10.6-1.3c-14.3-2.1-26.8-10.9-41-14.2c-5.3-1.2-10.5-2.2-15.6-4.5c-3.1-1.4-9.7-3.7-11.5-6.4L881.3,1372.4z"
					/>
				<path class="st4" d="M1313.7,2103.7c0.6-1.8,1.4-3.6,2.3-5.3l0,0c0.1-0.1,0.2-0.5,0.4-0.8c0.1-0.1,0.1-0.3,0.2-0.4
					c0.7-1.5,1.5-3.3,0.6-0.9l0,0c0.3-0.8,0.7-1.6,1-2.4c1.7-4,3.3-8,5.3-11.9c1.5-2.8,3.7-5.2,6.4-7c5.1-14,12.3-25.9,20.6-38.4
					c7.9-24.5,13.5-49.6,16.9-75.1c4.7-34-2.7-66.8,0-100.6c0.2-2.7,0.9-5.3,2-7.8c-1.8-3.9-4.2-7.6-7-10.9c-1.1-1.3-2.1-2.4-3-3.5
					c-0.1,0.2-0.1,0.4-0.2,0.7c-17.6,40.9-28.5,100.7-69.9,120.9c-18.8,23.5-45.7,40.3-73.6,52.7c-37.7,16.8-101.2,33.9-111.1,81.2
					c18.2,46.8,68,85.3,96,127c15.6,23.2,37.4,50,51.1,77.8c12.6-42.6,23.1-86.8,38.4-128.3c7-19,14.1-39.4,23.3-57.7
					C1312.6,2110,1312.8,2106.8,1313.7,2103.7z"/>
				<path class="st4" d="M1016.4,2075.6c-9.2-8.8-19.1-16.9-27-26.9c-1.8-2.3-3.3-4.8-4.5-7.5c-41.2-26.2-84.9-48.8-123.1-79
					c-42.2-33.3-93.3-52-113.5-105.3c-2.1-0.8-4.4-1.3-6.7-1.6c-19.8,41.9-36.1,92.9-31.4,139.5c3.9,39.2,24.3,69.6,36.1,105.1
					c0.6,0.9,1.2,1.8,1.8,2.8c24.1,45.7,48.3,95.2,79.7,136.3c13.9,18.2,30.4,34.6,43.2,53.6c10.4,15.4,18.3,32.2,30.7,45.9
					c10.7-18.1,23.4-35.2,35.4-52.6c0.1-3.9,1-7.7,2.6-11.2c3.5-7.7,7.2-15.1,11.9-21.9c9.9-30.7,27.3-57.7,43.5-85.6
					c14.1-24.3,23.8-50.4,39.4-73.5C1028.3,2088.1,1022.8,2081.7,1016.4,2075.6z"/>
				<path class="st4" d="M1360.6,2006.1c-2.3-6.7-3.3-11-9.2-11.6c-7-0.7-28.1,15.1-34.5,20.2c-61.9,48.8-128.9,91.2-203.3,118.7
					c-20.5,7.6-41.1,7.6-63.4,7.6c-16.2,0-32.9,1.2-49.1,0c-31.1-2.3-63.3-12.1-94.1-17.9c-33.1-6.2-61.5-21.7-93.6-30.3
					c-23.8-6.3-49.6-6.9-71.5-18.9l-2.2-19c-1.3,19.2,7.3,42.7,11.1,61.7c0.2,1,0.4,2.1,0.6,3.1c24.1,53.7,37.2,112.3,55.1,169
					c11.5,30,28.1,57.6,39.7,87.6c11.3,29.3,19.7,59.5,30.5,88.9c1.1,2.7,2,5.4,3,8.3c0,0,0,0.1,0,0.1c10.3,22.2,14.7,49,29,68.3
					c6.6,8.9,4.9,17.6-0.6,23.7c2.7,0.7,5.5,1.1,8.4,1c6.9-0.2,13.6-3.1,21-3.4c21.4-0.7,43.2,1.1,64.6,1.1
					c49.6,0.1,99.3-1.1,148.9-1.1c18.1,0,37.5,1.9,55.5,0c12.6-1.3,19.2-7.4,27.7-15.9c1.8-1.8,3.5-3.7,5.2-5.6
					c0.4-1.2,0.8-2.3,1.2-3.5c4.6-20.1,6.3-41.2,14.8-60c3.2-7.1,6.2-14.4,9.2-21.6c0.1-13.6,4.3-26.6,9.8-40c0.4-1,0.9-2,1.4-3
					c4.7-25.3,9-50.7,15.5-75.5c14.7-56.1,35.1-109.8,47.8-166.1c-0.6-3-0.5-6,0.1-9c5.3-27,11.7-53.3,15.3-80.6
					c1.9-14.5,4.1-28.7,8.9-42.1C1364.2,2028.9,1364,2016.1,1360.6,2006.1z"/>
				<path class="st5" d="M1152,2342.8c-1.2-4-1.3-8.2-0.3-12.3c-0.9-2.4-1.8-4.7-2.7-7.1c-1.3-3.3-1.7-6.9-1.3-10.4
					c-7.2-18.1-15.5-35.7-24.8-52.8c-0.7-1.4-1.3-2.8-1.8-4.2c-1.3-1.9-2.2-4.1-2.7-6.3c-3.1-17.1-2.7-37.8,7.6-52.7
					c8.5-12.2,21.3-18.6,31.9-27.9c-28.1-14.6-47-47.9-54.6-78.9c-23.6,3-47.5,1.6-70.6-4.2c-12.5,29.4-26.7,58-40.5,86.8l0.1,0.1
					c16.1,29.3,56.8,52.9,53.2,90.9c0,0.4-0.1,0.9-0.2,1.3c-0.2,1.8-0.5,3.7-0.8,5.5c-0.4,1.9-1.1,3.8-2,5.5
					c-10.2,34.7-14.8,70.6-21,106.2c-0.5,2.7-1.4,5.3-2.9,7.6c-3.3,21.3-10,42-17.5,62.6c0.2,2.4,0,4.8-0.5,7.2
					c-9.6,40.9-16.1,82.5-25.8,123.4c10.1,4.3,32.8,5.1,39.8,5.9c12.6,1.4,25.4,1.6,38.1,3c12.8,1.6,25.8,2.4,38.7,2.5
					c18.4,0,38.2,3.8,56.1,2.3c16-1.4,37.4-6.3,51.5-13.4c12.9-6.5,20.8-7,23.2-22.4c0.2-1.1,0.3-2.1,0.4-3.2
					C1204,2484.3,1172.3,2415.6,1152,2342.8z"/>
				<path class="st2" d="M373.3,2398.2c6.3,0,18.4-9.6,6.8-9.6C373.7,2388.6,361.6,2398.2,373.3,2398.2z"/>
				<path d="M582,1201.8c0-75.3,1.1-150.1,16.8-224c16.2-75.9,56.5-138.2,105.1-197.2c99.5-121,294.2-153.8,439.8-116.7
					c95.9,24.4,176.8,89.9,232.6,170c68.9,99,66.7,215,66.3,331.5c0,5.5,13,2.7,13-1.6c0.3-122.2,0-238.2-71.8-341.4
					c-62.7-90.1-158-152.2-265.8-173.1C988.2,624,836.6,658,732.5,739.6c-144.3,113.2-163.4,294.1-163.5,463.7
					C569.1,1208.8,582,1206,582,1201.8L582,1201.8z"/>
				<path d="M1447.7,1157.8c7.8,94.8,4.4,190.2,14.5,284.5c4.7,47.8,0.2,96.2-9.7,143s-25,92.4-41.4,137.1
					c-15.8,44.5-31.4,90.2-55.2,132.5c-12,21-26,41.4-43.9,58.8c-17.9,17.2-40.1,31.1-65.5,36.4c-23.6,4.4-47.7,7.5-71.9,8.2
					s-48.8-1-72.4-7.6c-23.6-6.4-46.1-17.5-64.6-33.3c-18.2-15.9-32.8-35.6-42.7-57.6l1.4-0.7c12,20.3,27.1,38.9,45.9,52.6
					c18.5,14,40.2,23.3,62.7,28.1c45.3,9.7,92.8,4.5,138.4-5.4c21.3-4.7,41-17,57-32.7c16.3-15.7,29.9-34.6,41.7-54.7
					c23.8-40.2,40.1-84.6,56.9-129.1c17.1-44.2,32.7-88.9,43.2-134.8s15.7-93.1,11.9-140.1c-8-95-2.4-190.2-8-285L1447.7,1157.8z"/>
				<path d="M694.8,1510.9c-0.3,15.7,2.6,31.2,6.5,46.4s9,30.1,14.4,44.8l34.3,88.2c11,29.6,21.5,59.3,36.1,86.6
					c7.1,13.6,15.7,26.4,25.5,38.2c4.8,5.8,10.3,11.2,15.9,16.7s11.2,10.9,16.9,16.2c45.9,42.3,97.9,77.6,154.1,103.1
					c56,25.3,118.5,39.4,181,29.2l0.4,1.7c-15.1,5.1-30.9,8-46.8,9.6c-16,1.3-32.2,1.2-48.2-0.4c-32.1-3-63.6-11.7-93.4-23.8
					c-59.9-24.5-111.7-64.5-157-109c-5.7-5.6-11.3-11.2-16.8-17s-11-11.5-16.2-18c-10-12.7-18.7-26.5-25.8-41.1
					c-14.4-28.8-24-59.2-34.2-89l-31-89.4c-4.9-15-9.4-30.3-12.8-45.8s-5.8-31.4-4.8-47.3L694.8,1510.9z"/>
				<path d="M725.4,1652.8c12,69.9,23.4,140.7,13.4,211.6c-0.5,3.8,8.2,2.4,8.7-0.9c10.1-71.4-1.4-142.6-13.4-213
					C733.4,1647,724.7,1649.2,725.4,1652.8L725.4,1652.8z"/>
				<path d="M1355.5,1836.6c0,98.6,117.5,162.1,200.5,179.1c94,19.3,187.7,38.6,281.5,59.2c157.7,34.7,182.6,220.8,187.6,356
					c0.1,4,13.1,1.4,13-3.5c-4.7-127.9-25.9-305.5-168.1-352.8c-64.7-21.5-135-33.9-201.6-46.7c-68.3-13.1-145.3-16.9-204.2-57
					c-45.1-30.7-95.6-79.8-95.6-137.8C1368.5,1829.3,1355.5,1831.7,1355.5,1836.6L1355.5,1836.6z"/>
				<path d="M21.2,2523.5c-17.7-107.9-8.7-219.2,62.3-306.8c52.5-64.8,131.7-102.1,209.8-125.7c47.3-14.3,96.5-19.6,143.8-32.9
					c126.1-35.6,225.4-121.6,311.3-217.3c5.5-6.1-6.9-8.5-10.9-4c-86.3,96.1-192.2,189.8-322.4,216.7
					c-59.6,12.3-118.6,24.1-175.7,45.9c-73.2,27.9-140.2,72.7-185.2,137.8C-4.2,2321.8-7.9,2428.7,8.2,2527
					C9.2,2533.2,22.2,2529.9,21.2,2523.5L21.2,2523.5z"/>
				<path d="M738.8,1858.9c17.6,47.9,69.4,80.3,110.7,106.1c63,39.3,128.6,76.1,181.4,129.2c3,3,15.2-1.8,12.1-4.9
					c-45.4-45.8-101.3-81.9-156.9-114.4c-47.5-27.7-114.1-64.8-134.2-119.5C750.2,1851.2,737.4,1855.1,738.8,1858.9L738.8,1858.9z"
					/>
				<path d="M1036.2,2096.3h55.9c7.2,0,10.1-9,1.3-9h-55.9C1030.3,2087.3,1027.4,2096.3,1036.2,2096.3z"/>
				<path d="M1113.4,2087.8c33-51.4,113.9-68.3,163.1-103.2c42.7-30.3,65.5-73.3,76.4-123.6c1.3-5.9-11.9-4-13.1,1.2
					c-15.9,73.6-60.8,117.7-127,150.5c-39.2,19.5-86.9,35.5-111.7,74C1097.4,2092.5,1110.6,2092.1,1113.4,2087.8L1113.4,2087.8z"/>
				<path d="M879.4,1607c-0.9,13.9,0.4,27.8,3.8,41.3c3.6,13.2,8.7,26,15.3,38c12.9,24.4,30.2,46.5,45.7,70.4
					c-20.8-19.2-39.8-40.8-53.5-66.2c-6.7-12.7-12-26.5-14.3-40.8C874,1635.4,875,1620.8,879.4,1607z"/>
				<path d="M1044.7,1582.4l-32,23.1c-10.5,7.7-20.9,15.5-30.5,24.1s-18.8,17.8-23.4,28.8c-2.2,5.5-2.7,11.4-0.2,16.9
					c2.3,5.7,7.2,10.2,12.4,14.3c-6.5-2.4-12.1-6.7-16.2-12.2c-4.2-6-4.8-14.4-2.6-21.3c4.3-14,14.3-24.1,24.1-33.2
					C996.7,1605.3,1020,1592,1044.7,1582.4z"/>
				<path d="M1362,1553.3c9.9,23.2,23.6,43.9,31.3,68.9c3.6,12.4,5.1,26.1,1.8,39c-3.1,13-10.6,24.1-19.6,32.9
					c6.3-10.9,11.1-22.4,12.8-34.2s0-23.7-3.5-35.2c-3.3-11.6-8.3-23-12.6-34.8S1363.7,1565.9,1362,1553.3z"/>
				<path d="M895,1189.1c4.8-8.1,11.7-14.6,20-19c8.4-4.4,17.9-6.3,27.3-6.8c18.9-1,37.3,3.2,55,8c17.8,5.1,35,11.2,52.3,17.1
					c8.6,2.9,17.3,5.7,26.2,7.9c8.8,2.5,17.9,3.9,27,4.1c-18.4,2.5-36.9-2.4-54.6-7c-17.8-4.8-35.1-10.7-52.6-15.6
					s-35.2-9.1-53.1-9.3C924.7,1167.9,906.5,1174.4,895,1189.1z"/>
				<path d="M1013.4,1148.9c16.2-1.9,32.6,1.7,48.1,6.2c15.6,4.7,30.7,10.6,46.3,13.6h-0.2c23.6,2.8,47.4,2.4,70.8-1.3
					c11.7-1.8,23.2-4.7,34.7-7.6c11.3-3.3,22.4-7.5,33.1-12.6c21.5-10.1,42.5-22,65.1-30.7c22.2-9,47.4-14.2,70.8-7.8
					c-23.9-4.4-47.6,2.2-69.2,11.7c-21.8,9.6-42.3,22-64.1,32.3c-10.9,5.4-22.2,9.8-33.9,13.4c-11.7,3.3-23.5,5.9-35.5,7.6
					c-24,3.6-48.4,3.6-72.5,0.1h-0.1h-0.1c-16.1-3.8-31-10.3-46.2-15.5C1045.4,1152.7,1029.7,1148.6,1013.4,1148.9z"/>
				<path d="M1243.6,1200.3c12-7.7,22.8-16.6,34-25.4s22.4-17.4,34.4-25.2c12.1-7.7,24.8-14.8,38.8-18.8c7-2,14.3-3.1,21.6-3
					c7.2,0.2,14.4,2,20.8,5.3c-13.7-4.2-27.9-2.2-40.8,2.6s-25.1,11.8-36.8,19.5s-23.2,15.9-35,23.8S1256.9,1195.1,1243.6,1200.3z"
					/>
				<path d="M877.1,1144.5c13.1-12.7,30.5-20.8,48.4-24.9c17.9-4,36.3-4.6,54.4-1.9c-18,2.7-35.7,4.4-52.9,8.4
					C909.7,1130,892.9,1136.2,877.1,1144.5z"/>
				<path d="M910.7,1093.1c19-7.7,39.8-10.4,60.3-10.4c20.6,0.2,41,3.2,61.2,7.1c40.2,7.7,79.5,20.2,119.8,23.7
					c40.3,2.8,82,5.4,119.6-10.2c19.1-6.8,37.6-15.5,56.4-23.6c18.9-7.9,38.4-14.7,58.7-17.9c-40.2,8.9-74.8,31.4-113.2,46.3
					c-18.8,8.6-39.9,12.1-60.4,13.3c-20.7,1.2-41.1-0.1-61.7-1.3c-41.3-4.2-80.5-16.7-120.2-25.4c-19.8-4.4-39.9-8-60.2-8.9
					C950.7,1084.8,930.1,1086.8,910.7,1093.1z"/>
				<path d="M861.5,1077.4c18.6-7.5,37.5-13.9,56.8-19.2c19.4-5.3,39.2-9.1,59.1-11.2c20-1.7,40.3-1.8,60.3,0.7
					c19.9,2.5,39.5,7.2,58.4,14c-19.5-4.2-39.1-7.5-58.9-8.9c-19.7-1.5-39.5-1.3-59.1,0.8c-19.7,1.6-39.2,5.4-58.6,9.6
					S880.9,1072.6,861.5,1077.4z"/>
				<path d="M1254.7,1052.8c11.4-8.4,23.9-15.3,36.7-21.4c12.8-6.2,26.2-11.2,39.9-15c13.8-3.6,28.1-6.2,42.7-5.2
					c7.3,0.4,14.5,2.1,21.2,5c6.6,3.2,12.4,8,15.9,14.2c-9.5-10.9-23.8-14.2-37.3-14.1c-13.7,0.2-27.4,2.8-40.7,6.5
					c-13.4,3.7-26.7,8.2-39.7,13.2C1280.4,1041.3,1267.5,1046.8,1254.7,1052.8z"/>
				<path d="M691.5,1303.6c-7-60.2-62.7-111.3-124.8-103.5c-44.7,5.7-46.1,62.2-44.6,96.1c1.4,30.5-1.3,74.5,17.1,100.3
					c12,16.8,28.6,27.3,43.8,41c11.9,10.6,18.6,30.6,25.8,44.8c20.5,40.5,46.2,54.3,87.8,33.6c8-4,0.7-8.4-5.2-5.5
					c-54.3,27-67.7-30.3-86.3-63.2c-7.5-13.3-17.8-21.9-29.8-31.2c-22.5-17.3-31-38.3-36-65.7c-6.3-34.7-8.5-78.9-0.1-113.1
					c14.1-57.3,85.5-18.6,109.7,4.6c18.2,17.4,26.8,41,29.6,65.3C679,1311.6,692,1308.6,691.5,1303.6L691.5,1303.6z"/>
				<path d="M644,1308.6c-7.8,0.4-15.4,1.4-21.5,4.7c-6.1,3.1-10.1,8.3-12.3,14.4c-4.3,12.3-3.1,27.2,0.1,41.1
					c3.1,14.2,8.4,27.7,15.7,40.3c3.7,6.2,7.9,12.1,13.2,17c5.2,5.3,12,8.7,19.4,9.7c-7.6,2.5-16.5,0.4-23.7-3.6
					c-7.1-4.2-13.4-9.7-18.6-16.2c-10.3-12.8-17-27.9-20.8-43.8c-3.2-15.8-4.4-33.4,4-49.5c4.1-7.9,12-14.3,20.5-16.3
					S636.8,1305.7,644,1308.6z"/>
				<path d="M692,1308.2c66.1,4.1,59.4-48.2,37.6-96.1c-7.6-16.7-16.8-32.6-23.9-49.6c-17.8-42.8,21.5-49.5,49.8-64
					c33.6-17.2,27.1-58.1,26.8-89.5c-1.1-103.9,176.8-46.5,233.5-31.2c44.9,12.2,99,31.8,146.3,21.9
					c91.6-19.2,171.1-95.6,217.6-173.7c1.3-2.2-10.8-1.3-12.8,2.1c-29.5,49.6-69.4,90.8-115.8,125c-39.3,28.8-84,45.7-133.2,40.6
					c-31-3.3-61.6-13-91.5-21.2c-62.8-17.3-169.1-58.3-229-11.6c-24.6,19.2-28.8,39.8-27.4,70c1.4,32.2-2.4,59.4-38.4,71
					c-9.1,2.9-22.5,6.4-29.8,13.6c-26.5,26.5-5.9,59.4,8.7,87.3c12.9,24.6,51.5,103.3-10.1,99.4
					C697.2,1302.2,685.3,1307.8,692,1308.2L692,1308.2z"/>
				<path d="M1315.7,903.2c43.1,41.1,101.5,72.9,100.2,140.1c-0.8,38.1-16.6,100.3,18.2,128c3,2.4,14.6-2.7,12.2-4.6
					c-37.1-29.5-16.4-101.8-17.5-142.4c-1.6-56.7-65.1-91.5-100.9-125.7C1325.1,896.1,1313.2,900.9,1315.7,903.2L1315.7,903.2z"/>
				<path d="M851.7,1292.2c7.2-27,29.5-49.4,55.4-61.7c26.2-12.5,55.6-16.8,84.5-15.2c14.6,0.7,29.2,2.7,43.5,6
					c14.6,3.6,28.4,9.9,40.6,18.7c12.2,8.9,23.1,20.3,30.6,33.7c7.6,13.3,11.8,28.7,10.1,43.3l-3.5,0.9
					c-16.1-23.1-35-36.7-56.3-47.6c-10.6-5.4-21.4-10.4-32.6-15.3c-11.3-5.2-23.3-8.9-35.5-11.2c-12.4-2.2-25-3-37.6-2.5
					c-12.6,0.3-25.1,2.3-37.2,5.9c-24.3,6.8-46.3,22.6-58.7,46.5L851.7,1292.2z"/>
				<path d="M1279.3,1274.1c5.6-16.3,14.7-30.6,25.2-43.7c10.7-13.2,23.3-24.8,37.4-34.4c14.4-9.4,31.2-17.7,51.1-17.7
					c9.8,0.1,20.3,3.3,27.7,9.8c6.9,6.1,11.4,14.4,12.8,23.4c-6.5-5.6-12.9-10.3-19.6-12.1c-6.2-1.8-12.9-1.8-19.1-0.1
					c-12.7,3.1-25.4,10.8-38,19s-25,17.7-37.7,27.2S1293.6,1264.7,1279.3,1274.1z"/>
				<path d="M1192.2,1575.7c-17.9-4.5-44.7-8.9-53.6,6.7c13.4,4.5,26.8,2.2,40.2-4.5L1192.2,1575.7z"/>
				<path d="M1197.5,1573.1c-20.1-4.9-51.7-10.2-65.3,10.4c-0.5,0.8,0.6,1.3,1.1,1.4c17,4.9,33.6,1.3,49.3-6.1
					c7.8-3.6-4.4-3.3-7.5-1.8c-9.2,4.3-17.6,5.9-27.5,3.9c-1-2.8,0.1-4.6,3.3-5.4c3.1-1,6.5-1.5,9.8-1.3c8.8-0.1,17.7,2,26.3,4.1
					C1189.9,1579,1201.3,1574.1,1197.5,1573.1L1197.5,1573.1z"/>
				<path d="M1227.9,1359c3.8,22.8,10.6,44.5,17.9,66.2s15.5,43.1,22.4,65.2c1.6,5.4,3.4,11.4,4.7,16.8l4.7,16.6
					c2.7,11.3,5.5,23.9,2.1,36.7c-1.3,5.3-3.1,11.8-6.3,17.2c-3.2,5.7-8.2,10.2-14.2,12.8c-11.6,4.4-22.6,5.6-33.5,9.8
					c9.5-6.6,21.4-10,30.7-15.3s12.1-15.6,13.9-26.7c1.7-9.9-0.7-20.7-4-31.3l-9.9-32.9c-6.6-21.8-14.2-43.6-19.8-66.1
					S1226.5,1382.2,1227.9,1359z"/>
				<path d="M1100.6,1548.9c5.6,9.7,10.6,18.3,17.7,24.6c3.5,3.2,7.5,5.7,11.9,7.4c4.9,1.8,9.9,3.1,15.1,3.7c-5.1,2.8-11,3.9-16.8,3
					c-6-0.9-11.6-3.5-16.1-7.6C1103.7,1572.1,1099.3,1560.5,1100.6,1548.9z"/>
				<path d="M1080.5,1338.8c-15.7-5.7-29.9-15.1-44.5-21.4c-7.3-3.1-14.9-5.3-22.8-6.5c-3.9-0.6-7.9-0.9-11.8-1.1l-5.6-0.1
					c-2.1,0.2-4.1,0.4-6,0.6c-15.8,1.9-31.5,6.7-46.6,12.6c-15.2,6.1-29.9,13.7-43.7,22.6c24.3-23.7,55.5-39.1,89.1-44
					c17.3-1.8,34.8,1.5,50.3,9.6C1054.1,1319.1,1066.3,1330.1,1080.5,1338.8z"/>
				<path d="M1285.7,1308.7c8.2-7.9,17.8-14.1,28.4-18.4c10.9-4.4,22.6-6.1,34.3-5c11.5,1.3,22.7,4.8,32.8,10.5
					c9.9,5.4,19,12.2,27,20.2c-20.1-9.8-39.7-19.9-60.7-21.7c-10.5-1-21.1-0.1-31.3,2.7C1305.9,1299.6,1295.8,1304,1285.7,1308.7z"
					/>
				<path d="M736.8,1863c-46.5,88.3-38.1,162.4,9.6,247.9c45.2,80.9,90.4,164.8,152.7,234c4.2,4.7,16.4-0.7,11.8-5.9
					c-53.8-59.8-94.2-130.8-133.8-200.4c-22.6-39.7-45.9-78.7-57.1-123.3c-13.3-52.6,5-104.5,29.3-150.5
					C752.9,1858.1,739.7,1857.5,736.8,1863L736.8,1863z"/>
				<path d="M1024.9,2092.7c-42.8,83.1-86.1,165.8-126.2,250.2c-1.6,3.3,11.1,2,12.9-1.9c40.1-84.4,83.5-167.2,126.2-250.2
					C1039.3,2087.7,1026.8,2088.9,1024.9,2092.7z"/>
				<path d="M1098.6,2093.5c15.7,37.2,44.2,65.7,68.8,97.1c28.8,36.9,55.3,76.8,74.2,119.6c1.4,3.1,13.9-1.3,12.9-3.5
					c-17.5-39.5-41.7-74.6-67-109.5c-25.8-35.5-58.7-66.4-76-107.3C1110.2,2087,1097.6,2091.2,1098.6,2093.5L1098.6,2093.5z"/>
				<path d="M1355.5,1847.8c4.6,33.7,7.6,67.5,9.1,101.5c2.2,52.2-21.2,86-46.6,129.1c-41.8,70.8-48.5,154.9-76.4,231.1
					c-1.6,4.3,11.4,2.6,12.9-1.7c32.8-89.7,43.1-179.6,95.6-261.7c39.6-61.8,27.8-132.3,18.3-201.7
					C1367.9,1840,1354.8,1843,1355.5,1847.8L1355.5,1847.8z"/>
				<path d="M989.6,2172.7c18,24.3,33.4,50.2,49.2,76c2.8,4.5,15.2-0.1,11.9-5.5c-15.8-25.8-31.1-51.7-49.2-76
					C998.3,2162.9,985.9,2167.8,989.6,2172.7z"/>
				<path d="M1052,2254.1c18.2-10.1,41-4.6,60.9-8.3c8.2-1.6,5.7-10-2.3-8.5c-21.7,4.1-44.1-1.7-64.3,9.6
					C1038.7,2251.1,1045.7,2257.6,1052,2254.1z"/>
				<path d="M1151.4,2169.8c-26.2,18.9-33.2,43-41.6,72.9c-0.8,2.8,11.9,1.1,12.8-2.2c7.9-28,14-52.3,38.8-70.1
					C1166.7,2166.4,1153.8,2168.1,1151.4,2169.8L1151.4,2169.8z"/>
				<path d="M1105,1385.8c2.6,15.6-1.1,32-8.1,46.3c-7.1,14.2-18,27.1-32.2,34.2c10.6-10.9,19.4-23.5,26.2-37.2
					C1097.7,1415.4,1102.4,1400.8,1105,1385.8z"/>
				<path class="st6" d="M1161.3,902.5c-3.9,18-10.1,27.1-10.1,27.1s16.4-22.8,19-42.3s-1.5-34-1.5-34s3.2,6.3,6.7,13.9
					c0.6,1.4,1.3,2.9,1.9,4.4c-1.3-7.7-2.8-15.3-4.5-22.9c-2.8-3.9-5.7-7.8-8.7-11.6c-2.6-3.3-5.3-6.6-8-9.9
					c2.5,6.5,4.4,13.3,5.6,20.2c-3.7-8.9-8.5-17.2-14.4-24.8c-9.8-12.7-12.1-15.9-12.1-15.9l6.9,15.3c0,0-4-5.1-11.5-13
					c-3.5-3.8-7.3-7.5-11.2-10.9c0,0,5.2,8.7,10.7,18.3c3.4,6.2,6.1,12.8,7.8,19.7c0,0-6.9-13.5-20.7-29.7
					c-13.2-15.4-24.7-19-25.7-19.3c0.7,0.3,4.8,2.4,19.4,22c16.1,21.6,18.2,43.5,18.6,62.9s-15.2,39.7-15.2,39.7s4.2-13.1,5.6-20.1
					s2.2-11.3,2.2-11.3s-9.3,15.9-16.4,23.4s-17.3,14.3-17.3,14.3s13.6-15.1,17.3-20.7c2.7-4.4,5.1-9.1,7.1-13.9
					c0,0-19.6,28.5-54.4,37.5s-63.5,1.5-63.5,1.5c15.9,7.6,33.2,11.9,50.8,12.5c28.5,0.8,53.9-8.3,53.9-8.3s-6.2,9.1-22.2,15.3
					s-27.2,7-27.2,7s27.2,4.8,55.2-11.3c42.7-24.5,37.5-74.3,37.5-74.3l3.7,22.1c0,0,4.4-13,4.4-18.4c-0.1-3.5-0.5-7.1-1.4-10.5
					c0,0,6.3,16.1,6.8,24.7s-0.4,12.1-0.4,12.1s4.4-7.6,4.8-15.2l0.4-7.6C1161.2,870.9,1165.2,884.6,1161.3,902.5z"/>
				<path class="st6" d="M1415.7,983c-4.4-6.9-10.3-18.1-10.3-18.1c4.2,6.4,8.9,12.6,14,18.4c8.5,9.6,21.9,21.7,21.9,21.7
					s-15.3-16.2-26.6-33c-10-15-12.4-31.6-12.8-35c0.3,2.1,2,9.4,11.1,25.1c11,19.1,31.5,36,31.5,36s-21.5-22.8-27.2-36.2
					s-7.6-29.6-7.6-29.6s5.3,15.8,10,26.8s24.3,30.5,24.3,30.5s-18.7-19.8-21.8-30.5s-6-17.9-9-37.8c-3.4-20.7-11.1-40.5-22.5-58.1
					c-11.5-17.7-32.2-31.3-32.2-31.3c6.2,5.8,12.2,11.9,17.8,18.3c5.6,6.4,10.8,13.3,15.4,20.5c0,0-4.2-4.3-14.2-14.9
					c-8.8-9.3-19-17.6-33.3-28.7c-0.1,1-0.2,1.9-0.3,2.9c11.9,9.6,22.9,20.2,33.1,31.7c22.2,24.9,21,40.2,21,40.2
					s-2.8-16.4-19.8-32.1c-5.9-5.5-15.7-13.2-15.7-13.2c4.2,3.9,8,8.1,11.3,12.7c5.7,7.7,15.3,23.4,15.3,23.4
					c-4.7-6.7-9.9-13.1-15.5-19.1c-6.1-6.5-12.8-12.4-20-17.6c8.2,8.6,15.9,17.6,23,27.1c13.3,17.4,23.3,42.2,23.3,42.2
					s-13.6-24.6-32.1-43.3s-41.9-32.9-41.9-32.9s21.2,15,32.8,27.3c7.1,7.6,13.4,16,18.6,25.1c0,0-14.6-18.2-26.3-27.9
					c-7.3-6-15.2-11.2-23.5-15.5c0,0,15.7,11.1,27.1,24.1c7.4,8.5,13.9,16.5,13.9,16.5s-7.1-7.1-15.6-15.2s-20.6-15.1-20.6-15.1
					s7.7,6.2,15.3,13.5c4.5,4.2,8.4,8.9,11.8,14c0,0-5.6-6.4-23.9-18.9c-14.3-9.7-38.4-19.7-48.4-23.6c8.2,3.4,26.9,11.9,49.2,27.9
					c21.2,15.2,28.5,26.2,28.5,26.2s-4.2-3.7-13.7-10.5s-24.6-13.2-24.6-13.2s18,10.4,27.8,19.3c5.7,5.1,10.9,10.6,15.7,16.5
					c0,0-3.1-3.3-13-10.8c-7-5.1-14.6-9.5-22.4-13.3c8.3,5.2,16.2,11,23.4,17.6c7.6,7,14.7,14.4,21.3,22.3c-0.6-0.7-4.2-4.7-18-15.2
					c-15.4-11.7-38.2-21.5-38.2-21.5c11.2,5.3,21.8,11.8,31.6,19.3c17.1,12.9,27.3,25.2,40.5,43.1s38.5,44.9,38.5,44.9
					S1420.1,989.8,1415.7,983z"/>
				<path class="st6" d="M711.4,1058.9c7.5-8.3,13.9-17.5,19.3-27.3c0,0-1.3,14.5-12.1,32.7s-30.7,36-30.7,36s24.6-15.2,39.4-31.6
					s19.4-27.8,19.4-27.8s-1.4,15.4-14,30.9c-11.7,14.3-20,23.6-43.3,37.7c0.1,1.3,0,2.7-0.4,3.9c8.7-6,17.7-12.2,27-18.8
					c14.1-9.9,26.7-21.8,37.3-35.3c19.5-25,17.7-46.6,13.9-58.4c-2-6.4-3.1-13.1-3.1-19.9c-1.9,6.2-2.9,12.6-3.1,19
					c-0.2,10-9.9,24.5-9.9,24.5s4.1-18.3,0.4-28c-3.5-9.3,0.7-23.1,0.7-23.1s-7.7,15.5-7.3,26.3s-6,20-6,20s1.6-10-2.8-24
					s0.4-28,0.4-28s-8.9,20.9-9.1,30.9s-0.9,17.6-8.8,35.4s-40.9,48.8-40.9,48.8S699.7,1071.7,711.4,1058.9z"/>
				<path class="st6" d="M1086.2,971.5c0,0,27.2,4.9,58.7-4.7s57.4-29,57.4-29s-4.8,12.5-21,25.2s-28.3,17.8-28.3,17.8
					s30.9-4.6,58.2-32.8c41.4-43,24.7-96.7,24.7-96.7l8.9,23.3c0,0,2-16.1,0.7-22.1c-0.8-3.9-2.1-7.7-3.9-11.3
					c0,0,10.5,15.7,13,25.1s2.3,13.7,2.3,13.7s3.2-10.1,2-18.7l-1.3-8.7c0,0,7.5,13.7,7.2,35.2s-5.1,34-5.1,34s12.9-31.4,11.4-54.2
					s-9.2-37.4-9.2-37.4s4.8,5.8,10.5,13s11.7,19,11.7,19c-3-13.9-7-27.6-12-41c-4.3-11.4-9.6-22.4-15.7-32.9c0,0,5.4,3.6,13.5,9.8
					c4.9,3.8,9.2,8.5,12.7,13.7l-10.4-19.9c0,0,4.4,3.8,11.5,10.3s16.3,16,16.3,16s-4.4-11.6-10.9-20.3c-4.1-5.4-8.5-10.7-13.1-15.6
					c0,0,5.7,2,16.6,11.8s15.4,18.9,15.4,18.9s-6.7-17.5-13.6-28.1c-4.3-6.5-9.5-12.3-15.5-17.2l17.3,10.6l-6.4-11.3
					c0,0,4.8,0.6,16.1,9.8s23.4,25.1,23.4,25.1s-5.1-22.5-30.1-45.2s-31.5-26-31.5-26l20,8c-6.9-7.2-14.9-13.4-23.6-18.2
					c-13.5-7.2-31.6-8.7-31.6-8.7c7.4,2.1,14.5,5.1,21.1,8.8l10.1,5.8l-14.5-1.8c5.7,3.2,11.1,6.8,16.3,10.7
					c8,6.2,10.9,9.8,10.9,9.8c-8.7-5-17.6-9.4-26.8-13.3c-14.3-6-18.2-6.7-18.2-6.7c5.7,3.2,11.2,6.8,16.3,10.8
					c9.3,7,15.8,13,15.8,13c-10.5-7.5-22.4-12.7-35.1-15.3c-21.3-4.5-45.6,7.2-45.6,7.2s16.7-2.8,36.6,5.1
					c12.2,5,23.3,12.3,32.7,21.6c0,0-11.9-7-24.4-9.2l-12.5-2.2c6.3,3.2,12.2,7.1,17.5,11.6c7.7,6.8,13,12,13,12
					s-18.2-9.3-27.6-12.1c-4.6-1.3-9.1-2.8-13.5-4.6c8.9,5.4,17.5,11.3,25.6,17.8c13.1,10.4,19.8,20.1,19.8,20.1
					c-8.1-5.8-16.5-11.1-25.3-15.8l-12.3-6.4c0,0,15.8,12.1,24.8,21.3s15.5,26.4,15.5,26.4c-6-8.5-13.2-16.1-21.4-22.5
					c-13.6-10.7-16.8-13.4-16.8-13.4l11,14.5c0,0-5.6-4.2-15.5-10.3c-4.7-3-9.7-5.7-14.7-8.1c0,0,7.7,7.8,15.8,16.6
					c5.2,5.7,9.6,12.2,13,19.2c0,0-10.6-12.6-29.4-25.5s-32.7-12.1-32.7-12.1s3.9-0.8,26.4,17.4s29.7,41.9,34.4,63.4s-7.9,50-7.9,50
					s1.7-16.2,1.7-24.5s-0.1-13.4-0.1-13.4s-6.8,21.2-12.9,32.2s-15.9,22.4-15.9,22.4s11.6-21.8,14.4-29.5c2-5.9,3.6-11.9,4.7-18.1
					c0,0-15.2,39-51.5,61.9S1086.2,971.5,1086.2,971.5z"/>
				<path class="st6" d="M742.7,967.7c0,0,46.6-47.8,98.5-65.4s88.3-22.9,114-18.5s49.4,19,49.4,19s-24.2-19.4-43.2-25.7
					c-11.1-3.7-22.6-6.4-34.2-8.1c0,0,4.6-1.9,16.8-2.9s23.8-1.8,23.8-1.8s-23.5-3.8-37.2-3.6s-30.7,0.7-30.7,0.7s26.1-6.7,42.4-8.2
					s27.2-1.5,27.2-1.5c-8.2-2.7-16.6-4.6-25.1-5.8c-7.5-0.8-15.1-0.8-22.6,0.2c0,0,20-5.6,32.2-7.2s33.5-0.3,33.5-0.3
					s-14-4.6-27.1-5.8s-19.4-3.1-19.4-3.1c14.8-2.9,30-3.2,45-1.1c23.6,3.8,41.5,21.9,41.5,21.9s-14.4-17.3-29.2-30.2
					S970.8,802,970.8,802s15.9,1.6,24.5,6.5s19.4,11,19.4,11s-8.5-11.6-15.2-18.3s-17-14.7-17-14.7s9.4-4,22,4
					c12.3,7.7,32.9,24.4,32.9,24.4s-5.9-12.5-23.7-30c-5.2-5.1-19-14.6-19-14.6s16.8,3.5,28,9.3c11.9,6.1,33.3,19.4,33.3,19.4
					s-12.1-19.1-25.6-25.5c-8.4-4-18.5-10.4-18.5-10.4s13.1-8,33.9-0.2c26.6,10,29.2,15.5,44.1,31.3c0,0-13.7-28.6-34.9-39.9
					c-7.4-3.9-26.8-8.8-26.8-8.8s14.4-7.5,30.2-3.8c28,6.6,42.7,13.1,61.2,32.5c0,0-7-22.7-19.2-34.6c-23-22.5-39.2-18.2-39.2-18.2
					s9.3-17,46.7-5c28.7,9.2,54.5,27.6,54.5,27.6s-32.8-41.7-93-65.4c-49.4-19.5-127.9-14.5-127.9-14.5s25.8-1.8,44.9,6.3
					s26.7,16.3,26.7,16.3c-8-2.5-16.1-4.3-24.4-5.4c-7.3-0.8-14.7-1.2-22-1.2c7.8,1.6,15.4,4.2,22.5,7.7c10.7,5.5,13,8.5,13,8.5
					c-7.8-1.7-15.6-3-23.6-3.7c-11.7-1-27.9,1.1-27.9,1.1s12.5,2.6,21.6,5.5c4.9,1.5,9.7,3.4,14.2,5.8c-10.5-0.7-21-0.4-31.4,0.9
					c-18.3,2.1-33.8,4.6-33.8,4.6s15,0,25.4,1.4l10.4,1.4c-18.9,1-37.6,3.6-56.1,7.8c-31.6,7-77,35.6-77,35.6s41-24.3,95.5-26.8
					s81,21.1,81,21.1s-21.6-8.9-45.4-11c-34.4-3.1-80.6,17.1-80.6,17.1s30.1-7.8,50.8-5.7s36.9,16.5,36.9,16.5s-16.1-4.6-28.5-5.4
					c-8.9-0.4-17.8-0.2-26.6,0.7c0,0,19.3,1.3,27.9,6.2s12.3,8.1,12.3,8.1c-8.4-1.8-17-3.1-25.6-3.8c-8.7-0.6-17.4,0.2-25.8,2.3
					c0,0,15.2,1.2,25.8,5.6s14.2,6.4,14.2,6.4s-16.6-2-44.8,3.4S826.2,814,826.2,814s26.9-5.1,42.6-5.8s28-0.5,28-0.5
					c-8.8,1.8-17.5,4-26.1,6.7c-7.2,2.4-14.3,5.2-21.2,8.4c0,0,17.5-3.7,27.7-3.5s19.2,0.7,19.2,0.7s-15.5,2.5-26.2,5.5
					s-18,5.7-18,5.7l30.5-3.1c0,0-12.5,5.3-22.4,9.9s-25.6,13.3-25.6,13.3s15.9-6.3,26.6-9.3s15.9-5.7,15.9-5.7
					s-22.9,12.5-35.2,20.3s-26.5,18.4-26.5,18.4s28.2-14,39.5-17.8c6.1-2,12.1-4.5,17.8-7.4c0,0-24.1,14.7-37.7,23.3
					s-32.9,23.3-32.9,23.3s24.3-12.3,35.5-16.7s25.3-8.3,25.3-8.3s-36.8,18.3-62,35.7S742.7,967.7,742.7,967.7z"/>
				<path class="st6" d="M665.5,965c21.2-48.7,50.9-71,50.9-71s-16.1,18.7-27.9,39.8c-17.1,30.5-20.9,72.9-20.9,72.9
					s6.7-27.3,17.1-45.6s28.5-31.9,28.5-31.9s-10.4,14.1-16.3,25.1c-1.6,2.9-3.1,6-4.4,8.9c17.2-28.9,38.3-56.1,61.8-82.7
					c-1.9,1.3-3.9,2.6-6,4c-6.2,4.3-19.4,16-19.4,16s9.8-14.7,19.1-24.3c9.8-10.2,29.3-28.5,29.3-28.5s-20,9.6-30.7,21.2
					c-6.7,7.2-15.9,15.9-15.9,15.9s-0.7-12.1,14.3-30.2c19-23.1,24.4-25.1,43-37.4c0,0-28.1,10.4-45.9,28.7
					c-6.2,6.3-18.2,23.3-18.2,23.3s0.2-13.3,9.8-27.1c17.1-24.5,28.3-37.3,51.3-52.6c0,0-20.6,4.8-35.1,15
					c-27.2,19.1-30.8,33.8-30.8,33.8s-9.2-9.4,15.9-42c19.3-25,44.7-46.8,44.7-46.8S733.1,776,689,828.2
					c-36.1,42.8-65.6,113.1-65.6,113.1s9.6-23.1,24-39.7s24-22.8,24-22.8c-5.3,6.8-10.1,14-14.5,21.4c-6.3,11-10.2,19.5-10.2,19.5
					c4.6-7,9.8-13.5,15.6-19.6c8.8-9.2,12.2-11.1,12.2-11.1s-7.2,10.4-12.9,20.8s-11,25-11,25s7.3-11,13.5-19
					c3.3-4.3,6.8-8.4,10.5-12.3c-4.9,9-9.1,18.4-12.7,28c-6.2,16.4-10.8,30.4-10.8,30.4s6.4-13.4,11.9-22.6l5.5-9.2
					c-7,16.4-13,33.3-17.7,50.5c-7.9,28.6-5,70.9-5,70.9S644.3,1013.7,665.5,965z"/>
				<path class="st6" d="M664.5,1214c-14.9-39.7-3.9-65-3.9-65s-1.4,18.1,2.7,36.2c6,26.2,32,55.4,32,55.4s-13-20.3-16.4-36.2
					s3.3-31.2,3.3-31.2s0.5,13,2.8,22.3c0.6,2.5,1.4,5.1,2.2,7.5c-4.7-25.2-4.7-50.7-2.2-76.6c-0.8,1.5-1.7,3.1-2.5,4.8
					c-2.5,5-6.2,17.5-6.2,17.5s-1.4-13.2,0.1-22.8c1.7-10.2,6.4-29.3,6.4-29.3s-11.3,13.5-12.7,25c-0.9,7.2-3.2,16.2-3.2,16.2
					s-9-7.7-8.3-25c1-22,4.4-25.3,12.5-40c0,0-17.9,17-21.1,35.3c-1.1,6.4-0.1,21.9-0.1,21.9s-9-8.8-10-21.4
					c-1.8-22.3-0.6-34.7,9.3-53c0,0-15,10.6-21,22.5c-11.1,22.4-4,33.3-4,33.3s-14.8-2.8-14.9-33.3c-0.1-23.4,7.3-46.9,7.3-46.9
					s-22.9,34.3-26,84.4c-2.5,41.2,20,97.9,20,97.9s-7.5-18.7-6.2-34.7s5.6-23.6,5.6-23.6c0,6.5,0.7,12.9,1.9,19.3
					c1.1,5.6,2.6,11.1,4.4,16.5c-0.7-6.2-0.6-12.4,0.3-18.5c1.5-9.2,3.2-11.7,3.2-11.7c0.6,6.2,1.6,12.3,2.9,18.3
					c2.1,8.9,7.5,20.4,7.5,20.4s-1.1-9.9-1.1-17.3c-0.1-4,0.2-7.9,0.9-11.8c2,7.9,4.8,15.6,8.2,23c5.9,13,11.5,23.9,11.5,23.9
					c-2-6.3-3.7-12.7-5.1-19.1l-1.5-8c5.3,13.7,11.7,26.9,19.2,39.5c12.8,21.6,44.8,48.3,44.8,48.3S679.4,1253.6,664.5,1214z"/>
				<path class="st6" d="M1333.6,1378.6c14.2,0.9,19.6-19.6,18.6-31c-1.1-14.2-14.9-23.2-27.2-25.5c-15-2.9-33.7,3.8-35.1,21.4
					c-1.6,14.2,1.9,27.3,16.7,34.6L1333.6,1378.6z"/>
				<path d="M1332.1,1380.7c14.9-0.5,21.6-12.2,23.7-25.9c3-19.7-13.5-32.5-31.3-35.2c-13.4-2-28.4,3.4-35.6,15.1
					c-9.9,15.9,0,37.1,14.7,45.3c2.2,1.2,9.1-1.9,6-3.6c-22.6-12.6-23.1-52.4,8.3-52.7c13.3-0.1,26.1,9.1,30.1,21.6
					c2.7,8.4-1.1,30.9-12.8,31.3C1332.3,1376.5,1327,1380.9,1332.1,1380.7L1332.1,1380.7z"/>
				<path d="M1336.4,1349.6c0.3,8.1-6.1,14.9-14.2,15.1c-8.1,0.3-14.9-6.1-15.1-14.2c-0.3-8.1,6.1-14.9,14.2-15.1
					C1329.4,1335.1,1336.2,1341.5,1336.4,1349.6C1336.4,1349.6,1336.4,1349.6,1336.4,1349.6z"/>
				<path class="st1" d="M1338.2,1347.5c0.2,2.9-2.1,5.5-5,5.6c-2.9,0.2-5.5-2.1-5.6-5c-0.2-2.9,2.1-5.5,5-5.6c0.1,0,0.1,0,0.2,0
					C1335.6,1342.3,1338,1344.5,1338.2,1347.5C1338.2,1347.4,1338.2,1347.5,1338.2,1347.5z"/>
				<path class="st1" d="M1331.2,1335.4c0.1,1.3-0.9,2.5-2.3,2.6c-1.3,0.1-2.5-0.9-2.6-2.3s0.9-2.5,2.3-2.6c0,0,0.1,0,0.1,0
					C1330,1333.1,1331.2,1334.1,1331.2,1335.4z"/>
				<path class="st6" d="M994.3,1405.6c40.4-17.7,22.5-75-18.8-59.4c-14,5.9-25.2,13-24.7,29.1c0.5,14.2,11.8,30.7,28,30.1
					L994.3,1405.6z"/>
				<path d="M995.8,1407.3c14-6.6,25.8-19.2,25-35.7c-0.8-14.9-10.8-28.6-26.4-30c-15.3-1.4-39,6.8-45.1,22.4
					c-7.8,19.9,6.7,43,28.1,43.8c3,0.1,7.9-4.3,2.8-4.5c-18.5-0.7-28.7-21-24.4-37.5c4-15.6,29-23.4,42.4-17.6
					c9.3,4,14,13.9,15,23.4c1.6,14.3-8.1,26.6-20.4,32.4C988,1406.2,992.3,1409,995.8,1407.3L995.8,1407.3z"/>
				<path d="M1000,1373.7c0.3,8.1-6.1,14.9-14.2,15.1c-8.1,0.3-14.9-6.1-15.1-14.2c-0.3-8.1,6.1-14.9,14.2-15.1c0,0,0,0,0,0
					C992.9,1359.3,999.7,1365.6,1000,1373.7C1000,1373.7,1000,1373.7,1000,1373.7z"/>
				<path class="st1" d="M1003.4,1367.5c0.2,2.9-2.1,5.4-5,5.6c-2.9,0.2-5.4-2.1-5.6-5c-0.2-2.9,2.1-5.4,5-5.6c0,0,0.1,0,0.1,0
					C1000.8,1362.3,1003.3,1364.6,1003.4,1367.5C1003.4,1367.5,1003.4,1367.5,1003.4,1367.5z"/>
				<path class="st1" d="M1006.2,1359.3c0.1,1.3-0.9,2.5-2.3,2.6c-1.3,0.1-2.5-0.9-2.6-2.3c-0.1-1.3,0.9-2.5,2.3-2.6
					c0,0,0.1,0,0.1,0C1005,1356.9,1006.1,1357.9,1006.2,1359.3C1006.2,1359.2,1006.2,1359.2,1006.2,1359.3z"/>
				<path d="M1254.4,1363.9c6.6-16.1,16.3-31.3,30.8-43c7.4-5.8,15.8-10.2,24.8-13c9-2.7,18.3-3.9,27.6-3.7c4.5,0.1,9,0.5,13.5,1.1
					c4.6,0.7,9.1,1.7,13.6,2.9c8.7,2.4,17.1,6,24.9,10.7c15.5,8.4,27,21.7,44.9,19.1c-7.5,4.7-17.8,4.6-26.4,1.8s-16.4-6.3-24.1-9.2
					c-7.5-2.9-15.2-5.2-23-6.7c-3.8-0.7-7.7-1.2-11.5-1.5c-4.3-0.4-7.9-0.4-12-0.4c-15.7,0.2-30.6,3.3-44.1,11.2
					C1279.8,1340.8,1267.6,1352.5,1254.4,1363.9z"/>
				<path d="M1252,1366.3c7.9,1,15.6,2,23.3,2.6c7.3,1.9,14.8,3.3,22.3,4.3c15,2,30.2,2.2,45.2,0.4c15-1.7,29.6-5.7,43.5-11.6
					c6.9-3,13.5-6.5,19.9-10.6c7.2-3,14.2-6.4,20.9-10.3c-4.7,6.5-10.1,12.5-16.1,17.8c-6.7,4.3-13.8,8.1-21.1,11.2
					c-14.7,6.3-30.1,10.5-46,12.3c-15.8,1.8-31.7,1.7-47.5-0.4c-7.9-1.1-15.6-2.5-23.3-4.4C1265.7,1374.5,1258.7,1370.7,1252,1366.3
					z"/>
				<path d="M870.4,1374.6c18.1-7.3,35.3-15.9,53-23.9c8.8-4,17.6-8,26.6-11.7c9.1-3.9,18.4-7.4,27.8-10.4
					c10.2-2.7,20.8-3.9,31.4-3.4c10.6,0.4,21,2.9,30.8,7.2c19.4,8.7,33.9,24.6,42.7,42.1c-15.2-12.5-30.8-23.5-47.9-28.3
					c-16.7-5.2-35.4-4.3-52.1-0.7c-17.7,5.2-36.1,12.1-54.8,17.4S890.2,1373.8,870.4,1374.6z"/>
				<path d="M875.7,1374.6c9,2,17.7,4.5,26.4,6.9c8.2,3.7,16.4,7.1,24.7,10.2c16.6,6.3,33.6,11.4,50.9,12.9
					c17.3,1.6,34.8-0.8,51.1-6.8c8.2-3,16.1-6.8,23.7-11.1c8.4-3,16.4-7,24.8-10.9c-6.3,6.7-13.1,13-20.3,18.7
					c-8,4.6-16.4,8.5-25.1,11.8c-17.5,6.5-36.3,9-54.9,7.4c-18.6-1.6-36.3-7-53.3-13.4c-8.5-3.2-16.8-6.8-25.2-10.3
					C890.8,1384.9,883.2,1380,875.7,1374.6z"/>
				<path d="M628.1,1265.1c-5-8.7-11.4-16.5-18.8-23.2c-7.1-6.3-15.6-10.9-24.8-13.4c-4.6-1.2-9.4-1.1-13.9,0.4
					c-4.6,1.6-8.5,4.9-10.8,9.2c-5,8.6-5,19.3-3.9,29v-0.3c1.6,8.2,4.7,15.9,7.7,24.2s6.1,17.4,4.6,27.5s-7.5,17.5-10.4,24.8
					c-1.7,3.6-2.5,7.3-1.7,11s3.1,7.4,5.8,10.8l-0.6,0.7c-4-2.4-7.2-5.9-9.3-10.1c-2-4.6-1.8-10-0.6-14.5c2.8-9,6.8-16.6,7.6-23.9
					c0.6-7.3-1.4-15.3-3.8-23.5s-5.2-17-5.7-26.1v-0.4v0.1c0.5-10.6,2.6-21.4,8.1-30.7c2.8-4.7,6.8-8.6,11.6-11.3
					c5-2.7,10.7-3.8,16.4-3.4c11.5,0.6,21.5,7.1,28.9,14.8c7.4,7.8,12.5,17.5,14.7,28L628.1,1265.1z"/>
				<path d="M691.7,1405.9c5.9,11.8,9.5,24.5,10.6,37.6c0.6,6.6,0.3,13.3-0.8,19.9c-1.2,6.6-3.4,13.2-7.6,18.5
					c1.3-13.1,0.5-25.1-0.5-37.6C692.5,1431.8,690.8,1419.2,691.7,1405.9z"/>
				<path d="M1042.7,2246.8c-8.7,95.7-43.2,185.7-62.6,279.3c-1,4.6,12,2.4,12.9-1.7c19.4-93.6,53.9-183.6,62.6-279.3
					C1056.1,2240.2,1043.1,2242.8,1042.7,2246.8z"/>
				<path d="M1112,2245.5c29.7,98.8,66.1,195.5,93.8,294.9c1,3.7,14,0.2,12.9-3.5c-27.7-99.4-64.2-196.1-93.8-294.9
					C1123.8,2238.3,1110.9,2241.9,1112,2245.5L1112,2245.5z"/>
				<path d="M1355.3,2014.3c-22.9,178.8-78.7,351.4-125,525c-1.3,5,11.8,3.1,13-1.5c46.3-173.7,102.1-346.2,125-525.1
					C1368.9,2007.4,1355.9,2009.7,1355.3,2014.3L1355.3,2014.3z"/>
				<path d="M1380.2,1906.4c17.1,111.7,75.6,215,123,316c15.1,32.1-21.5,58-39.2,80.1c-18.9,23.6-38.7,46-56.8,70.3
					c-41.7,55.9-77.6,116.1-114,175.6c-3.5,5.7,9.7,5,12.2,0.8c36.4-59.6,73-119,114-175.6c21.2-29.2,44.5-57,68.6-83.8
					c13-14.5,26.5-27.9,32.5-46.8c6.1-19.2-19.9-53.6-26.9-69.3c-12.2-27.3-24.8-54.5-37-81.8c-27-60.5-53.3-123.2-63.4-189
					C1392.3,1897.8,1379.3,1900.9,1380.2,1906.4L1380.2,1906.4z"/>
				<path d="M734.4,2089.1c32.1,85.9,59.4,173.8,93.7,258.8c15,37.1,30.3,74.1,44.9,111.5c9.5,24.3,25.5,54.4,25.7,81
					c0,2.3,13,0.3,13-3.5c-0.2-23.9-14-50.3-22.3-72.1c-14.2-37.5-29.7-74.6-44.8-111.7c-35.7-87.8-64-178.6-97.1-267.4
					C746.2,2082.4,733.4,2086.4,734.4,2089.1L734.4,2089.1z"/>
				<path d="M693.7,1884.6c-19.2,70.5-32.3,142.3-44.1,214.3c-10.8,65.8-39.9,126.9-47.1,193.4c-5.3,49.7,33.1,86.1,65.4,119
					c46,46.9,108.4,71.5,156.2,116c2.6,2.4,14.3-2.5,12.2-4.5c-41.8-38.9-94.7-62.4-138.2-99.1c-34.6-29.2-81.3-72.6-83.2-120.4
					c-2.9-70.3,36.4-138.4,47.5-206.8c11.7-72,24.9-143.9,44.1-214.3C707.3,1879.5,694.6,1881.2,693.7,1884.6L693.7,1884.6z"/>
				<path d="M1186.5,1696.6c0,0,63.5-25.2,100.6-13.1c1.2-0.8,1.8-1.3,1.8-1.3c-36.2-16.3-101.8,8.8-101.8,8.8
					c-33.2-13.3-57.7-9.5-81.2-4.6C1130.5,1684.4,1157.2,1684.9,1186.5,1696.6z"/>
				<path d="M1095.7,1807.5c11.7-8.4,25.7-13.4,39.7-16.8s28.5-4.9,42.9-5.5c14.4-0.5,28.8,0,43.1,1.5c14.3,1.3,28.5,3.5,42.5,6.7
					c-14.3-0.4-28.6-1.2-42.8-1.5s-28.4-0.5-42.5,0.1c-14.1,0.4-28.2,1.7-42.2,3.8C1122.5,1798.1,1108.8,1801.6,1095.7,1807.5z"/>
				<path d="M1006.7,1685.2c15.3,1.7,30.3,3.8,45.5,5.3c14.9,3,29.8,5.4,44.8,7.6c30,4.2,60.2,6.7,90.4,6.4s60.4-3.5,89.2-11.6
					c14.4-4,28.3-9.5,41.5-16.4c14-5.8,27.1-13.4,39.2-22.5c-9.8,11.8-22,21.8-35,30.4c-13.8,7.2-28.3,13-43.3,17.2
					c-29.9,8.4-60.8,11.6-91.6,12s-61.4-2.3-91.8-6.5c-15.2-2.1-30.3-4.7-45.3-7.6C1035.8,1694.9,1021.1,1690.5,1006.7,1685.2z"/>
				<path d="M1095.7,1734.4c13.8,10.6,30.8,14.3,47.3,16.7c16.8,2,33.7,2.2,50.5,0.6c16.8-1.4,33.5-4.3,49.8-8.9
					c16.1-4.9,32.3-10.7,45.4-22c-10.7,13.9-27,22.6-43.3,28.7c-16.5,6-33.7,9.7-51.2,11.2c-17.4,1.4-35.1,1-52.4-2.6
					C1124.8,1754.4,1107.2,1747.8,1095.7,1734.4z"/>
				<path d="M432.5,2398.3c0.2,53.9-2.1,100.9-23.2,151.3c-1.8,4.4,15,2.4,17.2-2.6c21.5-51.3,23.5-98.6,23.3-153.3
					C449.7,2389.5,432.5,2392.5,432.5,2398.3L432.5,2398.3z"/>
				<path d="M1661.7,2361.4c0,31.2-2.4,64.8,13.9,92.8c3.6,6.1,20.2,0,15.9-7.3c-15.1-25.9-12.4-58.2-12.4-87
					C1679.1,2351.4,1661.6,2354.4,1661.7,2361.4L1661.7,2361.4z"/>
			</g>
		</g>
		<path class="st7" d="M1536.4,835.9c-9.8-10.1-13-24.8-8.3-38.1l9.6-27.6c2.2-7.9,8.9-27.4,26-47.1c18.2-21,52.2-46.7,110.5-49.3
			c49.8-2.3,60.4-41.1,62.1-49.7c0.4-3.2,1.1-4.7,2.4-8.5c10.8-31,1.9-65.8-23.1-87c-49.1-41.7-117.9-18-135.2,36.8
			c-4.1,12.9-15.2,22.4-28.6,24.5c-34.6,5.3-56.7-25.6-47.1-53.2c29.7-85.4,123.3-130.7,208.7-101c84.4,29.3,129.6,121,102.1,205.6
			c-8,39.4-45.7,109.2-137.5,113.4c-53,2.5-62.1,36-62.1,36.4c-0.3,1.5-0.8,2.9-1.3,4.4l-9.3,26.9
			C1595.8,849.4,1560.2,860.1,1536.4,835.9z"/>
		<path class="st8" d="M1536.4,835.9l1.3,1.2c3.4,3,7.2,5.5,11.4,7.4c3.5,1.6,7.2,2.7,11,3.2c10.5,1.5,21.2-1.4,29.5-8
			c5.1-4.1,9.1-9.4,11.5-15.4c0.4-0.8,0.6-1.6,0.9-2.4s0.6-1.8,0.8-2.7c0.6-1.8,1.2-3.7,1.7-5.6l3.6-11.7l1.9-6.1l0.5-1.5
			c0.1-0.5,0.2-1,0.4-1.4c0.3-1,0.5-2.1,0.8-3.1c0.4-1.3,0.8-2.5,1.3-3.7c0.5-1.2,1-2.3,1.6-3.4c1.2-2.3,2.5-4.4,4-6.5
			c5.9-8.3,14.6-15.1,24.6-19.8s21.2-7.2,32.7-8.2l8.1-0.8c0.7-0.1,1.3-0.1,2-0.2l2-0.3l4-0.6c1.4-0.2,2.7-0.5,4.1-0.7l4.1-0.8
			c2.7-0.6,5.4-1.3,8.1-2c11.1-3.1,21.8-7.5,31.8-13.2c10.5-6,20.1-13.6,28.5-22.3c8.8-9.2,16.3-19.6,22.3-30.9
			c3.1-5.8,5.8-11.9,8.1-18.1c2.3-6.2,4-12.7,5.3-19.2l0.1-0.3l0.3-1c4-13.5,6.2-27.5,6.4-41.6l0.1-2.7l-0.1-2.7
			c-0.1-1.8-0.1-3.7-0.2-5.5s-0.3-3.7-0.4-5.5s-0.4-3.7-0.6-5.5c-1-7.4-2.5-14.8-4.6-22c-8.8-30.7-27-57.9-52.1-77.7
			c-56.9-44.6-137.6-42-191.6,6.1c-1.2,1-2.3,2.1-3.5,3.2s-2.3,2.2-3.4,3.3c-2.2,2.3-4.4,4.5-6.4,7c-4.1,4.7-7.9,9.7-11.4,14.9
			c-6.8,10.4-12.4,21.5-16.6,33.2c-1.4,3.9-1.7,8.1-1.1,12.1c0.7,4.1,2.4,7.9,4.9,11.2c5.1,6.5,13.1,10,22.2,9.5
			c1.1,0,2.3-0.2,3.4-0.3c0.5-0.1,0.9-0.2,1.4-0.2s0.9-0.2,1.3-0.3c1.8-0.5,3.5-1.3,5.1-2.3c3.2-2,5.8-4.8,7.5-8.1l0.6-1.3
			c0.2-0.4,0.3-0.9,0.5-1.3c0.6-1.7,1.3-3.5,1.9-5.2c1.4-3.6,3-7,4.8-10.4c17.7-33.5,53.1-53.6,90.9-51.7c7,0.4,14,1.5,20.8,3.4
			c13.1,3.8,25.4,10.1,36,18.8c1.3,1.1,2.6,2.1,3.8,3.2l3.7,3.5c1.2,1.2,2.4,2.4,3.5,3.7l1.7,1.9l0.8,0.9l0.8,1l3.1,4
			c1,1.3,1.9,2.8,2.8,4.2l1.4,2.1l1.2,2.2c0.8,1.5,1.6,2.9,2.3,4.3c2.8,5.9,5.1,12,6.7,18.3c3,12.3,3.5,25,1.4,37.5l-0.4,2.3
			l-0.2,1.1l-0.3,1.1c-0.4,1.5-0.7,3-1.1,4.5l-0.3,1.1l-0.4,1.1l-0.7,2.2l-0.7,2.2l-0.4,1.1l-0.4,1c-0.5,1.2-0.9,2.4-1.2,3.2
			c-0.1,0.4-0.2,0.7-0.3,1.1l-0.1,0.6l-0.1,0.4l-0.1,0.6l-0.3,1.5l-0.3,1.2c-0.2,0.8-0.4,1.5-0.6,2.2c-0.4,1.5-0.9,2.9-1.5,4.3
			c-4.1,11.2-10.9,21.3-19.9,29.3c-4.4,3.8-9.2,6.9-14.3,9.5c-5,2.5-10.2,4.4-15.6,5.7c-5.1,1.2-10.4,2-15.7,2.3l-13.9,0.6
			c-17.6,1.3-34.2,4.8-48.9,10.7c-7.2,2.8-14.1,6.3-20.7,10.2c-6.2,3.8-12.1,8.1-17.6,12.8c-10,8.6-18.6,18.7-25.5,29.9
			c-3.1,5-5.8,10.1-8.1,15.5c-1.1,2.5-2.1,5.1-3,7.6c-0.2,0.7-0.4,1.3-0.7,2s-0.5,1.3-0.7,1.9c-0.5,1.2-1,2.5-1.4,3.7
			c-1.9,4.8-3.7,9.4-5.3,13.6l-2.4,6.2c-0.4,1-0.8,2-1.1,2.9c-0.3,0.9-0.6,1.8-0.9,2.8c-2,7.6-1.5,15.6,1.3,22.8
			c0.5,1.1,0.9,2.1,1.4,3c0.2,0.5,0.5,0.9,0.7,1.3s0.5,0.8,0.7,1.2c0.4,0.7,0.8,1.3,1.3,1.9c0.4,0.6,0.8,1.1,1.1,1.5l0.8,1
			L1536.4,835.9l-0.8-0.7l-0.9-0.9c-0.4-0.4-0.8-0.9-1.2-1.4c-0.5-0.6-1-1.2-1.5-1.8c-0.3-0.3-0.5-0.7-0.8-1.1l-0.8-1.3
			c-0.6-0.9-1.1-1.9-1.7-3c-0.6-1.2-1.1-2.4-1.5-3.6c-2.4-6.5-3-13.5-1.8-20.3c0.2-1,0.4-2.1,0.7-3.1c0.3-1.1,0.6-2.1,0.9-3.1
			c0.6-2,1.3-4.2,1.9-6.3l4.3-13.9l1.2-3.7c0.2-0.6,0.4-1.3,0.6-1.9s0.3-1.3,0.5-1.9c0.7-2.7,1.6-5.5,2.5-8.2c2-5.8,4.5-11.5,7.4-17
			c6.5-12.5,15-23.9,25-33.8c5.6-5.5,11.7-10.6,18.2-15.1c6.9-4.8,14.2-9,21.9-12.5c15.7-7.4,33.6-12.3,52.6-14.8l14-1.4
			c4.2-0.5,8.4-1.3,12.5-2.5c8.1-2.3,15.5-6.6,21.5-12.4c6.1-6.1,10.7-13.6,13.3-21.9c0.3-1,0.6-2.1,0.9-3.2c0.1-0.5,0.3-1,0.4-1.6
			l0.2-0.8l0.1-0.5v-0.4l0.1-0.6c0.1-0.4,0.1-0.9,0.2-1.3c0.2-0.9,0.4-1.9,0.6-2.7c0.5-1.7,0.9-3.1,1.3-4.3l0.3-0.9l0.2-0.8l0.5-1.7
			l0.5-1.7l0.2-0.8l0.2-0.9l0.7-3.4l0.2-0.8l0.1-0.9l0.2-1.7c1.2-9.4,0.4-18.9-2.2-28c-1.4-4.6-3.2-9-5.5-13.3
			c-0.6-1.1-1.2-2.1-1.8-3.1l-0.9-1.5l-1-1.5c-0.7-1-1.4-2-2.1-2.9l-2.3-2.8l-0.6-0.7l-0.6-0.7l-1.3-1.3c-0.8-0.9-1.7-1.8-2.6-2.5
			l-2.7-2.4c-1-0.8-2-1.5-3-2.3c-4-3-8.4-5.7-12.9-7.9c-4.6-2.2-9.3-3.9-14.2-5.1c-4.9-1.2-9.9-1.9-15-1.9c-21-0.5-41,8.7-54.5,24.8
			c-3.4,4-6.2,8.4-8.6,13.1c-1.2,2.4-2.2,4.8-3.1,7.3l-1.3,4c-0.4,1.1-0.7,2.2-1.2,3.3s-0.9,2.2-1.4,3.2
			c-6.2,12.9-17.4,22.5-31.1,26.7c-1.2,0.3-2.3,0.6-3.4,0.9s-2.3,0.5-3.5,0.7c-2.1,0.3-4.2,0.6-6.4,0.7c-4.4,0.3-8.9,0.1-13.3-0.6
			c-4.5-0.7-9-1.9-13.2-3.7c-27.5-11.4-41.4-42.1-31.8-70.3c5-14.3,11.7-28,20-40.7c4.3-6.4,8.9-12.5,13.9-18.3
			c2.4-3,5.2-5.7,7.8-8.5c1.3-1.4,2.8-2.7,4.2-4s2.8-2.7,4.3-3.9c65.5-58.6,164-60.8,232-5c7.5,6.2,14.6,13.1,21,20.4l2.4,2.8
			c0.8,0.9,1.6,1.8,2.3,2.8c1.5,1.9,2.9,3.8,4.4,5.7s2.7,3.9,4.1,5.8s2.6,4,3.8,6c9.7,15.6,17,32.7,21.4,50.6
			c2.2,8.6,3.6,17.3,4.4,26.1c0.2,2.2,0.4,4.3,0.5,6.5s0.2,4.3,0.3,6.5s0,4.3,0,6.4v3.2c-0.1,1-0.1,2.1-0.2,3.2
			c-0.9,16.3-4.1,32.4-9.4,47.9l0.3-1.3c-3.6,15.1-9.4,29.6-17.4,43c-7.4,12.6-16.6,24.2-27.2,34.3c-10.1,9.5-21.4,17.6-33.8,23.9
			c-11.5,5.8-23.8,10.2-36.4,12.9c-3,0.6-6.1,1.2-9.1,1.7l-4.5,0.6c-1.5,0.2-3,0.4-4.4,0.5l-4.4,0.4l-2.2,0.2
			c-0.7,0.1-1.5,0.1-2.2,0.1l-8.5,0.3c-10.4,0.3-20.3,2-29,5.4c-8.3,3.1-15.7,8.2-21.5,15c-1.3,1.6-2.5,3.2-3.6,5
			c-0.5,0.9-1,1.8-1.4,2.6c-0.4,0.8-0.8,1.7-1.1,2.5c0,0,0,0.1,0,0c3,0.7-7.9-1.9,0-0.1l-0.1,0.2l-0.1,0.4l-0.3,0.9
			c-0.2,0.6-0.4,1.2-0.6,1.7s-0.4,1.2-0.6,1.7l-0.6,1.5c-0.8,2-1.5,4-2.3,6l-4.4,11.4c-0.7,1.8-1.4,3.7-2.1,5.5
			c-0.4,0.9-0.7,1.8-1.1,2.7s-0.8,1.9-1.2,2.8c-3.3,6.7-8.2,12.5-14.4,16.7c-5.2,3.6-11.2,5.9-17.4,6.9c-5.1,0.8-10.3,0.6-15.3-0.5
			c-3.9-0.9-7.7-2.3-11.2-4.3c-2.5-1.4-4.9-3-7.1-4.9c-1.3-1.1-2.6-2.3-3.8-3.5C1536.8,836.3,1536.4,835.9,1536.4,835.9z"/>
		<circle class="st7" cx="1537.3" cy="900.3" r="44.5"/>
		<path class="st8" d="M1579.4,914.9c0,0,0.2-1,0.7-2.8l0.4-1.5c0.1-0.6,0.2-1.2,0.3-1.8l0.3-2.2c0.1-0.8,0.2-1.7,0.2-2.5
			c0.2-4.2-0.1-8.5-1.2-12.6c-1.3-5.4-3.6-10.5-6.8-15l-1.4-1.9c-0.5-0.6-1-1.2-1.6-1.8s-1-1.2-1.6-1.8l-1.8-1.7l-0.9-0.9l-1-0.8
			l-2-1.6c-0.7-0.5-1.5-0.9-2.2-1.4c-0.7-0.5-1.5-0.9-2.3-1.3c-1.6-0.9-3.2-1.6-4.9-2.3c-0.9-0.3-1.7-0.7-2.6-1l-2.7-0.7
			c-0.4-0.1-0.9-0.3-1.4-0.3l-1.4-0.2c-0.9-0.2-1.9-0.3-2.8-0.5c-1.9-0.2-3.9-0.3-5.9-0.2c-2,0.1-4,0.2-6,0.6c-1,0.2-2,0.5-3,0.7
			c-0.5,0.1-1,0.2-1.5,0.4l-1.5,0.5c-2,0.6-3.9,1.4-5.8,2.3l-2.8,1.5l-0.7,0.4l-0.7,0.5l-1.3,0.9l-1.3,0.9l-1.2,1l-1.2,1l-0.6,0.5
			l-0.6,0.6l-2.3,2.3l-2.1,2.6c-5.5,7.2-8.5,15.9-8.6,24.9v3.3l0.4,3.3l0.1,0.8l0.2,0.8l0.3,1.6l0.3,1.6l0.5,1.5l0.5,1.5l0.2,0.8
			l0.3,0.7c0.4,1,0.8,2,1.2,2.9c0.9,1.9,2,3.7,3.1,5.4l0.8,1.3c0.3,0.4,0.6,0.8,1,1.2c0.7,0.8,1.3,1.6,1.9,2.4
			c2.7,2.9,5.7,5.5,9.1,7.6c0.8,0.5,1.7,0.9,2.5,1.4l1.2,0.7c0.4,0.2,0.9,0.4,1.3,0.6l2.6,1.1c0.9,0.3,1.8,0.6,2.6,0.9
			c1.7,0.5,3.5,1,5.3,1.3c0.9,0.2,1.7,0.3,2.6,0.3c0.9,0.1,1.7,0.2,2.6,0.3h2.6h1.3l1.2-0.1l2.5-0.2c0.8-0.1,1.6-0.2,2.4-0.4
			c0.8-0.2,1.6-0.3,2.3-0.4l2.2-0.6c5.3-1.6,10.3-4.2,14.7-7.6c3.3-2.6,6.3-5.7,8.7-9.2c0.5-0.6,1-1.3,1.4-2l1.1-1.9
			c0.3-0.6,0.7-1.1,0.9-1.6l0.6-1.4L1579.4,914.9c0,0-0.3,0.9-0.9,2.7l-0.5,1.5c-0.2,0.5-0.5,1.1-0.8,1.7l-1,2
			c-0.3,0.7-0.8,1.4-1.3,2.2c-2.2,3.7-5,7.1-8.3,10c-4.4,3.9-9.5,6.9-15,8.9l-2.3,0.8c-0.8,0.2-1.6,0.4-2.5,0.6s-1.7,0.5-2.5,0.6
			l-2.6,0.4l-1.3,0.2l-1.4,0.1l-2.8,0.1c-0.9,0-1.9-0.1-2.8-0.1c-1,0-1.9-0.1-2.9-0.3c-1.9-0.2-3.9-0.6-5.7-1.1
			c-1-0.3-2-0.5-2.9-0.8l-2.9-1.1c-0.5-0.2-1-0.4-1.4-0.6l-1.4-0.7c-0.9-0.5-1.9-0.9-2.8-1.5c-1.9-1.1-3.7-2.3-5.4-3.7
			c-1.8-1.4-3.4-2.9-5-4.5c-0.8-0.8-1.5-1.7-2.2-2.6c-0.4-0.5-0.8-0.9-1.1-1.3l-1-1.4c-1.3-1.9-2.5-3.9-3.6-6
			c-0.5-1.1-1-2.2-1.4-3.3l-0.4-0.8l-0.3-0.8l-0.6-1.7l-0.6-1.7l-0.4-1.8l-0.4-1.8l-0.2-0.9l0-1c-0.2-1.2-0.3-2.4-0.4-3.7l-0.1-3.7
			c0.1-10.2,3.5-20.1,9.8-28.2l2.4-2.9l2.6-2.6l0.7-0.7l0.7-0.6l1.4-1.2l1.4-1.2l1.5-1l1.5-1l0.8-0.5l0.8-0.4l3.2-1.7
			c2.1-1,4.3-1.8,6.6-2.5l1.7-0.5c0.6-0.2,1.1-0.3,1.7-0.4c1.1-0.2,2.2-0.5,3.3-0.7c2.2-0.3,4.4-0.4,6.7-0.4c2.2,0,4.3,0.1,6.5,0.4
			c1,0.2,2.1,0.4,3.1,0.6l1.6,0.3c0.5,0.1,1,0.3,1.5,0.4l2.9,0.9c1,0.3,1.9,0.8,2.8,1.2c1.8,0.8,3.6,1.7,5.3,2.7
			c0.8,0.5,1.6,1,2.4,1.6c0.8,0.6,1.6,1.1,2.3,1.7s1.4,1.2,2.1,1.8l1,0.9l0.9,1l1.8,1.9c0.6,0.6,1.1,1.3,1.6,2
			c0.5,0.7,1.1,1.3,1.6,2s0.9,1.4,1.3,2.1c3.1,5,5.2,10.5,6.2,16.2c0.8,4.3,0.9,8.7,0.3,13c-0.1,0.8-0.2,1.7-0.4,2.5l-0.5,2.2
			c-0.2,0.7-0.3,1.3-0.4,1.8l-0.5,1.5L1579.4,914.9z"/>
		<path class="st7" d="M888.1,453.2c-13.5-3.8-23.8-14.8-26.4-28.6l-5.7-28.6c-4.4-17.6-4.9-36-1.5-53.8c5-27.4,21.3-66.6,70.2-98.6
			c41.7-27.2,31.2-66,28.4-74.3c-1.2-2.9-1.5-4.6-2.3-8.6c-6.4-32.2-31.7-57.6-64.1-63.3c-63.5-11-110.7,44.2-97.9,100.3
			c3,13.2-1.7,26.9-12.2,35.5c-27.1,22.1-61.9,6.7-67.6-22c-17.7-88.6,40-175.2,128.6-192.9c87.5-17.5,173.1,38.6,192.2,125.4
			c13.1,38,16,117.3-61,167.5c-44.4,29-35.2,62.5-35.1,62.9c0.5,1.4,0.9,2.9,1.2,4.4l5.6,27.9C946.2,434.7,920.9,462,888.1,453.2z"
			/>
		<path class="st8" d="M888.1,453.2l1.7,0.3c4.5,0.9,9,1.1,13.5,0.6c3.8-0.4,7.6-1.4,11.1-2.8c9.8-4.1,17.5-12,21.4-21.9
			c2.4-6.1,3.1-12.7,2.1-19.1c-0.1-0.9-0.3-1.7-0.5-2.5s-0.4-1.8-0.6-2.7c-0.4-1.9-0.9-3.8-1.3-5.7c-0.9-3.8-1.8-7.8-2.8-11.9
			c-0.5-2-1-4.1-1.5-6.2c-0.1-0.5-0.3-1-0.4-1.6s-0.3-1-0.4-1.4c-0.3-1-0.6-2.1-0.9-3.1c-0.3-1.3-0.6-2.6-0.8-3.9
			c-0.2-1.3-0.3-2.5-0.4-3.8c-0.1-2.5-0.1-5.1,0.1-7.6c0.9-10.2,4.9-20.5,11.2-29.5s14.6-17,24-23.7l6.6-4.8
			c0.6-0.4,1.1-0.8,1.6-1.2l1.6-1.3l3.2-2.6c1.1-0.8,2.1-1.8,3.1-2.7l3.1-2.8c2-1.9,4-3.9,6-5.8c8-8.3,15-17.5,20.7-27.5
			c2.9-5.2,5.5-10.6,7.7-16.1c2.2-5.7,4.1-11.6,5.5-17.5c3-12.4,4.1-25.2,3.6-38c-0.3-6.6-1-13.2-2.2-19.6c-1.2-6.5-2.9-13-5.2-19.2
			l-0.1-0.3l-0.2-1c-3.4-13.7-8.6-26.8-15.6-39.1l-1.3-2.4l-1.4-2.3c-1-1.5-1.9-3.1-2.9-4.6l-3.2-4.5c-1-1.5-2.2-2.9-3.3-4.4
			c-4.6-5.9-9.6-11.5-15.1-16.6c-23.1-22-52.6-36.2-84.3-40.5c-16.6-2.2-33.4-1.6-49.8,1.7c-52.9,10.8-95.8,49.3-112.3,100.7
			c-0.5,1.5-0.9,3-1.4,4.5s-0.9,3-1.3,4.6c-0.7,3.1-1.5,6.1-2,9.2c-1.2,6.2-1.9,12.4-2.3,18.6c-0.6,12.4,0.2,24.9,2.5,37.1
			c0.8,4.1,2.6,7.8,5.2,11c2.7,3.2,6.1,5.6,9.9,7.1c7.7,3,16.3,2,23.9-3c1-0.6,1.9-1.3,2.8-2c0.4-0.3,0.7-0.6,1.1-0.9s0.7-0.6,1-1
			c1.3-1.4,2.4-2.9,3.3-4.5c1.8-3.3,2.6-7.1,2.4-10.8l-0.1-1.4c-0.1-0.5-0.2-0.9-0.2-1.4c-0.3-1.8-0.7-3.6-1-5.4
			c-0.6-3.8-1-7.6-1.2-11.4c-1.7-37.8,18.6-73.2,52.2-90.6c6.3-3.3,12.9-5.8,19.7-7.6c6.7-1.7,13.5-2.8,20.4-3.1
			c6.7-0.3,13.5,0,20.1,1c1.6,0.3,3.3,0.5,4.9,0.8l5,1.1c1.6,0.4,3.3,0.8,4.9,1.4l2.4,0.8l1.2,0.4l1.2,0.5c1.6,0.6,3.1,1.2,4.7,1.9
			c1.5,0.7,3,1.4,4.5,2.2l2.2,1.1l2.1,1.3c1.4,0.8,2.8,1.7,4.2,2.6c5.4,3.6,10.4,7.7,15,12.3c8.8,9,15.7,19.8,20.2,31.6l0.8,2.2
			l0.4,1.1l0.3,1.1c0.4,1.5,0.9,2.9,1.3,4.4l0.3,1.1l0.2,1.1l0.5,2.2l0.5,2.2l0.2,1.1l0.2,1c0.2,1.3,0.4,2.5,0.6,3.4
			c0.1,0.4,0.2,0.8,0.3,1.1l0.2,0.6l0.1,0.4l0.2,0.6l0.5,1.4l0.3,1.1c0.2,0.8,0.4,1.5,0.6,2.3c0.4,1.5,0.7,3,0.9,4.5
			c2.1,11.8,1.4,23.9-2.3,35.3c-1.8,5.5-4.3,10.7-7.5,15.6c-3,4.7-6.6,9-10.6,12.8c-3.8,3.7-7.9,7-12.3,9.9L921,256
			c-14.5,10.1-27,21.5-36.7,34.1c-4.7,6.1-9,12.5-12.7,19.3c-3.4,6.4-6.3,13.1-8.7,20c-4.2,12.5-6.5,25.5-6.8,38.7
			c-0.1,5.8,0.2,11.7,0.9,17.5c0.3,2.8,0.8,5.4,1.3,8c0.1,0.7,0.3,1.4,0.4,2s0.2,1.3,0.3,2c0.2,1.3,0.4,2.6,0.6,3.9
			c0.8,5.1,1.6,9.9,2.3,14.5l1,6.6c0.2,1.1,0.3,2.1,0.5,3c0.2,1,0.4,1.9,0.7,2.8c1.7,6.3,5.2,12,9.9,16.5c0.9,1,1.9,1.7,2.8,2.5
			s1.8,1.4,2.7,1.9l1.3,0.8c0.4,0.2,0.8,0.4,1.2,0.6c0.7,0.4,1.4,0.7,2.1,1c0.6,0.3,1.2,0.5,1.7,0.7l1.2,0.4L888.1,453.2l-1-0.4
			l-1.3-0.3c-0.5-0.1-1.1-0.4-1.7-0.6c-0.7-0.2-1.5-0.5-2.2-0.9c-0.4-0.2-0.8-0.3-1.3-0.5l-1.3-0.7c-0.9-0.4-1.9-1.1-2.9-1.7
			c-6.9-4.6-12.2-11.2-15-19c-0.4-1-0.7-2-1-3c-0.3-1-0.6-2.1-0.8-3.1c-0.5-2.1-1-4.2-1.6-6.4l-3.4-14c-0.3-1.3-0.6-2.5-0.9-3.8
			c-0.2-0.6-0.3-1.3-0.5-1.9s-0.4-1.3-0.6-1.9c-0.8-2.7-1.4-5.5-2-8.4c-1.2-6.1-1.9-12.2-2.2-18.4c-0.7-14.1,0.8-28.2,4.5-41.8
			c2.1-7.6,4.7-15.1,8-22.2c3.5-7.6,7.7-15,12.5-21.9c9.8-14.4,22.7-27.7,37.9-39.4l11.4-8.3c3.4-2.6,6.6-5.4,9.5-8.5
			c5.8-6.1,10-13.5,12.3-21.6c2.2-8.4,2.3-17.2,0.4-25.6c-0.3-1.1-0.5-2.1-0.8-3.2c-0.2-0.5-0.3-1-0.5-1.5l-0.3-0.8l-0.2-0.4
			l-0.2-0.3l-0.2-0.6c-0.2-0.4-0.3-0.8-0.5-1.3c-0.3-0.9-0.6-1.8-0.8-2.7c-0.5-1.7-0.8-3.1-1-4.4l-0.2-0.9l-0.2-0.8l-0.4-1.7
			l-0.4-1.7l-0.2-0.8l-0.3-0.8l-1.1-3.3l-0.3-0.8l-0.3-0.8l-0.7-1.6c-3.8-8.7-9.3-16.5-16.2-23c-3.5-3.2-7.4-6.1-11.4-8.6
			c-1-0.6-2.1-1.2-3.2-1.7l-1.6-0.9l-1.7-0.7c-1.1-0.5-2.2-1-3.3-1.4l-3.4-1.2l-0.9-0.3l-0.9-0.2l-1.8-0.5c-1.2-0.4-2.3-0.6-3.5-0.9
			l-3.6-0.7c-1.2-0.2-2.5-0.3-3.8-0.5c-10.1-1.2-20.3-0.3-30,2.5c-4.8,1.5-9.5,3.5-13.9,5.9c-18.3,10.2-31,28.3-34.4,49
			c-0.9,5.2-1.1,10.4-0.8,15.7c0.2,2.6,0.5,5.3,1,7.9c0.3,1.4,0.6,2.7,0.9,4.1c0.2,1.1,0.5,2.3,0.7,3.4s0.3,2.3,0.4,3.5
			c1.2,14.2-3.6,28.3-13.2,38.8c-0.8,0.9-1.7,1.7-2.5,2.5s-1.8,1.6-2.7,2.4c-1.7,1.3-3.3,2.7-5.2,3.9c-3.7,2.5-7.6,4.6-11.7,6.3
			c-4.3,1.7-8.7,2.9-13.3,3.5c-29.5,4.1-57-15.3-63-44.5c-3-14.9-4.1-30.1-3.4-45.2c0.4-7.7,1.3-15.3,2.7-22.8
			c0.6-3.8,1.6-7.5,2.4-11.3c0.4-1.9,1-3.7,1.5-5.6c0.5-1.9,1-3.7,1.7-5.5C725,40.3,808.8-11.4,895.7,2.1c9.6,1.6,19.1,3.9,28.4,7
			l3.4,1.2c1.1,0.4,2.3,0.8,3.4,1.2l6.7,2.7l6.5,2.9c2.2,1,4.2,2.1,6.3,3.2c16.3,8.5,31.2,19.6,44.1,32.8
			c6.2,6.3,11.9,13.1,17.1,20.2c1.2,1.8,2.6,3.5,3.7,5.3l3.5,5.4c1.1,1.8,2.2,3.7,3.2,5.5l1.6,2.8l1.4,2.8
			c7.5,14.5,12.9,30,16.1,46.1l-0.4-1.3c4.6,14.9,6.9,30.4,6.8,46c0,14.7-2,29.3-6.1,43.3c-3.8,13.3-9.5,26-17,37.7
			c-7,10.8-15.3,20.8-24.8,29.5c-2.3,2-4.6,4.1-7,6l-3.6,2.8c-1.2,0.9-2.3,1.9-3.6,2.7l-3.6,2.6l-1.8,1.3c-0.6,0.4-1.2,0.8-1.8,1.2
			l-7.1,4.6c-8.8,5.5-16.5,12-22.3,19.3c-5.6,6.9-9.3,15.1-10.8,23.9c-0.3,2-0.5,4.1-0.5,6.1c0,1,0,2,0.1,3c0.1,0.9,0.2,1.8,0.3,2.7
			c0,0,0,0.1,0,0c3-1-7.8,2.3,0-0.1l0.1,0.2l0.1,0.5l0.2,0.9c0.1,0.6,0.3,1.2,0.4,1.8s0.3,1.2,0.4,1.7s0.2,1.1,0.3,1.6
			c0.3,2.1,0.7,4.2,1,6.3c0.7,4.1,1.3,8.2,2,12.1l0.9,5.8c0.2,1,0.3,1.8,0.4,2.9s0.3,2,0.3,3c0.6,7.5-0.8,15-4,21.7
			c-2.7,5.7-6.6,10.8-11.5,14.8c-7.1,5.8-16,9.1-25.3,9.4c-2.9,0.1-5.7-0.1-8.6-0.6c-1.7-0.3-3.4-0.7-5.1-1.1L888.1,453.2z"/>
		<circle class="st7" cx="921.5" cy="508.2" r="44.5"/>
		<path class="st8" d="M965.2,499.4c0,0-0.3-0.9-0.8-2.7l-0.4-1.5c-0.2-0.5-0.4-1.1-0.7-1.7s-0.5-1.3-0.8-2s-0.7-1.4-1.1-2.2
			c-1.9-3.8-4.4-7.2-7.4-10.3c-3.9-4-8.4-7.2-13.5-9.5l-2.1-0.9c-0.7-0.3-1.5-0.5-2.3-0.8c-0.8-0.3-1.5-0.5-2.3-0.7l-2.4-0.5
			l-1.2-0.3l-1.3-0.2l-2.5-0.3c-0.9-0.1-1.7-0.1-2.6-0.1c-0.9-0.1-1.8-0.1-2.7,0c-1.8,0.1-3.6,0.2-5.4,0.6c-0.9,0.2-1.8,0.3-2.7,0.5
			l-2.7,0.7c-0.4,0.1-0.9,0.2-1.4,0.4l-1.3,0.5c-0.9,0.4-1.8,0.7-2.7,1.1c-1.8,0.8-3.5,1.8-5.2,2.8c-1.7,1.1-3.3,2.2-4.8,3.5
			c-0.8,0.6-1.5,1.4-2.2,2.1c-0.4,0.3-0.8,0.7-1.1,1.1l-1,1.2c-1.4,1.6-2.6,3.2-3.8,4.9l-1.6,2.7l-0.4,0.7l-0.3,0.7l-0.7,1.5
			L883,492l-0.5,1.5l-0.5,1.5l-0.3,0.8l-0.2,0.8c-0.3,1-0.5,2.1-0.8,3.2s-0.3,2.2-0.5,3.3c-1.1,8.9,0.7,18,5.2,25.8l1.7,2.8l1.9,2.6
			l0.5,0.7l0.6,0.6l1.1,1.2l1.1,1.2l1.2,1.1l1.2,1.1l0.6,0.5l0.6,0.5l2.5,1.9c1.7,1.1,3.6,2.2,5.4,3.1l1.4,0.7
			c0.5,0.2,1,0.4,1.4,0.6c1,0.3,1.9,0.8,2.9,1.1c3.8,1.2,7.7,1.8,11.7,2c1,0,1.9,0,2.9-0.1h1.4c0.5,0,0.9-0.1,1.4-0.2l2.8-0.3
			c0.9-0.2,1.8-0.4,2.7-0.6c1.8-0.4,3.5-0.9,5.2-1.5c0.8-0.3,1.6-0.6,2.4-1c0.8-0.4,1.6-0.7,2.4-1.1l2.2-1.3l1.1-0.6l1-0.7l2-1.4
			c0.7-0.5,1.2-1,1.8-1.6s1.2-1,1.8-1.6l1.6-1.7c3.8-4.1,6.8-8.8,8.8-14c1.6-3.9,2.5-8.1,2.9-12.3c0.1-0.9,0.2-1.7,0.2-2.5
			s0-1.5,0-2.2s0-1.3,0-1.9s-0.1-1.1-0.2-1.5C965.3,500.5,965.2,499.5,965.2,499.4c0,0.1,0.2,1.1,0.6,2.9c0.1,0.5,0.2,1,0.3,1.5
			s0.1,1.2,0.2,1.9s0.1,1.4,0.2,2.2c0,0.8,0,1.7,0,2.5c0,4.4-0.7,8.7-2.1,12.9c-1.8,5.6-4.6,10.8-8.4,15.2l-1.6,1.9
			c-0.6,0.6-1.2,1.2-1.8,1.8s-1.2,1.2-1.9,1.8l-2.1,1.7l-1.1,0.8l-1.2,0.7l-2.3,1.5c-0.8,0.5-1.7,0.9-2.5,1.3
			c-0.8,0.5-1.7,0.9-2.6,1.2c-1.8,0.8-3.7,1.4-5.6,1.9c-1,0.3-1.9,0.6-2.9,0.8l-3,0.5c-0.5,0.1-1,0.2-1.5,0.2l-1.6,0.1
			c-1,0.1-2.1,0.2-3.2,0.2c-2.2,0-4.3-0.2-6.5-0.5c-2.2-0.3-4.4-0.7-6.6-1.3c-1.1-0.3-2.2-0.7-3.2-1.1c-0.5-0.2-1.1-0.3-1.6-0.6
			l-1.6-0.7c-2.1-1-4.2-2.1-6.2-3.3l-2.9-2.1l-0.7-0.5l-0.7-0.6l-1.4-1.2l-1.3-1.2l-1.3-1.3l-1.3-1.3l-0.6-0.7l-0.6-0.7l-2.3-3
			l-2-3.2c-5.1-8.8-7.2-19.1-5.8-29.2c0.2-1.2,0.4-2.5,0.6-3.7s0.6-2.4,0.9-3.6l0.2-0.9l0.3-0.9l0.6-1.7l0.6-1.7l0.8-1.6l0.8-1.6
			l0.4-0.8l0.5-0.8l1.9-3c1.3-1.9,2.8-3.7,4.4-5.5l1.2-1.3c0.4-0.4,0.8-0.8,1.3-1.2c0.9-0.8,1.7-1.5,2.6-2.3c3.5-2.7,7.3-5,11.3-6.7
			c1-0.4,2-0.7,3-1.1l1.5-0.5c0.5-0.2,1-0.3,1.5-0.4l3-0.7c1-0.2,2-0.3,3-0.4c2-0.3,3.9-0.4,5.9-0.4c1,0,1.9,0,2.9,0.1
			c1,0.1,1.9,0.1,2.8,0.3l2.7,0.5l1.3,0.3l1.3,0.4l2.6,0.7c0.8,0.2,1.6,0.6,2.4,0.9s1.6,0.6,2.3,0.9l2.2,1.1
			c5.2,2.7,9.8,6.4,13.6,10.9c2.8,3.3,5.2,7,6.9,11.1c0.4,0.8,0.7,1.5,1,2.3l0.7,2.1c0.2,0.6,0.4,1.3,0.6,1.8s0.2,1.1,0.3,1.5
			L965.2,499.4z"/>
	</g>
</g>
</svg>
